<svg id="Capa_1" enable-background="new 0 0 512 512" height="512" viewBox="0 0 512 512" width="512" xmlns="http://www.w3.org/2000/svg"><g><path d="m316.712 488.641h54.331l-45.322-99.62h-139.442l-45.322 99.62h54.331l24.312-50.475c1.736-3.604 5.383-5.896 9.384-5.896h54.03c4.001 0 7.648 2.292 9.384 5.896z" fill="#9ec8fc"/><path d="m512 349.9-256-20-256 20v35.865c0 6.095 4.941 11.036 11.036 11.036h489.927c6.095 0 11.036-4.941 11.036-11.036v-35.865z" fill="#ddebfd"/><path d="m481.095 349.9v35.865c0 6.095-4.941 11.036-11.036 11.036h30.905c6.095 0 11.036-4.941 11.036-11.036v-35.865z" fill="#bed9fd"/><path d="m512 349.9h-512v-323.231c0-6.095 4.941-11.036 11.036-11.036h489.927c6.095 0 11.036 4.941 11.036 11.036v323.231z" fill="#407194"/><path d="m459.67 138.96v87.61l-39.76 20-39.76-20v-87.61l39.762-10z" fill="#ddebfd"/><path d="m459.677 56.516v82.446h-79.53v-82.446c0-2.843 2.308-5.151 5.151-5.151h69.228c2.843 0 5.151 2.308 5.151 5.151z" fill="#9cd169"/><path d="m380.147 226.568h79.53v82.445c0 2.843-2.308 5.151-5.151 5.151h-69.228c-2.843 0-5.151-2.308-5.151-5.151z" fill="#6cbff8"/><path d="m500.964 15.633h-30.905c6.095 0 11.036 4.941 11.036 11.036v323.231h30.905v-323.231c0-6.095-4.941-11.036-11.036-11.036z" fill="#365f7e"/><path d="m241.975 213.232h-174.496c-2.845 0-5.151-2.306-5.151-5.151l-10-124.39v-27.175c0-2.845 2.306-5.151 5.151-5.151h194.496c2.845 0 5.151 2.306 5.151 5.151v118.959l-10 32.607c0 2.844-2.306 5.15-5.151 5.15z" fill="#6cbff8"/><path d="m251.975 51.365h-25.755c2.845 0 5.151 2.306 5.151 5.151v181.565c0 2.845-2.306 5.151-5.151 5.151h25.755c2.845 0 5.151-2.306 5.151-5.151v-181.565c0-2.845-2.306-5.151-5.151-5.151z" fill="#5fa7ee"/><path d="m257.13 175.47v28.77l-102.4 10-102.4-10v-120.55c19.98.28 36.64 14.23 41.05 32.93.61 2.56 3.15 4.17 5.69 3.5 5.64-1.5 11.56-2.3 17.67-2.3 30.19 0 55.85 19.39 65.21 46.4 1.48 4.27 6.43 6.28 10.36 4.06 8.1-4.58 17.45-7.2 27.42-7.2 14.39 0 27.5 5.45 37.4 14.39z" fill="#ddebfd"/><path d="m257.13 175.47v28.77h-25.76v-41.92c9.77 2.07 18.61 6.69 25.76 13.15z" fill="#bed9fd"/><path d="m52.328 204.235v33.846c0 2.845 2.306 5.151 5.151 5.151h194.496c2.845 0 5.151-2.306 5.151-5.151v-33.846z" fill="#9cd169"/><path d="m257.126 238.081v-33.846h-25.755v33.846c0 2.845-2.306 5.151-5.151 5.151h25.755c2.845 0 5.151-2.306 5.151-5.151z" fill="#68b181"/><circle cx="210.022" cy="99.8" fill="#ddebfd" r="16.384"/><path d="m380.55 105.15-75.082 82.768 33.705 33.705 82.768-75.082c12.401-11.249 12.871-30.584 1.032-42.423s-31.174-11.369-42.423 1.032z" fill="#5392f9"/><g><path d="m305.468 187.917 18.61 18.61z" fill="#e9a761"/><path d="m422.973 104.117c-2.628-2.628-5.626-4.646-8.822-6.065 4.795 11.024 2.247 24.545-7.391 33.307l-82.682 75.167 15.096 15.096 82.767-75.082c12.401-11.248 12.871-30.583 1.032-42.423z" fill="#4071f7"/></g><path d="m302.957 196.302c-10.257-4.482-22.208-2.294-31.733 3.757-26.474 16.816-9.803 47.517-39.256 57.255-4.653 1.538-5.868 7.618-2.068 10.713 45.523 37.084 106.912 3.596 106.912-41.346z" fill="#ddebfd"/><path d="m336.81 226.68c0 44.94-61.39 78.43-106.91 41.35-1.76-1.44-2.43-3.51-2.2-5.48 42.81 19.89 91.49-11.05 91.49-51.07l.11-.51z" fill="#bed9fd"/><path d="m294.516 169.324-5.323 5.323c-5.936 5.936-5.936 15.561 0 21.497l41.754 41.754c5.936 5.936 15.561 5.936 21.497 0l5.323-5.323c5.936-5.936 5.936-15.561 0-21.497l-41.754-41.754c-5.936-5.936-15.561-5.936-21.497 0z" fill="#eec06b"/><path d="m357.766 211.078-15.185-15.185c5.804 5.804 5.697 15.322-.239 21.258l-5.323 5.323c-5.936 5.936-15.454 6.043-21.258.239l15.185 15.185c5.936 5.936 15.561 5.936 21.497 0l5.323-5.323c5.936-5.937 5.936-15.561 0-21.497z" fill="#e9a761"/><path d="m417.838 496.367h-323.676c-4.268 0-7.726-3.459-7.726-7.726 0-4.268 3.459-7.726 7.726-7.726h323.676c4.268 0 7.726 3.459 7.726 7.726s-3.458 7.726-7.726 7.726z" fill="#ddebfd"/></g></svg>