<svg xmlns="http://www.w3.org/2000/svg" width="676" height="676" viewBox="0 0 507.014 507"><path fill="#f3d55b" d="m507.015625 29.285156v425.222656c0 28.753907-23.3125 52.066407-52.070313 52.066407-28.753906 0-52.066406-23.3125-52.066406-52.066407 0-28.757812 23.3125-52.070312 52.066406-52.070312h-295.050781v-373.152344c0-14.378906 11.65625-26.03125 26.035157-26.03125h295.050781c14.378906 0 26.035156 11.652344 26.035156 26.03125zm0 0"/><path fill="#7d6599" d="m237.996094 37.964844h190.917968c4.792969 0 8.675782 3.882812 8.675782 8.675781v104.136719c0 4.792968-3.882813 8.679687-8.675782 8.679687h-190.917968c-4.792969 0-8.675782-3.886719-8.675782-8.679687v-104.136719c0-4.792969 3.882813-8.675781 8.675782-8.675781zm0 0"/><path fill="#b49aca" d="m272.710938 98.710938c-3.828126.003906-7.207032-2.496094-8.316407-6.160157-1.109375-3.660156.304688-7.617187 3.488281-9.738281l26.035157-17.355469c2.578125-1.722656 5.882812-1.9375 8.660156-.5625 2.78125 1.375 4.617187 4.125 4.816406 7.21875.199219 3.097657-1.265625 6.0625-3.84375 7.78125l-26.035156 17.359375c-1.421875.949219-3.09375 1.453125-4.804687 1.457032zm0 0"/><path fill="#b49aca" d="m281.386719 133.421875c-3.824219.003906-7.203125-2.496094-8.3125-6.15625-1.113281-3.664063.304687-7.621094 3.488281-9.742187l78.101562-52.066407c2.578126-1.722656 5.878907-1.9375 8.660157-.5625s4.617187 4.125 4.816406 7.21875c.199219 3.097657-1.265625 6.0625-3.84375 7.78125l-78.101563 52.070313c-1.425781.949218-3.097656 1.457031-4.808593 1.457031zm0 0"/><path fill="#f29c1f" d="m454.945312 506.574219h-295.050781c-28.753906 0-52.066406-23.3125-52.066406-52.066407 0-28.757812 23.3125-52.070312 52.066406-52.070312h295.050781c-28.753906 0-52.066406 23.3125-52.066406 52.070312 0 28.753907 23.3125 52.066407 52.066406 52.066407zm0 0"/><path fill="#8697cb" d="m194.605469 63.996094c-4.789063 0-8.675781-3.882813-8.675781-8.675782v-17.355468c0-4.792969 3.886718-8.679688 8.675781-8.679688 4.792969 0 8.679687 3.886719 8.679687 8.679688v17.355468c0 4.792969-3.886718 8.675782-8.679687 8.675782zm0 0"/><g fill="#f29c1f"><path d="m472.300781 63.996094c-4.792969 0-8.675781-3.882813-8.675781-8.675782v-17.355468c0-4.792969 3.882812-8.679688 8.675781-8.679688s8.679688 3.886719 8.679688 8.679688v17.355468c0 4.792969-3.886719 8.675782-8.679688 8.675782zm0 0"/><path d="m472.300781 116.066406c-4.792969 0-8.675781-3.886718-8.675781-8.679687v-17.355469c0-4.792969 3.882812-8.675781 8.675781-8.675781s8.679688 3.882812 8.679688 8.675781v17.355469c0 4.792969-3.886719 8.679687-8.679688 8.679687zm0 0"/><path d="m472.300781 168.132812c-4.792969 0-8.675781-3.882812-8.675781-8.675781v-17.355469c0-4.792968 3.882812-8.679687 8.675781-8.679687s8.679688 3.886719 8.679688 8.679687v17.355469c0 4.792969-3.886719 8.675781-8.679688 8.675781zm0 0"/><path d="m194.605469 272.269531c-4.789063 0-8.675781-3.886719-8.675781-8.679687v-17.355469c0-4.792969 3.886718-8.675781 8.675781-8.675781 4.792969 0 8.679687 3.882812 8.679687 8.675781v17.355469c0 4.792968-3.886718 8.679687-8.679687 8.679687zm0 0"/><path d="m472.300781 272.269531c-4.792969 0-8.675781-3.886719-8.675781-8.679687v-17.355469c0-4.792969 3.882812-8.675781 8.675781-8.675781s8.679688 3.882812 8.679688 8.675781v17.355469c0 4.792968-3.886719 8.679687-8.679688 8.679687zm0 0"/><path d="m194.605469 324.335938c-4.789063 0-8.675781-3.882813-8.675781-8.675782v-17.355468c0-4.792969 3.886718-8.679688 8.675781-8.679688 4.792969 0 8.679687 3.886719 8.679687 8.679688v17.355468c0 4.792969-3.886718 8.675782-8.679687 8.675782zm0 0"/><path d="m472.300781 324.335938c-4.792969 0-8.675781-3.882813-8.675781-8.675782v-17.355468c0-4.792969 3.882812-8.679688 8.675781-8.679688s8.679688 3.886719 8.679688 8.679688v17.355468c0 4.792969-3.886719 8.675782-8.679688 8.675782zm0 0"/><path d="m194.605469 376.40625c-4.789063 0-8.675781-3.886719-8.675781-8.679688v-17.355468c0-4.792969 3.886718-8.679688 8.675781-8.679688 4.792969 0 8.679687 3.886719 8.679687 8.679688v17.355468c0 4.792969-3.886718 8.679688-8.679687 8.679688zm0 0"/><path d="m472.300781 376.40625c-4.792969 0-8.675781-3.886719-8.675781-8.679688v-17.355468c0-4.792969 3.882812-8.679688 8.675781-8.679688s8.679688 3.886719 8.679688 8.679688v17.355468c0 4.792969-3.886719 8.679688-8.679688 8.679688zm0 0"/><path d="m463.625 211.523438h-260.339844c-4.792968 0-8.679687-3.886719-8.679687-8.679688 0-4.789062 3.886719-8.675781 8.679687-8.675781h260.339844c4.792969 0 8.675781 3.886719 8.675781 8.675781 0 4.792969-3.882812 8.679688-8.675781 8.679688zm0 0"/></g><path fill="#fac176" d="m255.351562 445.828125h-104.132812c-4.792969 0-8.679688-3.886719-8.679688-8.675781 0-4.792969 3.886719-8.679688 8.679688-8.679688h104.132812c4.792969 0 8.679688 3.886719 8.679688 8.679688 0 4.789062-3.886719 8.675781-8.679688 8.675781zm0 0"/><path fill="#fac176" d="m307.421875 445.828125h-17.355469c-4.792968 0-8.679687-3.886719-8.679687-8.675781 0-4.792969 3.886719-8.679688 8.679687-8.679688h17.355469c4.792969 0 8.675781 3.886719 8.675781 8.679688 0 4.789062-3.882812 8.675781-8.675781 8.675781zm0 0"/><path fill="#7d6599" d="m237.996094 246.234375h190.917968c4.792969 0 8.675782 3.886719 8.675782 8.679687v104.136719c0 4.789063-3.882813 8.675781-8.675782 8.675781h-190.917968c-4.792969 0-8.675782-3.886718-8.675782-8.675781v-104.136719c0-4.792968 3.882813-8.679687 8.675782-8.679687zm0 0"/><path fill="#b49aca" d="m272.710938 306.980469c-3.828126.003906-7.207032-2.496094-8.316407-6.15625-1.109375-3.660157.304688-7.617188 3.488281-9.742188l26.035157-17.355469c3.988281-2.660156 9.375-1.582031 12.035156 2.40625 2.660156 3.984376 1.585937 9.375-2.402344 12.035157l-26.035156 17.355469c-1.421875.949218-3.09375 1.457031-4.804687 1.457031zm0 0"/><path fill="#b49aca" d="m281.386719 341.691406c-3.824219.007813-7.203125-2.496094-8.3125-6.15625-1.113281-3.660156.304687-7.617187 3.488281-9.742187l78.101562-52.066407c3.988282-2.660156 9.375-1.582031 12.035157 2.40625 2.660156 3.984376 1.585937 9.375-2.402344 12.035157l-78.101563 52.066406c-1.425781.949219-3.097656 1.457031-4.808593 1.457031zm0 0"/><path fill="#f29c1f" d="m194.605469 63.996094c-4.789063 0-8.675781-3.882813-8.675781-8.675782v-17.355468c0-4.792969 3.886718-8.679688 8.675781-8.679688 4.792969 0 8.679687 3.886719 8.679687 8.679688v17.355468c0 4.792969-3.886718 8.675782-8.679687 8.675782zm0 0"/><path fill="#7f8c8d" d="m238.34375 143.835938-55.191406 55.191406c-10.257813 9.558594-26.242188 9.277344-36.15625-.636719-9.914063-9.914063-10.195313-25.898437-.636719-36.15625l16.398437-16.402344 38.792969-38.792969c-9.558593 10.257813-9.277343 26.246094.636719 36.160157 9.914062 9.914062 25.898438 10.195312 36.15625.636719zm0 0"/><path fill="#35495e" d="m183.152344 199.027344-135.027344 135.027344c-10.257812 9.558593-26.246094 9.277343-36.160156-.636719-9.914063-9.914063-10.195313-25.898438-.636719-36.15625l135.03125-135.027344c-9.558594 10.257813-9.277344 26.242187.636719 36.15625 9.914062 9.914063 25.898437 10.195313 36.15625.636719zm0 0"/><path fill="#d1d4d1" d="m238.34375 143.835938c-7.441406 7.453124-18.644531 9.683593-28.375 5.65625-9.730469-4.027344-16.078125-13.523438-16.078125-24.054688s6.347656-20.027344 16.078125-24.054688c9.730469-4.027343 20.933594-1.792968 28.375 5.65625 10.152344 10.164063 10.152344 26.632813 0 36.796876zm0 0"/><path fill="#f9eab0" d="m48.816406 11.132812 7.8125 15.914063c.632813 1.28125 1.855469 2.167969 3.269532 2.371094l17.554687 2.550781c1.636719.234375 2.996094 1.382812 3.503906 2.953125.511719 1.570313.085938 3.296875-1.097656 4.449219l-12.636719 12.382812c-1.023437.996094-1.492187 2.433594-1.25 3.84375l3.003906 17.484375c.28125 1.628907-.390624 3.277344-1.726562 4.25-1.339844.96875-3.113281 1.097657-4.574219.324219l-15.699219-8.261719c-1.261718-.664062-2.769531-.664062-4.035156 0l-15.707031 8.261719c-1.460937.765625-3.230469.636719-4.566406-.332031-1.332031-.96875-2-2.613281-1.722657-4.242188l2.992188-17.484375c.242188-1.410156-.226562-2.847656-1.25-3.84375l-12.703125-12.382812c-1.183594-1.152344-1.613281-2.871094-1.105469-4.441406.507813-1.570313 1.859375-2.71875 3.492188-2.960938l17.554687-2.550781c1.414063-.203125 2.636719-1.089844 3.269531-2.371094l7.855469-15.914063c.734375-1.472656 2.238281-2.40625 3.882813-2.40625 1.644531 0 3.148437.933594 3.882812 2.40625zm0 0"/><path fill="#fb7b76" d="m345.222656 198.332031-6.316406 18.640625c-.515625 1.5-.253906 3.160156.703125 4.425782l11.765625 15.769531c1.097656 1.46875 1.265625 3.433593.433594 5.066406-.835938 1.632813-2.523438 2.652344-4.355469 2.628906l-19.671875-.25c-1.585938-.027343-3.082031.734375-3.992188 2.03125l-11.371093 16.078125c-1.054688 1.5-2.871094 2.265625-4.679688 1.976563-1.8125-.289063-3.300781-1.578125-3.839843-3.328125l-5.839844-18.796875c-.472656-1.511719-1.65625-2.695313-3.167969-3.167969l-18.796875-5.839844c-1.75-.542968-3.039062-2.035156-3.324219-3.84375-.285156-1.808594.480469-3.625 1.980469-4.679687l16.0625-11.367188c1.292969-.914062 2.054688-2.40625 2.03125-3.992187l-.253906-19.671875c-.023438-1.835938.996094-3.523438 2.628906-4.355469s3.597656-.664062 5.070312.433594l15.765626 11.773437c1.273437.949219 2.925781 1.207031 4.425781.695313l18.640625-6.316406c1.734375-.589844 3.648437-.144532 4.945312 1.148437 1.292969 1.292969 1.742188 3.210937 1.15625 4.941406zm0 0"/><path fill="#f29c1f" d="m25.203125 86.847656c-3.835937 0-7.476563-1.691406-9.953125-4.625-2.472656-2.929687-3.527344-6.804687-2.878906-10.589844l2.601562-15.261718-11.046875-10.789063c-3.542969-3.457031-4.820312-8.628906-3.285156-13.339843 1.53125-4.710938 5.605469-8.144532 10.503906-8.855469l15.300781-2.230469 6.839844-13.886719c2.191406-4.445312 6.71875-7.2617185 11.675782-7.2617185 4.957031 0 9.484374 2.8164065 11.675781 7.2617185l6.835937 13.886719 15.292969 2.230469c4.902344.710937 8.980469 4.144531 10.507813 8.859375 1.53125 4.714844.253906 9.886718-3.296876 13.347656l-11.054687 10.777344 2.601563 15.246094c.835937 4.882812-1.175782 9.816406-5.183594 12.726562-4.011719 2.910156-9.324219 3.292969-13.707032.984375l-13.667968-7.195313-13.695313 7.195313c-1.867187.996094-3.949219 1.515625-6.066406 1.519531zm-2.863281-47.554687 6.414062 6.246093c3.070313 3 4.464844 7.316407 3.730469 11.542969l-1.5 8.800781 7.921875-4.167968c3.789062-1.988282 8.3125-1.988282 12.097656 0l7.933594 4.175781-1.511719-8.835937c-.722656-4.21875.675781-8.523438 3.742188-11.515626l6.402343-6.246093-8.84375-1.285157c-4.226562-.621093-7.882812-3.269531-9.796874-7.089843l-3.964844-8.054688-3.957032 8.027344c-1.898437 3.824219-5.542968 6.480469-9.761718 7.117187zm0 0"/><path fill="#ff5364" d="m308.53125 273.433594c-.714844-.003906-1.429688-.0625-2.132812-.175782-5.085938-.78125-9.273438-4.394531-10.789063-9.3125l-5.207031-16.851562-16.851563-5.25c-4.90625-1.523438-8.519531-5.695312-9.328125-10.769531-.804687-5.070313 1.335938-10.160157 5.527344-13.128907l14.414062-10.195312-.226562-17.644531c-.066406-5.136719 2.792969-9.863281 7.371094-12.191407 4.578125-2.328124 10.082031-1.855468 14.195312 1.222657l14.136719 10.535156 16.710937-5.65625c4.855469-1.621094 10.207032-.355469 13.820313 3.269531 3.617187 3.621094 4.871094 8.972656 3.242187 13.824219l-5.675781 16.714844 10.554688 14.136719c3.089843 4.109374 3.5625 9.621093 1.214843 14.195312-2.28125 4.625-7.039062 7.503906-12.195312 7.367188l-17.648438-.234376-10.191406 14.414063c-2.496094 3.578125-6.578125 5.714844-10.941406 5.730469zm-22.378906-45.828125 11.28125 3.46875c4.230468 1.3125 7.546875 4.617187 8.867187 8.84375l3.523438 11.34375 6.839843-9.667969c2.535157-3.578125 6.644532-5.703125 11.027344-5.703125h.140625l11.871094.148437-7.089844-9.503906c-2.648437-3.558594-3.382812-8.1875-1.960937-12.390625l3.800781-11.222656-11.222656 3.800781c-4.203125 1.433594-8.84375.703125-12.40625-1.949218l-9.476563-7.058594.144532 11.847656c.066406 4.445312-2.066407 8.632812-5.699219 11.195312zm0 0"/><path fill="#f0c419" d="m81.792969 133.421875c-4.792969 0-8.675781-3.886719-8.675781-8.679687v-17.355469c0-4.792969 3.882812-8.675781 8.675781-8.675781s8.679687 3.882812 8.679687 8.675781v17.355469c0 4.792968-3.886718 8.679687-8.679687 8.679687zm0 0"/><path fill="#f0c419" d="m64.4375 150.777344h-17.355469c-4.792969 0-8.679687-3.886719-8.679687-8.675782 0-4.792968 3.886718-8.679687 8.679687-8.679687h17.355469c4.792969 0 8.679688 3.886719 8.679688 8.679687 0 4.789063-3.886719 8.675782-8.679688 8.675782zm0 0"/><path fill="#f0c419" d="m81.792969 185.488281c-4.792969 0-8.675781-3.882812-8.675781-8.675781v-17.355469c0-4.792969 3.882812-8.679687 8.675781-8.679687s8.679687 3.886718 8.679687 8.679687v17.355469c0 4.792969-3.886718 8.675781-8.679687 8.675781zm0 0"/><path fill="#f0c419" d="m116.503906 150.777344h-17.355468c-4.792969 0-8.675782-3.886719-8.675782-8.675782 0-4.792968 3.882813-8.679687 8.675782-8.679687h17.355468c4.792969 0 8.679688 3.886719 8.679688 8.679687 0 4.789063-3.886719 8.675782-8.679688 8.675782zm0 0"/><path fill="#ff5364" d="m50.675781 400.339844c-3.511719-.003906-6.675781-2.117188-8.015625-5.359375-1.34375-3.242188-.601562-6.972657 1.878906-9.457031l12.269532-12.277344c3.40625-3.289063 8.820312-3.242188 12.167968.105468 3.34375 3.347657 3.394532 8.761719.105469 12.164063l-12.273437 12.28125c-1.625 1.625-3.832032 2.542969-6.132813 2.542969zm0 0"/><path fill="#ff5364" d="m26.132812 400.339844c-2.300781 0-4.507812-.917969-6.136718-2.542969l-12.269532-12.28125c-3.289062-3.402344-3.242187-8.816406.105469-12.164063 3.347657-3.347656 8.761719-3.394531 12.164063-.105468l12.273437 12.277344c2.480469 2.484374 3.222657 6.214843 1.878907 9.457031-1.34375 3.242187-4.503907 5.355469-8.015626 5.359375zm0 0"/><path fill="#ff5364" d="m13.863281 437.152344c-3.511719-.003906-6.671875-2.117188-8.015625-5.359375-1.34375-3.242188-.601562-6.972657 1.878906-9.457031l12.269532-12.269532c2.179687-2.253906 5.40625-3.160156 8.441406-2.367187 3.035156.796875 5.402344 3.164062 6.199219 6.199219.792969 3.035156-.113281 6.261718-2.367188 8.4375l-12.273437 12.273437c-1.625 1.625-3.832032 2.539063-6.132813 2.542969zm0 0"/><path fill="#ff5364" d="m62.945312 437.152344c-2.300781-.003906-4.507812-.917969-6.136718-2.542969l-12.269532-12.273437c-2.253906-2.175782-3.160156-5.402344-2.367187-8.4375.796875-3.035157 3.164063-5.402344 6.199219-6.199219 3.035156-.792969 6.261718.113281 8.4375 2.367187l12.273437 12.269532c2.480469 2.484374 3.222657 6.214843 1.878907 9.457031-1.34375 3.242187-4.507813 5.355469-8.015626 5.359375zm0 0"/></svg>