<?xml version="1.0" encoding="utf-8"?>
<!-- Generator: Adobe Illustrator 22.0.1, SVG Export Plug-In . SVG Version: 6.00 Build 0)  -->
<svg version="1.1" xmlns="http://www.w3.org/2000/svg" xmlns:xlink="http://www.w3.org/1999/xlink" x="0px" y="0px"
	 viewBox="0 0 308.1 239.3" style="enable-background:new 0 0 308.1 239.3;" xml:space="preserve">
<style type="text/css">
	.st0{fill:#B0BEC5;}
	.st1{fill:#78909C;}
	.st2{fill:#546E7A;}
	.st3{fill:#90A4AE;}
	.st4{fill:#CFD8DC;}
	.st5{fill:#263238;}
	.st6{fill:#E64A19;}
	.st7{opacity:0.2;fill:#212121;}
	.st8{fill:#D84315;}
	.st9{fill:#1A237E;}
	.st10{fill:#212121;}
	.st11{fill:#000014;}
	.st12{fill:#EEEEEE;}
	.st13{fill:#0D47A1;}
	.st14{opacity:0.2;fill:#EEEEEE;}
	.st15{fill:#F9A825;}
	.st16{opacity:0.1;fill:#212121;}
	.st17{fill:#C62828;}
	.st18{fill:#37474F;}
	.st19{fill:#FF8F00;}
	.st20{fill:#039BE5;}
	.st21{opacity:0.2;}
	.st22{fill:#BDBDBD;}
	.st23{fill:#A7A7AF;}
	.st24{fill:#558B2F;}
	.st25{fill:#7CB342;}
	.st26{fill:#311B92;}
	.st27{fill:#33691E;}
	.st28{fill:#FFFFFF;}
</style>
<g id="Ñëîé_1">
</g>
<g id="Ñëîé_2">
</g>
<g id="Ñëîé_3">
</g>
<g id="Ñëîé_4">
</g>
<g id="Ñëîé_5">
	<g>
		<g>
			<g>
				<g>
					<path class="st0" d="M90.9,118c10.7,35.2,68.2,50.1,66.4,35.8c-1.7-13-30.7-12.5-40-43.1c-2.1-6.9-10.7-11.5-17.6-9.4
						C92.8,103.3,88.8,111.1,90.9,118z"/>
					<path class="st0" d="M145.9,148.9c1-1.4,2.1-2.3,3.2-2.9c1.1-1.4,3.4-2.8,5.9-3.6c3.8-1.2,7.3-0.5,7.9,1.4
						c0.4,1.3-0.7,2.9-2.7,4.1c4.8,2.3,11,5.5,7.2,12.5c-3.5,6.6-13.1,3.7-17.7,1.2c-1.6-0.9-4.1-2.2-5.3-3.3
						C144.5,154.5,142.3,153.7,145.9,148.9z"/>
					<path class="st6" d="M144.2,159.8C144.2,159.8,144.2,159.8,144.2,159.8c0.7,0,1.2-0.6,1.1-1.2c-0.4-7.2,1.6-10.3,5.1-13.1
						c0.5-0.4,0.6-1.1,0.2-1.6c-0.4-0.5-1.1-0.6-1.6-0.2c-4,3.2-6.4,6.9-5.9,15C143.1,159.3,143.6,159.8,144.2,159.8z"/>
				</g>
				<path class="st7" d="M94.4,104.4c-1.9,3.2-2.6,7.2-1.4,10.9c6.8,22.5,32.7,36.6,50,40.2c0.8,0.2,1.5,0.3,2.3,0.4
					c0.7,0.1,1.3,0.2,2,0.3c1.3,1,3.2,1.9,4.5,2.6c3.9,2.1,11.5,4.6,15.8,1.1c0,0.1-0.1,0.2-0.2,0.3c-3.5,6.6-13.1,3.7-17.7,1.2
					c-1.3-0.7-3.1-1.7-4.5-2.6c-0.1,0.5-0.5,0.8-1,0.9h-0.1c-0.6,0-1.1-0.5-1.1-1.1v-0.1c-17.3-2.9-45-17.2-52.1-40.6
					C89.5,113.1,91,107.9,94.4,104.4z"/>
				<path class="st0" d="M124.2,95.4c9.1,6.8,15.9,25,15.9,56.8c0,16.5-9.1,72.7-15.9,72.7c-6.8,0-40.9-54.5-40.9-70.4
					c0-11.4-5.8-21.9-2.3-43.2c2.3-13.6,6.8-15.9,9.1-20.5C94.7,93.2,119.3,96.7,124.2,95.4z"/>
				<g>
					<path class="st5" d="M131.5,209.2c-2.4,9.3-5,15.8-7.3,15.8c-2.2,0-7.3-5.8-13.2-14.1C114.1,208.8,123.2,207.1,131.5,209.2z"/>
					<path class="st8" d="M111,212.1c0.2,0,0.5-0.1,0.7-0.2c2.7-2,11-3.7,19-1.7c0.6,0.2,1.2-0.2,1.4-0.8c0.2-0.6-0.2-1.2-0.8-1.4
						c-9.3-2.3-18-0.1-20.9,2.1c-0.5,0.4-0.6,1.1-0.2,1.6C110.3,211.9,110.7,212.1,111,212.1z"/>
				</g>
				<path class="st7" d="M81,111.4c2.3-13.6,6.8-15.9,9.1-20.5c1,0.5,3,1,5.4,1.6c-2.2,3-4.8,7.1-6.3,16.3
					c-3.5,21.3,2.3,31.8,2.3,43.2c0,10.5,15,38,27,55.3c0.5,0.7,1,1.5,1.5,2.1c3.1,4.3,6,7.9,8.2,10.1c-1.4,3.4-2.7,5.4-4,5.4
					c-2.1,0-6.9-5.3-12.5-13.1c-0.2,0.1-0.4,0.2-0.7,0.2c-0.4,0-0.7-0.2-0.9-0.5c-0.4-0.5-0.3-1.2,0.3-1.6c0,0,0,0,0,0
					c-12.1-17.4-27.1-44.9-27.1-55.5C83.3,143.2,77.5,132.6,81,111.4z"/>
				<path class="st4" d="M124.2,95.4c9.1,6.8,15.9,25,15.9,56.8c0,16.5-36.4,72.7-43.2,72.7c-6.8,0-13.6-54.5-13.6-70.4
					c0-11.4-5.8-21.9-2.3-43.2c2.3-13.6,6.8-15.9,9.1-20.5C94.7,93.2,119.3,96.7,124.2,95.4z"/>
				<g>
					<path class="st5" d="M110.3,210.9c-6,8.3-11.2,14-13.4,14c-2.4,0-4.7-6.6-6.8-15.9C98.6,207,107.5,208.8,110.3,210.9z"/>
					<path class="st6" d="M110.2,212.2c0.3,0,0.7-0.1,0.9-0.4c0.4-0.5,0.3-1.2-0.2-1.6c-3-2.4-12-4.5-21.1-2.2
						c-0.6,0.2-1,0.8-0.8,1.4c0.2,0.6,0.8,1,1.4,0.8c8.6-2.1,16.9,0,19.2,1.8C109.7,212.1,110,212.2,110.2,212.2z"/>
				</g>
				<path class="st7" d="M81,111.4c2.3-13.6,6.8-15.9,9.1-20.5c4.5,2.3,29.2,5.8,34.1,4.5c1,0.8,2,1.7,3,2.8
					c-9.2-0.7-22.6-2.9-25.8-4.5c-2.3,4.5-6.8,6.8-9.1,20.4c-3.5,21.3,2.3,31.8,2.3,43.2c0,9.4,2.4,32.6,5.8,49.8
					c0.2,0.8,0.3,1.6,0.5,2.3c0.8,3.9,1.7,7.4,2.6,10.3c-2.9,3.3-5.2,5.3-6.5,5.3c-2.3,0-4.6-6.1-6.6-14.8c-0.6,0.1-1.2-0.2-1.3-0.8
					c-0.2-0.6,0.2-1.2,0.8-1.4h0c-3.8-17.4-6.6-43.3-6.6-53.4C83.3,143.2,77.5,132.6,81,111.4z"/>
				<path class="st4" d="M71.9,59.1c0,29.5,19.6,38.6,40.9,38.6c22.7,0,36.4-9.1,36.4-38.6c0-21.3-13.6-43.2-36.4-43.2
					C78.8,15.9,71.9,37.8,71.9,59.1z"/>
				<path class="st7" d="M95.9,18.2c-10.8,8.2-13.5,22-13.5,35.6c0,29.5,19.6,38.6,40.9,38.6c5.5,0,10.5-0.5,14.9-1.8
					c-6.2,5.1-14.8,7.1-25.3,7.1c-21.3,0-40.9-9.1-40.9-38.6C71.9,41.9,76.4,24.4,95.9,18.2z"/>
				<path class="st5" d="M103.7,61v1.5c0,15.1,0,29.4,30.9,30.6c9.3-5.3,14.5-15.8,14.5-34c0-10.7-3.4-21.4-9.6-29.5
					c-0.6,0-1.2,0-1.8,0c-13.6,0-22.7,2.5-28,7.8C103.7,43.5,103.7,52.4,103.7,61z"/>
				<path class="st11" d="M106,62.5c0,15.5-0.1,28.2,31.8,28.4c6.8,0,13.6-15.8,13.6-31.8c0-9.7-4.5-25-10.2-27.2
					c-1.1,0-2.2,0-3.4,0C104.9,31.8,106,46.8,106,62.5z"/>
				<path class="st12" d="M130.1,32.1c9,12.5,14.4,27.7,14.5,44.2c1.5-4.7,2.3-9.8,2.3-15c0-11.1-3.6-21.3-9.7-29.5
					C134.6,31.8,132.3,31.9,130.1,32.1z"/>
				<path class="st3" d="M99.2,44.8c0-1.5-1.5-2-3.3-1.2L90.5,46c-1.8,0.8-3.3,2.7-3.3,4.2v16.1c0,1.5,1.5,3.3,3.3,4.2l5.3,2.4
					c1.8,0.8,3.3,0.3,3.3-1.2V44.8z"/>
				<path class="st6" d="M140.1,155.7c0.6,0,1.1-0.5,1.1-1.1c0-0.6-0.5-1.1-1.1-1.1c-25,0-53.3-0.7-56.3-2.2
					c-0.6-0.3-1.2-0.1-1.5,0.5c-0.3,0.6-0.1,1.2,0.5,1.5C87.3,155.5,131.3,155.7,140.1,155.7z"/>
				<g>
					<path class="st22" d="M61.7,94.2c-0.1,1.4,0.8,2.6,2,2.8l2.3,0.2c1.2,0.1,2.4-0.9,2.5-2.3l1.7-17.8c0.1-1.4-0.8-2.6-2-2.8
						l-2.3-0.2c-1.3-0.1-2.4,0.9-2.5,2.3L61.7,94.2z"/>
					<path class="st7" d="M63.4,76.4c0.1-1.4,1.3-2.4,2.5-2.3l0.2,0c-0.3,0.4-0.6,0.9-0.6,1.5l-1.7,17.8c-0.1,1.4,0.8,2.6,2,2.8
						l2.1,0.2c-0.5,0.6-1.1,0.9-1.9,0.9L63.7,97c-1.3-0.1-2.2-1.4-2-2.8L63.4,76.4z"/>
					<path class="st22" d="M45.9,115.8c-0.1,1.4,0.8,2.6,2,2.8l6.8,0.7c1.2,0.1,2.4-0.9,2.5-2.3l1.2-12.7c0.1-1.4-0.8-2.6-2-2.8
						l-6.8-0.7c-1.2-0.1-2.4,0.9-2.5,2.3L45.9,115.8z"/>
					<path class="st22" d="M38.7,143.3c-0.1,1.4,0.8,2.6,2,2.8l13.6,1.3c1.2,0.1,2.4-0.9,2.5-2.3l2.5-25.4c0.1-1.4-0.8-2.6-2-2.8
						l-13.6-1.3c-1.3-0.1-2.4,0.9-2.5,2.3L38.7,143.3z"/>
					<path class="st7" d="M41.2,117.9c0.1-1.4,1.3-2.4,2.5-2.3l2.3,0.2v0l1.2-12.7c0.1-1.4,1.3-2.4,2.5-2.3l2.6,0.3
						c-1,0.2-1.8,1.1-1.9,2.2l-1.2,12.7l0,0l-2.3-0.2c-1.2-0.1-2.4,0.9-2.5,2.3l-2.5,25.4c-0.1,1.4,0.8,2.6,2,2.8l11,1.1
						c-0.2,0-0.4,0.1-0.6,0.1L40.7,146c-1.2-0.1-2.2-1.4-2-2.8L41.2,117.9z"/>
					<path class="st22" d="M48.8,147.7c-0.4,4.2,2.3,7.9,6,8.3l17.6,1.7c3.7,0.4,10.1-2.5,10.5-6.7c0,0-1.3-17.3,0.3-33.6
						c1.1-11.8,3.1-21.8,3.1-21.8c0.4-4.2-3.2-8.7-6.9-9.1l-17.6-1.7c-3.8-0.4-7.1,2.8-7.5,7L48.8,147.7z"/>
					<g>
						<path class="st9" d="M59.8,123.6c-0.4,3.7,2.4,7.1,6.1,7.4c3.8,0.4,7.1-2.4,7.4-6.1c0.4-3.7-2.4-7.1-6.1-7.4
							C63.5,117.1,60.2,119.8,59.8,123.6z"/>
						<polygon class="st8" points="75.6,127.9 60.5,116.8 68.5,133.7 69.2,127.3 						"/>
					</g>
					
						<rect x="65" y="99.5" transform="matrix(9.607679e-02 -0.9954 0.9954 9.607679e-02 -45.082 165.1985)" class="st10" width="6.8" height="15.9"/>
					<path class="st10" d="M68.5,141.7c-0.2,1.9,1.2,3.5,3.1,3.7c1.9,0.2,3.5-1.2,3.7-3.1c0.2-1.9-1.2-3.5-3.1-3.7
						C70.4,138.4,68.7,139.8,68.5,141.7z"/>
					<path class="st10" d="M55,140.4c-0.2,1.9,1.2,3.5,3.1,3.7c1.9,0.2,3.5-1.2,3.7-3.1c0.2-1.9-1.2-3.5-3.1-3.7
						C56.8,137.1,55.1,138.5,55,140.4z"/>
					<path class="st7" d="M48.8,147.7l5.4-55.9c0.3-3.6,2.9-6.4,6-6.9c-1.2,1.2-2,2.9-2.2,4.8l-5.4,55.9c-0.4,4.2,2.3,7.9,6,8.3
						l17.6,1.7c1.2,0.1,2.8-0.1,4.3-0.6c-2.3,1.9-5.7,2.9-8.1,2.7L54.8,156C51.1,155.6,48.4,151.9,48.8,147.7z"/>
				</g>
				<path class="st10" d="M129.7,145.1c-0.2,1.9,1.2,3.5,3.1,3.7c1.9,0.2,3.5-1.2,3.7-3.1c0.2-1.9-1.2-3.5-3.1-3.7
					C131.6,141.8,129.9,143.2,129.7,145.1z"/>
				<path class="st1" d="M102.7,151.9c13.5,0,25.8-2.9,31-4.3c1.2-0.3,1.9-1.6,1.6-2.8c-0.3-1.2-1.6-1.9-2.8-1.6
					c-6.4,1.7-39.6,9.8-59.4-3.1c-1.1-0.7-2.5-0.4-3.1,0.7c-0.7,1.1-0.4,2.5,0.7,3.1C80,150,91.8,151.9,102.7,151.9z"/>
				<path class="st7" d="M70,140.8c0.2-0.3,0.5-0.6,0.9-0.7c-0.1,0.8,0.2,1.7,1,2.2c9.4,6.1,21.1,8,32,8c13.5,0,25.8-2.9,31-4.3
					c0.2,0,0.3-0.1,0.4-0.2c-0.1,0.9-0.7,1.7-1.7,1.9c-5.2,1.4-17.5,4.3-31,4.3c-10.9,0-22.7-1.9-32-8
					C69.6,143.2,69.3,141.8,70,140.8z"/>
				<path class="st5" d="M114.3,98.3c5.6,0,9.9-0.4,11.3-0.7c0.6-0.1,1-0.7,0.9-1.3c-0.1-0.6-0.7-1-1.3-0.9
					c-3.3,0.6-23.7,2.3-35.6-3.8c-0.6-0.3-1.2-0.1-1.5,0.5c-0.3,0.6-0.1,1.2,0.5,1.5C96,97.4,106.4,98.3,114.3,98.3z"/>
				<path class="st9" d="M125.3,105.4l0.5,6.8l8.9-0.6c-0.9-2.5-1.8-4.7-2.8-6.6L125.3,105.4z"/>
				<path class="st7" d="M121.6,171.9c0,0,0,0.1,0,0.1c-0.2,0.6,0.1,1.2,0.7,1.5c0.2,0,0.3,0.1,0.5,0.1c0.3,0,0.6-0.2,0.8-0.5
					c0.8,1.4,2.1,3,3,4.2c2,2.7,5.9,6.4,10,7.4c1.4-8.2,2.4-16.2,3-22.7c-0.1,0-0.2,0-0.3,0c-1.6-0.2-3.3-0.1-4.7,0.2
					c0-0.2,0.1-0.4,0-0.6c-0.2-0.6-0.8-1-1.4-0.8c-0.1,0-0.2,0.1-0.3,0.1c-6.4-9.5-17.8-21.7-15-43.3c0.9-7.2-5-14.9-12.2-15.8
					c-7.2-0.9-14,4.5-14.9,11.7C87.7,137.7,107,162.2,121.6,171.9z"/>
				<g>
					<path class="st4" d="M116.8,172.2c0.6,0.5,1.2,0.9,1.7,1.3c0,0,0.1,0,0.1,0c6.2,4.4,11.4,5.4,13,1.3c1.3-3.3,0.3-6.8-1.6-10.7
						c0,0,0,0,0,0c-0.1-0.2-0.2-0.3-0.3-0.5c-0.3-0.5-0.5-1-0.8-1.5c-2.9-5.2-7-11.2-9.7-18.7c-0.1-0.3-0.3-0.7-0.4-1
						c-0.1-0.5-0.3-0.9-0.4-1.4c-0.1-0.4-0.2-0.8-0.3-1.1c-0.1-0.4-0.2-0.8-0.3-1.2c-0.1-0.4-0.2-0.7-0.3-1.1
						c-1.3-5.7-1.6-12.3,0.1-19.9c1.5-7-3.8-15.2-10.8-16.7c-7.1-1.5-14.3,3.3-15.8,10.4C85.9,135.2,103.1,161.2,116.8,172.2z"/>
					<path class="st4" d="M124,165c1.6-0.7,3-1,4.3-1c1.7-0.7,4.3-0.8,6.9-0.2c3.9,0.8,6.7,3.1,6.3,5c-0.3,1.3-2.1,2.2-4.4,2.3
						c3.1,4.3,6.9,10.1,0.3,14.4c-6.3,4.1-13.2-3.2-16-7.5c-1-1.5-2.6-3.9-3.1-5.5C120.1,169.3,118.6,167.5,124,165z"/>
					<g>
						<path class="st6" d="M117.8,173.9c0.4,0,0.8-0.2,1-0.6c3.2-6.5,6.4-8.2,10.8-9c0.6-0.1,1-0.7,0.9-1.3c-0.1-0.6-0.7-1-1.3-0.9
							c-5.1,0.9-8.9,2.9-12.5,10.2c-0.3,0.6,0,1.2,0.5,1.5C117.5,173.9,117.6,173.9,117.8,173.9z"/>
					</g>
				</g>
				<g class="st21">
					<g>
						<path class="st10" d="M108.6,144.6c0.3-0.1,2.9-1.1,5.5-2.1c1.7-0.5,3.3-1.1,4.4-1.5c-0.1-0.4-0.2-0.8-0.3-1.1
							c-1,0.5-2.7,1.2-4.3,2C111.3,143.1,108.9,144.4,108.6,144.6z"/>
					</g>
					<g>
						<path class="st10" d="M110.4,139.4l7.5-0.7c-0.1-0.4-0.2-0.7-0.3-1.1L110.4,139.4z"/>
					</g>
					<g>
						<path class="st10" d="M114,146.7c0.3-0.2,1.8-1.2,3.3-2.1c0.7-0.4,1.4-0.8,1.9-1.2c-0.1-0.3-0.3-0.7-0.4-1
							c-0.5,0.5-1.2,1.1-1.9,1.7C115.5,145.1,114.3,146.4,114,146.7z"/>
					</g>
				</g>
				<path class="st7" d="M91,111.3c1.1-5.3,5.5-9.4,10.6-10.4c-2.6,1.9-4.6,4.7-5.3,8.1c-4.8,22.4,10.1,46.8,23.3,58.7
					c0.6,0.5,1.2,1,1.8,1.5c0.9,0.7,1.7,1.4,2.5,2c0.7,1.5,1.8,3.2,2.7,4.5c2.2,3.5,7.2,8.9,12.3,8.7c-0.4,0.4-0.9,0.8-1.5,1.2
					c-6.3,4.1-13.2-3.2-16.1-7.5c-0.8-1.2-1.9-3-2.6-4.4c-0.2,0.2-0.5,0.4-0.8,0.4c-0.2,0-0.3,0-0.5-0.1c-0.6-0.3-0.8-1-0.5-1.5
					c0,0,0-0.1,0.1-0.1C103.1,161.2,85.9,135.2,91,111.3z"/>
				
					<rect x="95.8" y="120.2" transform="matrix(0.9925 -0.1226 0.1226 0.9925 -14.482 13.6544)" class="st8" width="15.9" height="8.6"/>
			</g>
			<g>
				<path class="st24" d="M174.3,182.9c0,14.4,18.2,42,25,42c6.8,0,11.4-27.6,11.4-42c0-14.4-8.2-26.1-18.2-26.1
					c-4.1,0-7.9,2-10.9,5.2c-3.3,3.5-5.7,8.7-6.7,14.6C174.5,178.7,174.3,180.8,174.3,182.9z"/>
				<path class="st25" d="M174.3,182.9c0,14.4,4.5,42,11.4,42c6.8,0,25-27.6,25-42c0-14.4-8.2-26.1-18.2-26.1
					c-3.9,0-7.5,1.8-10.5,4.8c-3.4,3.4-5.9,8.5-7,14.4C174.5,178.2,174.3,180.5,174.3,182.9z"/>
				<path class="st24" d="M174.9,176c1.1-5.9,3.6-11,7-14.4c1.7-1.7,3.5-3,5.5-3.8c-0.4,0.4-0.8,0.7-1.2,1.1
					c-3.4,3.4-5.9,8.5-7,14.4c-0.4,2.2-0.6,4.5-0.6,6.9c0,14.4,4.5,42,11.4,42c0.2,0,0.4,0,0.6-0.1c-1.9,1.7-3.7,2.8-5,2.8
					c-6.8,0-11.4-27.6-11.4-42C174.3,180.5,174.5,178.2,174.9,176z"/>
				<path class="st24" d="M174.8,176.6c4.7,3.5,9.7,5.9,14.8,6.4c5,0.4,9.4-3.3,9.8-8.3c0.4-5-3.3-9.4-8.3-9.8
					c-3.3-0.3-6.5-1.4-9.5-2.9C178.3,165.6,175.8,170.7,174.8,176.6z"/>
				<g>
					<path class="st25" d="M160.6,155.6c0.4,4.4,1.8,7.8,3.1,7.7c1.2-0.1,1.9-3.8,1.5-8.1c-0.4-4.4-1.8-7.8-3.1-7.7
						C160.8,147.6,160.2,151.2,160.6,155.6z"/>
					<path class="st24" d="M162.1,147.4C162.1,147.4,162.1,147.4,162.1,147.4c-0.5,1.5-0.7,4-0.4,6.9c0.4,4.3,1.8,7.8,3,7.7
						c-0.3,0.8-0.6,1.2-1,1.3c-1.3,0.1-2.6-3.3-3.1-7.7C160.2,151.2,160.8,147.6,162.1,147.4z"/>
					<path class="st25" d="M191.9,165.9c-15.9,0.5-32.6-17.8-38.1-15.9c-6.8,2.4,18.3,34.8,38.7,34.1c5-0.2,8.9-4.4,8.8-9.4
						C201.2,169.6,196.9,165.7,191.9,165.9z"/>
					<path class="st24" d="M190.7,179.1c5-0.2,8.9-4.4,8.8-9.4c0-0.1,0-0.2,0-0.3c1.1,1.5,1.8,3.3,1.9,5.2c0.2,5-3.8,9.2-8.8,9.4
						c-17.8,0.6-39.1-23.9-39.8-31.8C158.4,162.5,175.8,179.6,190.7,179.1z"/>
				</g>
				<path class="st25" d="M186.3,110.2c-10.7,10.6-20.3,34.3-9.6,45c10.6,10.7,37.6,4.2,48.2-6.4c10.7-10.6,10.7-27.9,0-38.6
					C214.2,99.6,196.9,99.6,186.3,110.2z"/>
				<path class="st24" d="M221.4,144.9c9.6-9.6,10.5-24.6,2.8-35.3c0.2,0.2,0.5,0.4,0.7,0.6c10.7,10.6,10.7,27.9,0,38.6
					c-10.6,10.6-37.6,17.1-48.2,6.4c-0.9-0.8-1.5-1.8-2.1-2.8C185.9,161.4,211.1,155.1,221.4,144.9z"/>
				<path class="st10" d="M183.2,124.8c-6.2,6.2-4,18.5-4,18.5s12.3,2.2,18.5-4c6.2-6.2,4-18.5,4-18.5S189.4,118.6,183.2,124.8z"/>
				<path class="st26" d="M183,129.7c-1.9,1.9-1,5.8-1,5.8s3.9,0.9,5.8-1c1.9-1.9,1-5.8,1-5.8S184.9,127.8,183,129.7z"/>
				<g>
					<path class="st27" d="M218.2,119.3c-1.5,1.6-1.8,3.9-0.6,5c1.2,1.1,3.4,0.7,4.9-0.9c1.5-1.6,1.8-3.9,0.6-5
						C222,117.2,219.8,117.6,218.2,119.3z"/>
					<path class="st27" d="M188.2,171.2c-1.1,1.1-1.3,2.6-0.5,3.4c0.8,0.7,2.3,0.4,3.3-0.7c1.1-1.1,1.3-2.6,0.5-3.4
						C190.8,169.7,189.3,170.1,188.2,171.2z"/>
					<path class="st27" d="M213,116.1c-1.1,1.1-1.3,2.6-0.5,3.4c0.8,0.7,2.3,0.4,3.3-0.7c1.1-1.1,1.3-2.6,0.5-3.4
						C215.6,114.6,214.1,114.9,213,116.1z"/>
					<path class="st27" d="M219.3,113.9c-0.8,0.9-1,2-0.4,2.6c0.6,0.6,1.7,0.3,2.5-0.5c0.8-0.9,1-2,0.4-2.6
						C221.2,112.9,220.1,113.1,219.3,113.9z"/>
					<path class="st27" d="M193.2,169.7c-0.8,0.9-1,2-0.4,2.6c0.6,0.6,1.7,0.3,2.5-0.5c0.8-0.9,1-2,0.4-2.6
						C195.1,168.6,194,168.8,193.2,169.7z"/>
				</g>
				<path class="st12" d="M192.7,126.8c-4.1,1-7.6,3-10.2,5.6c0.4-3.2,3.4-6.3,7.6-7.4c3.1-0.8,6.1-0.3,8.3,1.1
					C196.6,126,194.6,126.3,192.7,126.8z"/>
			</g>
		</g>
	</g>
</g>
<g id="Ñëîé_6">
</g>
<g id="Ñëîé_7">
</g>
</svg>
