<?xml version="1.0" encoding="utf-8"?>
<!-- Generator: Adobe Illustrator 22.0.1, SVG Export Plug-In . SVG Version: 6.00 Build 0)  -->
<svg version="1.1" id="Layer_1" xmlns="http://www.w3.org/2000/svg" xmlns:xlink="http://www.w3.org/1999/xlink" x="0px" y="0px"
	 viewBox="0 0 1750 980" style="enable-background:new 0 0 1750 980;" xml:space="preserve">
<style type="text/css">
	.st0{fill-rule:evenodd;clip-rule:evenodd;fill:url(#SVGID_1_);}
	.st1{fill-rule:evenodd;clip-rule:evenodd;fill:#FFFFFF;}
	.st2{fill-rule:evenodd;clip-rule:evenodd;fill:#486C6C;}
	.st3{fill-rule:evenodd;clip-rule:evenodd;fill:#669999;}
	.st4{fill-rule:evenodd;clip-rule:evenodd;fill:#54A9A9;}
	.st5{fill-rule:evenodd;clip-rule:evenodd;fill:#99CCCC;}
	.st6{fill-rule:evenodd;clip-rule:evenodd;fill:#244848;}
	.st7{fill-rule:evenodd;clip-rule:evenodd;fill:#336666;}
	.st8{fill-rule:evenodd;clip-rule:evenodd;fill:#43614E;}
	.st9{fill-rule:evenodd;clip-rule:evenodd;fill:#6F9B7F;}
	.st10{fill-rule:evenodd;clip-rule:evenodd;fill:#253B2D;}
	.st11{fill-rule:evenodd;clip-rule:evenodd;fill:#548667;}
	.st12{fill-rule:evenodd;clip-rule:evenodd;fill:#FF6666;}
	.st13{fill-rule:evenodd;clip-rule:evenodd;fill:#DB4646;}
	.st14{fill-rule:evenodd;clip-rule:evenodd;fill:#A62A38;}
	.st15{fill-rule:evenodd;clip-rule:evenodd;fill:#BF3E35;}
	.st16{fill-rule:evenodd;clip-rule:evenodd;fill:#7A180D;}
	.st17{fill-rule:evenodd;clip-rule:evenodd;fill:#FF6198;}
	.st18{fill-rule:evenodd;clip-rule:evenodd;fill:#A13A67;}
	.st19{fill-rule:evenodd;clip-rule:evenodd;fill:#4A1330;}
	.st20{fill-rule:evenodd;clip-rule:evenodd;fill:#30071D;}
</style>
<linearGradient id="SVGID_1_" gradientUnits="userSpaceOnUse" x1="875" y1="980" x2="875" y2="-9.094947e-13">
	<stop  offset="0" style="stop-color:#9900CC"/>
	<stop  offset="1" style="stop-color:#021A40"/>
</linearGradient>
<rect class="st0" width="1750" height="980"/>
<g>
	<path class="st1" d="M1040.1,197.3c2.4,0,4.3,2,4.3,4.3s-1.9,4.3-4.3,4.3c-2.4,0-4.3-1.9-4.3-4.3S1037.8,197.3,1040.1,197.3
		L1040.1,197.3z"/>
	<path class="st1" d="M404.6,55.7c2.4,0,4.3,2,4.3,4.3c0,2.4-2,4.3-4.3,4.3s-4.3-1.9-4.3-4.3C400.3,57.6,402.2,55.7,404.6,55.7
		L404.6,55.7z"/>
	<path class="st1" d="M89.7,223.6c2.4,0,4.3,1.9,4.3,4.3c0,2.4-1.9,4.3-4.3,4.3c-2.4,0-4.3-1.9-4.3-4.3
		C85.4,225.5,87.3,223.6,89.7,223.6L89.7,223.6z"/>
	<path class="st1" d="M604.6,339.6c2.4,0,4.3,1.9,4.3,4.3c0,2.4-2,4.3-4.3,4.3c-2.4,0-4.3-1.9-4.3-4.3
		C600.3,341.6,602.2,339.6,604.6,339.6L604.6,339.6z"/>
	<path class="st1" d="M1261.5,117.4c2.4,0,4.3,1.9,4.3,4.3c0,2.4-1.9,4.3-4.3,4.3c-2.4,0-4.3-1.9-4.3-4.3
		C1257.2,119.3,1259.1,117.4,1261.5,117.4L1261.5,117.4z"/>
	<path class="st1" d="M1513.4,329.8c2.4,0,4.3,1.9,4.3,4.3c0,2.4-1.9,4.3-4.3,4.3c-2.4,0-4.3-1.9-4.3-4.3
		C1509,331.7,1511,329.8,1513.4,329.8L1513.4,329.8z"/>
	<path class="st1" d="M657.1,383.4c1.2,0,2.2,1,2.2,2.2s-0.9,2.2-2.2,2.2c-1.2,0-2.1-1-2.1-2.2S655.9,383.4,657.1,383.4L657.1,383.4
		z"/>
	<path class="st1" d="M771.3,232.5c1.2,0,2.1,0.9,2.1,2.1c0,1.2-0.9,2.2-2.1,2.2c-1.2,0-2.2-0.9-2.2-2.2
		C769.1,233.4,770.1,232.5,771.3,232.5L771.3,232.5z"/>
	<path class="st1" d="M602.1,139.9c1.2,0,2.1,1,2.1,2.2c0,1.2-0.9,2.1-2.1,2.1s-2.2-0.9-2.2-2.1C600,140.8,601,139.9,602.1,139.9
		L602.1,139.9z"/>
	<path class="st1" d="M503.3,272c1.2,0,2.2,0.9,2.2,2.1s-1,2.2-2.2,2.2s-2.1-1-2.1-2.2S502.1,272,503.3,272L503.3,272z"/>
	<path class="st1" d="M271.2,101.6c1.2,0,2.2,1,2.2,2.2c0,1.2-1,2.2-2.2,2.2s-2.2-1-2.2-2.2C269,102.6,270,101.6,271.2,101.6
		L271.2,101.6z"/>
	<path class="st1" d="M74.9,49.7c1.2,0,2.2,0.9,2.2,2.1c0,1.2-1,2.2-2.2,2.2c-1.2,0-2.2-1-2.2-2.2C72.7,50.7,73.7,49.7,74.9,49.7
		L74.9,49.7z"/>
	<path class="st1" d="M213.2,260.9c1.2,0,2.2,1,2.2,2.2s-1,2.2-2.2,2.2s-2.2-1-2.2-2.2S212,260.9,213.2,260.9L213.2,260.9z"/>
	<path class="st1" d="M45.3,358.4c1.2,0,2.2,1,2.2,2.2s-1,2.2-2.2,2.2c-1.2,0-2.1-1-2.1-2.2S44.1,358.4,45.3,358.4L45.3,358.4z"/>
	<path class="st1" d="M143.7,437.1c1.2,0,2.1,1,2.1,2.2s-0.9,2.1-2.1,2.1s-2.2-0.9-2.2-2.1S142.6,437.1,143.7,437.1L143.7,437.1z"/>
	<path class="st1" d="M654.9,58.1c1.2,0,2.1,0.9,2.1,2.1c0,1.2-0.9,2.2-2.1,2.2s-2.2-0.9-2.2-2.2C652.8,59,653.7,58.1,654.9,58.1
		L654.9,58.1z"/>
	<path class="st1" d="M951.2,387.7c1.2,0,2.2,1,2.2,2.2s-1,2.1-2.2,2.1s-2.1-0.9-2.1-2.1S950,387.7,951.2,387.7L951.2,387.7z"/>
	<path class="st1" d="M753.7,485.3c1.2,0,2.2,0.9,2.2,2.2c0,1.2-1,2.1-2.2,2.1s-2.2-0.9-2.2-2.1
		C751.5,486.2,752.5,485.3,753.7,485.3L753.7,485.3z"/>
	<path class="st1" d="M1172.3,439.6c1.2,0,2.2,0.9,2.2,2.1c0,1.2-1,2.2-2.2,2.2s-2.2-1-2.2-2.2
		C1170.1,440.5,1171.1,439.6,1172.3,439.6L1172.3,439.6z"/>
	<path class="st1" d="M1305.6,300.7c1.2,0,2.2,0.9,2.2,2.2c0,1.2-1,2.1-2.2,2.1c-1.2,0-2.2-0.9-2.2-2.1
		C1303.4,301.6,1304.4,300.7,1305.6,300.7L1305.6,300.7z"/>
	<path class="st1" d="M1666.1,443.9c1.2,0,2.2,1,2.2,2.2s-1,2.2-2.2,2.2c-1.2,0-2.2-1-2.2-2.2S1664.9,443.9,1666.1,443.9
		L1666.1,443.9z"/>
	<path class="st1" d="M1682,306.3c0.7,0,1.3,0.6,1.3,1.3c0,0.7-0.6,1.3-1.3,1.3c-0.7,0-1.3-0.6-1.3-1.3
		C1680.7,306.8,1681.3,306.3,1682,306.3L1682,306.3z"/>
	<path class="st1" d="M1695.8,114.7c0.7,0,1.3,0.6,1.3,1.3c0,0.7-0.6,1.3-1.3,1.3c-0.7,0-1.3-0.6-1.3-1.3
		C1694.5,115.3,1695.1,114.7,1695.8,114.7L1695.8,114.7z"/>
	<path class="st1" d="M1604.5,50.5c0.7,0,1.3,0.6,1.3,1.3c0,0.7-0.6,1.3-1.3,1.3c-0.7,0-1.3-0.6-1.3-1.3
		C1603.1,51,1603.7,50.5,1604.5,50.5L1604.5,50.5z"/>
	<path class="st1" d="M1324.2,152.9c0.7,0,1.3,0.6,1.3,1.3s-0.6,1.3-1.3,1.3c-0.7,0-1.3-0.6-1.3-1.3S1323.5,152.9,1324.2,152.9
		L1324.2,152.9z"/>
	<path class="st1" d="M1139,62.8c0.7,0,1.3,0.6,1.3,1.3c0,0.7-0.6,1.3-1.3,1.3c-0.7,0-1.3-0.6-1.3-1.3
		C1137.6,63.4,1138.2,62.8,1139,62.8L1139,62.8z"/>
	<path class="st1" d="M1098.2,198.6c0.7,0,1.3,0.6,1.3,1.3c0,0.7-0.6,1.3-1.3,1.3c-0.7,0-1.3-0.6-1.3-1.3
		C1096.9,199.2,1097.5,198.6,1098.2,198.6L1098.2,198.6z"/>
	<path class="st1" d="M1183.4,325.8c0.7,0,1.3,0.6,1.3,1.3c0,0.7-0.6,1.3-1.3,1.3c-0.7,0-1.3-0.6-1.3-1.3
		C1182.1,326.4,1182.7,325.8,1183.4,325.8L1183.4,325.8z"/>
	<path class="st1" d="M1083.4,443.1c0.7,0,1.3,0.6,1.3,1.3c0,0.7-0.6,1.3-1.3,1.3c-0.7,0-1.3-0.6-1.3-1.3
		C1082.1,443.7,1082.7,443.1,1083.4,443.1L1083.4,443.1z"/>
	<path class="st1" d="M1208,570.2c0.7,0,1.3,0.6,1.3,1.3c0,0.7-0.6,1.3-1.3,1.3c-0.7,0-1.3-0.6-1.3-1.3
		C1206.7,570.8,1207.3,570.2,1208,570.2L1208,570.2z"/>
	<path class="st1" d="M1373.6,439.3c0.7,0,1.3,0.6,1.3,1.3c0,0.7-0.6,1.3-1.3,1.3c-0.7,0-1.3-0.6-1.3-1.3
		C1372.3,439.9,1372.9,439.3,1373.6,439.3L1373.6,439.3z"/>
	<path class="st1" d="M950,271.5c0.7,0,1.3,0.6,1.3,1.3c0,0.7-0.6,1.3-1.3,1.3c-0.7,0-1.3-0.6-1.3-1.3
		C948.7,272.1,949.3,271.5,950,271.5L950,271.5z"/>
	<path class="st1" d="M759.9,404.8c0.7,0,1.3,0.6,1.3,1.3c0,0.7-0.6,1.3-1.3,1.3c-0.7,0-1.3-0.6-1.3-1.3
		C758.6,405.4,759.2,404.8,759.9,404.8L759.9,404.8z"/>
	<path class="st1" d="M530.3,449.3c0.7,0,1.3,0.6,1.3,1.3c0,0.7-0.6,1.3-1.3,1.3c-0.7,0-1.3-0.6-1.3-1.3
		C528.9,449.9,529.5,449.3,530.3,449.3L530.3,449.3z"/>
	<path class="st1" d="M527.8,355.4c0.7,0,1.3,0.6,1.3,1.3c0,0.7-0.6,1.3-1.3,1.3c-0.7,0-1.3-0.6-1.3-1.3
		C526.5,356,527.1,355.4,527.8,355.4L527.8,355.4z"/>
	<path class="st1" d="M638.9,222.1c0.7,0,1.3,0.6,1.3,1.3c0,0.7-0.6,1.3-1.3,1.3c-0.7,0-1.3-0.6-1.3-1.3
		C637.6,222.7,638.2,222.1,638.9,222.1L638.9,222.1z"/>
	<path class="st1" d="M431.5,160.3c0.7,0,1.3,0.6,1.3,1.3c0,0.7-0.6,1.3-1.3,1.3c-0.7,0-1.3-0.6-1.3-1.3
		C430.1,160.9,430.7,160.3,431.5,160.3L431.5,160.3z"/>
	<path class="st1" d="M169.7,133.2c0.7,0,1.3,0.6,1.3,1.3c0,0.7-0.6,1.3-1.3,1.3c-0.7,0-1.3-0.6-1.3-1.3
		C168.4,133.8,169,133.2,169.7,133.2L169.7,133.2z"/>
	<path class="st1" d="M36.4,185c0.7,0,1.3,0.6,1.3,1.3c0,0.7-0.6,1.3-1.3,1.3c-0.7,0-1.3-0.6-1.3-1.3C35,185.6,35.6,185,36.4,185
		L36.4,185z"/>
	<path class="st1" d="M206.7,404.8c0.7,0,1.3,0.6,1.3,1.3c0,0.7-0.6,1.3-1.3,1.3s-1.3-0.6-1.3-1.3
		C205.4,405.4,206,404.8,206.7,404.8L206.7,404.8z"/>
	<path class="st1" d="M108,523.4c0.7,0,1.3,0.6,1.3,1.3c0,0.7-0.6,1.3-1.3,1.3c-0.7,0-1.3-0.6-1.3-1.3
		C106.6,524,107.2,523.4,108,523.4L108,523.4z"/>
	<path class="st1" d="M199.3,56.6c0.7,0,1.3,0.6,1.3,1.3c0,0.7-0.6,1.3-1.3,1.3c-0.7,0-1.3-0.6-1.3-1.3
		C198,57.2,198.6,56.6,199.3,56.6L199.3,56.6z"/>
	<path class="st1" d="M821.6,76.4c0.7,0,1.3,0.6,1.3,1.3c0,0.7-0.6,1.3-1.3,1.3c-0.7,0-1.3-0.6-1.3-1.3
		C820.3,77,820.9,76.4,821.6,76.4L821.6,76.4z"/>
	<path class="st1" d="M967.3,39.3c0.7,0,1.3,0.6,1.3,1.3c0,0.7-0.6,1.3-1.3,1.3c-0.7,0-1.3-0.6-1.3-1.3
		C966,39.9,966.6,39.3,967.3,39.3L967.3,39.3z"/>
	<path class="st1" d="M1483.4,239.4c0.7,0,1.3,0.6,1.3,1.3c0,0.7-0.6,1.3-1.3,1.3c-0.7,0-1.3-0.6-1.3-1.3
		C1482.1,240,1482.7,239.4,1483.4,239.4L1483.4,239.4z"/>
	<path class="st1" d="M1421.7,69c0.7,0,1.3,0.6,1.3,1.3s-0.6,1.3-1.3,1.3c-0.7,0-1.3-0.6-1.3-1.3S1421,69,1421.7,69L1421.7,69z"/>
</g>
<g>
	<path class="st2" d="M907.3,69.9c24.9,0,45,20.2,45,45.1c0,24.9-20.2,45-45,45s-45.1-20.2-45.1-45C862.2,90,882.4,69.9,907.3,69.9
		L907.3,69.9z"/>
	<path class="st3" d="M907.3,69.9c24.9,0,45,20.2,45,45.1c0,9-2.7,17.4-7.2,24.5c-6.5,3.6-13.9,5.6-21.8,5.6c-24.9,0-45-20.2-45-45
		c0-9,2.7-17.4,7.2-24.5C891.9,71.9,899.4,69.9,907.3,69.9L907.3,69.9z"/>
	<path class="st4" d="M907.3,69.9c13.4,0,25.5,5.9,33.8,15.2c-20.4-0.9-40.8-2.9-61.1-6C887.5,73.3,897,69.9,907.3,69.9L907.3,69.9z
		 M952.1,110.4c0.1,1.5,0.2,3,0.2,4.6c0,5.4-0.9,10.6-2.7,15.4c-28.6-0.2-57.5-2.7-86.7-7.5c-0.5-2.6-0.7-5.2-0.7-7.8
		c0-10.8,3.8-20.7,10.1-28.5C897.9,97.4,924.6,105.1,952.1,110.4L952.1,110.4z M933,151.9c-7.3,5.1-16.2,8.1-25.8,8.1
		c-18.3,0-34.1-10.9-41.2-26.6C888.1,141.1,910.4,147.2,933,151.9L933,151.9z"/>
	<path class="st5" d="M907.3,69.9c13.4,0,25.5,5.9,33.8,15.2c-19.3-0.8-38.6-2.7-58-5.5c0.7-1.4,1.5-2.8,2.4-4.1
		C891.9,71.9,899.4,69.9,907.3,69.9L907.3,69.9z M886.7,126.2c-5.3-7.4-8.4-16.4-8.4-26.3c0-3.6,0.4-7.2,1.2-10.5
		c23.4,9.4,47.7,16.2,72.6,21c0.1,1.5,0.2,3,0.2,4.6c0,5.4-0.9,10.6-2.7,15.4C928.8,130.1,907.8,128.8,886.7,126.2L886.7,126.2z"/>
	<path class="st6" d="M942.9,87.4c1.8,2.3,3.4,4.9,4.8,7.6c-26,1.2-52-0.5-78-4.9c4.5-6.8,10.8-12.3,18.3-15.9
		C906.3,80.6,924.6,84.7,942.9,87.4L942.9,87.4z M952.3,115.3c0,2.6-0.2,5-0.7,7.5c-29.3,2.2-59,0.9-89.3-4.4
		c-0.1-1.1-0.1-2.3-0.1-3.4c0-7.6,1.9-14.8,5.2-21.1C894.1,106,922.6,112.4,952.3,115.3L952.3,115.3z M942.8,142.6
		c-1.7,2.2-3.6,4.3-5.7,6.1c-20.3,0.9-40.6,0.5-60.9-1.2c-6.5-6.3-11.2-14.5-13.1-23.7C888.9,133.5,915.5,139.6,942.8,142.6
		L942.8,142.6z M918.6,158.6c-3.6,0.9-7.5,1.4-11.4,1.4c-8.2,0-15.8-2.2-22.4-5.9C896,156.1,907.3,157.7,918.6,158.6L918.6,158.6z"
		/>
	<path class="st7" d="M942.9,87.4c1.8,2.3,3.4,4.9,4.8,7.6c-22.9,1.1-45.8-0.1-68.7-3.4c1.1-5.8,3.3-11.3,6.4-16.1
		c0.8-0.5,1.6-0.9,2.5-1.3C906.3,80.6,924.6,84.7,942.9,87.4L942.9,87.4z M939,142.2c-4.9,1.8-10.2,2.8-15.7,2.8
		c-11.6,0-22.2-4.4-30.2-11.6C908.2,137.4,923.5,140.3,939,142.2L939,142.2z M883.7,121.5c-3.5-6.4-5.5-13.7-5.5-21.5
		c0-0.5,0-1,0-1.5c23.5,9.2,48.4,14.3,74.1,16.9c0,2.6-0.2,5-0.7,7.5C929.3,124.5,906.7,124.1,883.7,121.5L883.7,121.5z"/>
</g>
<g>
	<path class="st8" d="M1543.6,126c15,0,27.1,12.1,27.1,27.1c0,15-12.1,27.1-27.1,27.1c-15,0-27.1-12.1-27.1-27.1
		C1516.6,138.2,1528.7,126,1543.6,126L1543.6,126z"/>
	<path class="st9" d="M1543.6,126c15,0,27.1,12.1,27.1,27.1c0,4.2-0.9,8.2-2.7,11.8c-4,2.4-8.8,3.8-13.8,3.8
		c-15,0-27.1-12.1-27.1-27.1c0-4.2,0.9-8.2,2.7-11.8C1533.9,127.4,1538.6,126,1543.6,126L1543.6,126z"/>
	<path class="st10" d="M1555.7,162.6c2.7,0,4.9,2.2,4.9,4.9c0,2.7-2.2,4.9-4.9,4.9c-2.7,0-4.9-2.2-4.9-4.9
		C1550.8,164.8,1553,162.6,1555.7,162.6L1555.7,162.6z M1533.3,132.6c0.4,0,0.7,0.3,0.7,0.7c0,0.4-0.3,0.7-0.7,0.7
		c-0.4,0-0.7-0.3-0.7-0.7C1532.5,133,1532.9,132.6,1533.3,132.6L1533.3,132.6z M1553.9,132.4c0.4,0,0.7,0.3,0.7,0.7
		c0,0.4-0.3,0.7-0.7,0.7c-0.4,0-0.7-0.3-0.7-0.7C1553.2,132.7,1553.5,132.4,1553.9,132.4L1553.9,132.4z M1563.8,149.8
		c0.4,0,0.7,0.3,0.7,0.7c0,0.4-0.3,0.7-0.7,0.7c-0.4,0-0.7-0.3-0.7-0.7C1563.1,150.1,1563.4,149.8,1563.8,149.8L1563.8,149.8z
		 M1542.7,170.6c0.4,0,0.7,0.3,0.7,0.7c0,0.4-0.3,0.7-0.7,0.7c-0.4,0-0.7-0.3-0.7-0.7C1542,170.9,1542.3,170.6,1542.7,170.6
		L1542.7,170.6z M1541.4,164.1c0.4,0,0.7,0.3,0.7,0.7c0,0.4-0.3,0.7-0.7,0.7s-0.7-0.3-0.7-0.7
		C1540.7,164.5,1541.1,164.1,1541.4,164.1L1541.4,164.1z M1528.6,160.2c1.3,0,2.4,1.1,2.4,2.4c0,1.3-1.1,2.4-2.4,2.4
		c-1.3,0-2.4-1.1-2.4-2.4C1526.2,161.3,1527.3,160.2,1528.6,160.2L1528.6,160.2z M1534.9,151.3c2.7,0,4.9,2.2,4.9,4.9
		c0,2.7-2.2,4.9-4.9,4.9s-4.9-2.2-4.9-4.9C1530,153.5,1532.1,151.3,1534.9,151.3L1534.9,151.3z M1540,146.4c0.4,0,0.7,0.3,0.7,0.7
		c0,0.4-0.3,0.7-0.7,0.7c-0.4,0-0.7-0.3-0.7-0.7C1539.3,146.7,1539.6,146.4,1540,146.4L1540,146.4z M1526.6,148.9
		c1.3,0,2.4,1.1,2.4,2.4c0,1.3-1,2.4-2.4,2.4c-1.3,0-2.4-1-2.4-2.4C1524.2,150,1525.3,148.9,1526.6,148.9L1526.6,148.9z
		 M1521.8,156.7c0.4,0,0.7,0.3,0.7,0.7c0,0.4-0.3,0.7-0.7,0.7c-0.4,0-0.7-0.3-0.7-0.7C1521.1,157,1521.5,156.7,1521.8,156.7
		L1521.8,156.7z M1534.2,166c0.4,0,0.7,0.3,0.7,0.7c0,0.4-0.3,0.7-0.7,0.7c-0.4,0-0.7-0.3-0.7-0.7
		C1533.5,166.3,1533.8,166,1534.2,166L1534.2,166z M1538.3,172.3c1.3,0,2.4,1.1,2.4,2.4c0,1.3-1,2.4-2.4,2.4c-1.3,0-2.4-1.1-2.4-2.4
		C1535.9,173.4,1537,172.3,1538.3,172.3L1538.3,172.3z M1528.6,167.6c1.3,0,2.4,1.1,2.4,2.4c0,1.3-1,2.4-2.4,2.4
		c-1.3,0-2.4-1.1-2.4-2.4C1526.2,168.7,1527.3,167.6,1528.6,167.6L1528.6,167.6z"/>
	<path class="st11" d="M1555.7,162.6c2.7,0,4.9,2.2,4.9,4.9c0,0.1,0,0.3,0,0.5c-2,0.5-4.1,0.7-6.3,0.7c-1.2,0-2.3-0.1-3.4-0.2
		c-0.1-0.3-0.1-0.7-0.1-1C1550.8,164.8,1553,162.6,1555.7,162.6L1555.7,162.6z M1541.6,165.6c-0.3-0.1-0.6-0.3-0.8-0.5
		c0-0.1,0-0.2,0-0.2c0-0.4,0.3-0.7,0.7-0.7s0.7,0.3,0.7,0.7C1542.1,165.2,1541.9,165.5,1541.6,165.6L1541.6,165.6z M1535.5,161.1
		c-2-2-3.8-4.3-5.1-6.8c0.8-1.8,2.5-2.9,4.5-2.9c2.7,0,4.9,2.2,4.9,4.9C1539.8,158.7,1537.9,160.8,1535.5,161.1L1535.5,161.1z
		 M1528.9,151.2c-0.2-0.5-0.3-0.9-0.5-1.3C1528.8,150.2,1528.9,150.7,1528.9,151.2L1528.9,151.2z M1533.3,132.6
		c0.4,0,0.7,0.3,0.7,0.7c0,0.4-0.3,0.7-0.7,0.7c-0.4,0-0.7-0.3-0.7-0.7C1532.5,133,1532.9,132.6,1533.3,132.6L1533.3,132.6z
		 M1553.9,132.4c0.4,0,0.7,0.3,0.7,0.7c0,0.4-0.3,0.7-0.7,0.7c-0.4,0-0.7-0.3-0.7-0.7C1553.2,132.7,1553.5,132.4,1553.9,132.4
		L1553.9,132.4z M1563.8,149.8c0.4,0,0.7,0.3,0.7,0.7c0,0.4-0.3,0.7-0.7,0.7c-0.4,0-0.7-0.3-0.7-0.7
		C1563.1,150.1,1563.4,149.8,1563.8,149.8L1563.8,149.8z M1540,146.4c0.4,0,0.7,0.3,0.7,0.7c0,0.4-0.3,0.7-0.7,0.7
		c-0.4,0-0.7-0.3-0.7-0.7C1539.3,146.7,1539.6,146.4,1540,146.4L1540,146.4z"/>
</g>
<g>
	<path class="st12" d="M1750,755.8V980H0V755.8c246.3-27.5,548.4-43.7,875-43.7S1503.7,728.3,1750,755.8L1750,755.8z"/>
	<path class="st13" d="M674.6,980H577l-33.1-9.2l-55.8,9.2H0V755.8c246.3-27.5,548.4-43.7,875-43.7c69.5,0,148.1,5.2,187.8,15.3
		l-353.7,8l207.5,10.2l-143.3,5.9l-177.7,12.6l-269.1,8.6l-76.6,17.3l50.6,11.1l24.7,18.5l180.3,21l65.4-9.9l63,11.1l139.5,8.6
		l-164.2,11.1l-76.5,24.7H384.5L199.3,921l84,14.8l28.4,21l248.2-3.7L674.6,980z M663.2,882.6l-26.6-5l-41.4,3.7l32.1,3.7
		L663.2,882.6z M702.1,883.8l29.6-5.6l24.7,4.3l-41.4,3.7L702.1,883.8z M791,855.4l57.4,4.3l40.1-5.6l56.8,7.4l95.7-6.2l-65.5-3.7
		l-40.1,4.9L875,846.1l-41.4,6.9L791,855.4z M1619.5,847.6l-18.9-5.3l-32.8,5.4l21.1,4.2L1619.5,847.6z M1509.6,786.3l-14.9-1.5
		l-25.9,1.5l16.7,1.1L1509.6,786.3z M1677.4,790.3l-5.1-1.4l-9,1.5l5.8,1.2L1677.4,790.3z M1546.4,872.3l-36.4-10.2l-63.3,10.5
		l40.7,8L1546.4,872.3z M248.3,825.8l-36.4-10.2l-63.3,10.5l40.7,8L248.3,825.8z M707.7,931.2l82.7-11.1l149.4,13.6l-127.2,17.3
		L707.7,931.2z M448.4,910.3l24.7-2.4l17.3,3.1h-23.5L448.4,910.3z M942.9,980l125.3-32l71.6,18.6l15.4,8l64.2,5.5H942.9z
		 M318.1,931.3l35.2,8.6l16.1-1.9l-29.6-6.2L318.1,931.3z M346.5,805.7l43.8,8l38.6-4.9l-18.2-6.8L346.5,805.7z M691.9,793.7
		l24.4-3.1l18.8,5l-29.3,0.9L691.9,793.7z M1151.7,743.6l-9.9-0.6l-9.1,1.1l12.8,0.3L1151.7,743.6z M1088.3,727.8l12.2-0.9l6.5,1.4
		L1088.3,727.8z M968.2,746.6l37.1-1.3l19.1,1.3l-29,4.9L968.2,746.6z M613.2,781.1h27.2l20.4,8.6l22.2,3.1l-31.5,0.6h-1.8
		l-17.3-9.2L613.2,781.1z M1350.3,812l-30.3-6.2l-24.1,6.8l-27.2,1.2l43.9,5.6L1350.3,812z M1131.2,846l-42-3.7l30.9-1.3L1131.2,846
		z M1212.1,854.6l-35.8,8.6l53.7,5l46.3-9.9L1212.1,854.6z M1112.5,770.1l229.8,17.8l46.9,16l261.8,22.2l-60.5,2.5l-76.5,17.3
		L1367,859.6l-108.6,45.7l-158.1,22.2h138.3l101.3,17.3l127.2-34.6l209.9-11.1l-79,23.5l-42,30.9L1401.6,980H1750V755.8
		L1112.5,770.1z"/>
	<path class="st14" d="M321.8,754L84.7,770l109.9,17.3l23.5,8.6l-70.4,9.9L77.3,812l59.3,21l-108.7,3.1l167.9,22.9l71.6-22.2
		l100,14.8l63,3.7L281,879.9l-81.5-7.4L69.9,891H0V740.4L321.8,754z M1689.9,980l-36.4-14.7l-56.8,5.6l-33.4-6.2L1501,980H1689.9z
		 M1750,919l-67.5,15.4l67.5,10.5V919z M1750,817.7l-42.8,3.1l-26.5,9.9l-30.9,10.5l-6.8,9.2l-79,19.8l92,2.5l42,17.3l31.5-11.1
		l20.6,4.9V817.7z M1397.2,771.5l40.7,9.2l100.7-4.9l71.6,16.7h-74.1l125.3,14.8l28.4-6.2l-71.6-12.4l73.5-7.4l58.3,8.6v-42.6
		L1397.2,771.5z M1740.8,972.1l-12.6-4l-19.8,2.1l16.7,4.3L1740.8,972.1z M1676.3,955.4l-46.6-7.4l-21.3,8L1676.3,955.4z
		 M144.6,793.9l-12.7-4l-19.7,2.1l16.7,4.3L144.6,793.9z M80.1,777.3l-46.6-7.4l-21.3,8L80.1,777.3z M1415.6,903.6l-5.2-1.4l-9,1.5
		l5.8,1.2L1415.6,903.6z M1395.3,890.4l-18.9-5.3l-32.8,5.5l21.1,4.1L1395.3,890.4z M1345.4,914.1l-14.9-1.4l-25.9,1.5l16.7,1.2
		L1345.4,914.1z M502.1,861.9l32.7,4l25-1.5l-11.7-4.9L502.1,861.9z M51.1,906.9l-17-4.9L19,902.3l15.8,5.9L51.1,906.9z M87.2,912.5
		l30.6,4.3l30.9-3.7l39.5,8.6l-39.8-13.3l-27.8,3.4l-11.1-4.3L87.2,912.5z M208.8,777.6l27.2,7.1l25.6-8.6l-19.1-2.8L208.8,777.6z
		 M174.9,769l10.5,1.9l-21.3-0.9L174.9,769z M0,921.3l110.7,37l97.5-6.8L281,980H0V921.3z"/>
</g>
<g>
	<polygon class="st12" points="1062.8,727.4 468.3,725 497.4,660.8 560.3,645.3 591.8,578.7 616.5,576.8 640.6,531.8 656.6,526.8 
		661.6,501.5 732.6,507 761,607.1 802.9,612.6 806,652.8 828.3,655.2 836.9,553.3 849.2,550.9 861,434.2 896.2,442.9 906,624.4 
		922.1,634.8 922.7,685.5 959.8,686.1 961,589.8 987.5,599.7 991.2,527.4 1012.2,531.8 1030.2,656.5 1047.4,657.1 1049.9,710.2 
		1058.5,712.6 	"/>
	<polygon class="st15" points="468.3,725 501.7,671.9 522.7,670.6 523.3,687.9 537.5,661.4 560.3,653.4 549.2,683.6 579.5,637.3 
		595.5,590.4 609.7,589.8 603.5,639.2 639.3,545.9 654.2,541 660.3,579.3 668.4,525 669,522.5 688.7,515.1 709.7,526.8 728.9,523.1 
		737.5,629.3 741.2,575.6 756,616.3 765.9,685.5 767.8,623.1 793.7,623.1 805.4,696 809.1,665.1 830.1,665.7 835.7,712.2 
		846.2,574.9 856,566.9 867.2,604 871.5,463.8 891.2,463.8 901.1,658.9 904.8,642.3 913.5,648.4 918.4,715.7 922.7,699.1 
		960.4,693.5 972.7,712.6 969.6,607.7 985.7,612 986.3,663.3 998.7,570.6 1006.1,571.9 1027,697.2 1027,671.9 1036.9,671.3 
		1038.8,710.2 1050.5,718.2 1062.8,727.4 	"/>
	<polygon class="st16" points="468.3,725 494.9,700.9 512.2,695.3 514.1,718.9 522.7,696 554.8,668.5 549.2,683.6 533.2,700.3 
		553.5,691 576.4,659.5 582.5,658.9 582.5,681.1 569.6,707.1 583.2,693.5 593,660.2 591.2,626.2 606.6,614.5 603.5,639.2 604,664.6 
		623.9,691.6 612.8,662.6 616.5,639.2 637.5,629.9 625.1,630.5 632.6,605.2 632.6,592.2 645.5,579.9 661.6,591 672.1,658.3 
		673.3,631.8 682.6,626.8 689.4,579.9 701.1,575.6 717.2,558.9 723.9,568.2 735.5,604.5 737.5,629.3 747.4,648.4 743,615.7 
		757.9,629.5 765.9,685.5 749.2,684.2 723.3,649.7 740.6,693.5 769.6,700.3 785.7,716.3 773.3,692.3 777,660.2 798.9,655.7 
		805.4,696 799.9,712.4 819.6,687.3 832.9,689 835.7,712.2 847.4,721.9 853,650.3 869,616.9 888.2,680.5 878,567.5 882.6,522.5 
		894.8,534.7 901.1,658.9 894.3,699.1 904.2,670 915.9,682.1 918.4,715.7 930.8,707.1 969.6,712.6 979.9,721.8 978.3,681.1 
		989.4,679.9 1004.2,713 1022.1,719.4 1005.4,700.9 993.1,658.3 1003,630.5 1017.8,641.9 1027,697.2 1043.1,727.4 	"/>
</g>
<g>
	<g>
		<path class="st17" d="M0,626.8l58.4-28.4l96.3-2.5l33.3-51.9l42-13.6l24.7-145.7l25.9-4.9l7.4-79l32.1-14.8l3.7-79
			c7.3-1.9,6.1-1.3,13.6-1.3l49.4,4.9L398,324.3l27.2,6.2l19.8,121h34.6l22.2,119.8l76.5,33.3l14.8,55.6l107.4,43.2l8.6,32.1
			l64.2,16L0,755.8V626.8z"/>
		<path class="st18" d="M0,661.1l49.8-41.4l-9.9,57.4L9.7,719.7L74.5,671l-19.8-14.2l56.2-37.7l35.8-5L124.5,650l30.9-21.6l21-38.9
			l33.4-26.6l17.3-9.9l-7.4,62.4l-25.9,17.9l-12.9,29l-1.9,1.3l-38.9,14.2c-2.8,1.9-2.7,1.2-5.5,3.1L107.8,721l32.7-35.2l89.5-13
			l-18.5-13l4.3-26.6l38.3-24.1l9.2-65.4l23.5-13l25.9,76l31.5,26.5l15.4,43.9l-8.1-63l-1.8-0.6L319,582l-12.4-94.5l-25.3-40.1
			l-6.2-48.2l9.9-6.2l21.6,56.8v-6.2l-6.2-55.5l6.2-68.5l16-11.1L330,361l14.2-121.6l29.6,25.3l20.4,124.1l-21,34l-16.7,114.8
			l18.5-85.8l40.1-3.7l25.9,42l15.4,84.6l-3.7-104.3l16.7,8l24,121.6l-35.2,50l-9.3,64.9l15.4-50.6l45.7-33.3l3.7-24.7l51.8,12.4
			l17.3,75l27.2,32.1l-15.4-52.2l97.5,34.6l9.3,30.2l28.4,13.5L0,755.8V661.1z"/>
		<polygon class="st19" points="0,695 21.4,669.7 42,664.7 39.9,677.1 9.7,719.7 16.5,741.3 17,721.6 86.8,688.2 93,656.8 
			131.2,639.1 124.5,650 115.2,682.7 137.4,648.7 164.6,648.1 180.7,618.5 220.7,606 219.6,615.4 193.6,633.3 180.7,662.3 
			134.4,680.8 107.8,721 65.8,740.1 133.1,722.2 149.2,697.5 206.6,682.7 220.1,701.8 249.8,713 272.6,745 254.1,700 238.7,690.7 
			230.1,672.8 220.8,666.3 225.7,641.9 255.4,623.4 261.5,664.8 272,609.2 267.7,581.5 299.8,568.8 312.8,606.8 344.3,633.3 
			359.7,677.1 341.3,727.3 362.1,684.5 383.1,669.7 374.5,631.4 359.7,612.3 353.5,579.6 334.4,559.8 322,501.8 299.8,458 
			317.1,467.8 319.5,383.9 329.3,355.8 329.4,367.2 326.3,406.1 346.1,365.4 345.5,309.2 365.3,309.8 383.8,405.8 373.3,422.8 
			356.6,537.6 372.6,489.4 412.2,488.2 436.9,532 447.4,587.6 406,653.7 432.5,642.6 438.1,725.3 449.2,714.8 464.6,664.2 
			491.8,644.3 522.1,664.2 519,641.3 552.9,637.6 571.7,702.9 602.2,716 610.3,725.6 616.5,743.2 621.5,713.5 670.2,722.2 
			688.7,752 0,755.8 		"/>
	</g>
	<g>
		<polygon class="st17" points="1750,520.6 1691.9,515.7 1678.4,557.7 1661.1,557.7 1640.1,633 1596.9,656.5 1591.9,691 
			1578.4,684.8 1574.7,612 1563.6,600.9 1561.1,482.4 1531.4,461.4 1529,433 1498.1,433 1489.5,499.6 1358.6,540.4 1356.1,574.9 
			1364.8,595.9 1342.5,618.2 1333.9,662.6 1282,661.4 1241.3,702.1 1214.1,704.6 1188.2,730.5 1090.6,770 1750,773.1 		"/>
		<polygon class="st18" points="1112.5,770.1 1189.6,738.1 1187.1,747.4 1211.8,718 1239,710.9 1231,741.8 1270.5,704.8 
			1286.5,668.3 1334.7,670.2 1333.4,719 1353.8,617.1 1376,601.7 1380.3,631.9 1387.8,595.5 1370.5,577.6 1376.7,554.8 
			1431.6,538.7 1432.8,619.6 1415.5,628.2 1414.3,704 1423.6,633.2 1472.3,628.2 1454.4,619.6 1450.1,543 1492.7,520.8 
			1498.9,552.9 1506.9,477.6 1524.2,473.9 1555.7,496.1 1551.3,644.9 1558.1,622 1568,631.9 1569.9,725.8 1577.3,704.8 
			1590.9,707.2 1595.2,754.8 1606.3,672 1637.2,646.7 1637.2,689.9 1662.5,583.8 1672.4,583.1 1680.4,667.7 1707.5,683.1 
			1718,736.2 1714.3,671.4 1696.5,649.8 1684.7,567.7 1701.4,530.7 1750,535.6 1750,773.1 		"/>
		<polygon class="st19" points="1434.3,662 1469.8,645 1479.7,677.7 1483.4,608 1476.6,569.7 1491.4,559.2 1501.3,595 1509.9,512.3 
			1543.9,527.7 1542,655.5 1515.5,707.4 1553.1,672.2 1560.5,695 1563.6,757.4 1569.9,725.8 1582.8,730.2 1595.2,754.8 
			1608.1,737.6 1610.6,692 1637.2,676.5 1637.2,689.9 1624.1,735.8 1656.2,670.3 1674.1,682.7 1679.7,724.7 1706.3,737.6 
			1717.3,765.4 1718,736.2 1727.2,720.3 1728.5,664.8 1706.8,632.1 1700.7,575.3 1718,553.7 1750,565.4 1750,773.1 1143.9,770.3 
			1187.1,747.4 1184.6,759.7 1210.6,727.6 1235.7,723.4 1231,741.8 1215.7,756.9 1271.6,729.8 1277.7,711.2 1301.2,698.9 
			1306.1,683.4 1334.3,685.9 1333.4,719 1317.5,727.6 1310.4,756.9 1321.3,736.2 1322.2,735.6 1340.7,729.4 1350.3,677.3 
			1365.4,674.2 1377.5,611.7 1380.3,631.9 1395.1,638.5 1400.6,667.6 1397.9,575.3 1413,575.3 1422.6,624.7 1415.5,628.2 
			1414.3,704 1432.4,733 		"/>
	</g>
</g>
<g>
	<g>
		<polygon class="st17" points="183.7,806.4 201.5,779.3 234.4,762.9 236.2,758.2 250.4,726.1 285,716.9 308.4,762.5 343.6,774.3 
			363.4,813.8 315.8,816.2 280.6,826.1 209.6,824.9 160.3,816.2 140.5,816.2 160.3,800.8 176.9,799 		"/>
		<polygon class="st18" points="166.7,805.1 176.6,807.3 180.3,812.6 200.1,798 208.9,780.4 239,774.7 249.6,802.2 249.8,774 
			243,765.9 250.1,752.4 274.5,751.1 298.2,768.4 310.3,802.7 314.9,782 335.3,796.2 339.6,815 315.8,816.2 280.6,826.1 
			209.6,824.9 160.3,816.2 150.4,816.2 		"/>
		<polygon class="st19" points="189.2,821.3 219.8,799.9 228.3,783.5 239.2,787 255.5,818.5 257.3,773.4 282.3,778.1 305.1,819.2 
			280.6,826.1 209.6,824.9 		"/>
	</g>
	<g>
		<polygon class="st17" points="1625.5,807.9 1612.4,787.7 1588,775.6 1586.6,772.1 1576.1,748.3 1550.5,741.5 1533.1,775.3 
			1507,784.1 1492.3,813.4 1527.6,815.2 1553.7,822.5 1606.3,821.6 1642.9,815.2 1657.6,815.2 1642.9,803.7 1630.6,802.4 		"/>
		<polygon class="st18" points="1638.1,807 1630.8,808.5 1628.1,812.5 1613.4,801.7 1606.8,788.6 1584.6,784.3 1576.7,804.7 
			1576.6,783.8 1581.6,777.9 1576.3,767.8 1558.2,766.9 1540.6,779.7 1531.7,805.1 1528.2,789.8 1513.2,800.3 1509.9,814.3 
			1527.6,815.2 1553.7,822.5 1606.3,821.6 1642.9,815.2 1650.3,815.2 		"/>
		<polygon class="st19" points="1621.5,818.9 1598.8,803 1592.5,790.9 1584.4,793.5 1572.3,816.8 1571,783.4 1552.4,786.9 
			1535.5,817.4 1553.7,822.5 1606.3,821.6 		"/>
	</g>
	<g>
		<polygon class="st17" points="432.8,772.1 441.7,758.6 458.1,750.4 459.1,748 466.2,732 483.5,727.3 495.2,750.2 512.8,756.1 
			522.7,775.8 498.9,777 481.3,782 445.8,781.4 421.1,777 411.2,777 421.1,769.3 429.4,768.4 		"/>
		<polygon class="st18" points="424.3,771.5 429.3,772.6 431.1,775.2 441,767.9 445.4,759.2 460.5,756.2 465.8,770 465.9,755.9 
			462.5,751.9 466,745.1 478.2,744.5 490.1,753.1 496.1,770.2 498.4,759.9 508.6,767 510.8,776.4 498.9,777 481.3,782 445.8,781.4 
			421.1,777 416.1,777 		"/>
		<polygon class="st19" points="435.6,779.6 450.9,768.9 455.1,760.7 460.6,762.4 468.7,778.2 469.6,755.7 482.1,758 493.5,778.5 
			481.3,782 445.8,781.4 		"/>
	</g>
</g>
<g>
	<g>
		<polygon class="st18" points="0,621.1 142.7,665.5 146.8,722 132.6,756.2 168.9,792.6 183.1,865.2 267.8,863.1 334.3,929.7 
			378.7,933.7 421,976.1 430.7,980 0,980 		"/>
		<path class="st19" d="M402.9,980l-20.5-24.4l-44.3-11.6l9.3,35.9H402.9z M335.8,980l-49.1-46l-26.2-59.5l-78.6,3l2,79.7
			l-33.3-166.4l-36.3-25.2l-7,49.4l-12.1-59.5l28.2-29.2l-10.1-37.3l-89.8-26.2l-2,132.1l28.2,14.1l2,123.8L36.6,817L0,813.3V980
			H335.8z"/>
		<path class="st20" d="M19,864.2L0,855v125h22.1L19,864.2z M391.5,980l-7-8.7l-41.1-6.9l4,15.6H391.5z M295.6,980l-10.7-5.2
			l-10.1-30.3l-38.3-20.2l-8.1-25.2l-46,4l1.4,54l26,14.1l2.1,8.7H295.6z M189,980l-17.1-5.7l-15.6-85.2l-24.7-5L111.9,782l-4.7,33
			l-24.1,10.9L74,873.2l4.5-150.7H53.8l-15.6,80.7l11.5,5.7l2,123.8L25.9,980H189z"/>
	</g>
	<g>
		<path class="st18" d="M683.9,980l-2.9-17.4l-25.9-4.9l-7.4-79l-32.1-14.8l-3.7-79c-7.3-1.8-6.1-1.2-13.6-1.2l-49.4,4.9
			l-11.1,113.6l-27.2,6.2L498.8,980H683.9z"/>
		<path class="st19" d="M660.2,980l0.4-2.9l-9.9-6.2l-3.5,9.1H660.2z M633.7,980l1.6-14l-6.2-68.5l-16-11.1l-7.4,52.5l-14.2-121.6
			l-29.6,25.3l-20.4,124.1l8.3,13.4H633.7z"/>
		<path class="st20" d="M616.6,980l-0.5-18.4l-9.8-28l-0.1,11.3l2.8,35H616.6z M607.4,980l-17.9-36.9l0.6-56.2l-19.7,0.6L552.6,980
			H607.4z"/>
	</g>
	<g>
		<polygon class="st18" points="1750,560.2 1729.6,564.9 1704.4,719.3 1660.3,719.3 1631.9,872.2 1534.2,914.7 1516.8,980 1750,980 
					"/>
		<path class="st19" d="M1750,715.7l-7.8-0.7l-33.1,53.6l-19.7,107.9l4.7-133.1l-21.3,10.2l-30.7,155.2l44.9,63.8l1.1,7.4h61.8
			V715.7z M1664.5,980l-43.6-31.8l-4.7-31.5l-66.2,15.8l-11,47.6H1664.5z"/>
		<path class="st20" d="M1750,766.3l-3.8-0.1l-31.5,55.9l-13.4,70.9l48.7,77.8V766.3z M1750,975.6l-29.8-12.5L1719,980h31V975.6z
			 M1664.5,980l-19.9-14.5l-22.3,14.5H1664.5z M1607.4,980l2.5-18.4l-43.3-4.8l-6.7,23.2H1607.4z"/>
	</g>
	<g>
		<path class="st18" d="M1574.8,980l-30.1-56.5l-27.2-8.4l-8.4-42.8l-120.1,9.4l-27.9,98.2H1574.8z M1214.2,980l-1.7-19.9l-20.9-4.2
			l-19.8-197.4l-59.5,14.6L1101,980H1214.2z M954.7,980l-3.3-63.8l-35.5,7.3l-8.1,56.5H954.7z"/>
		<path class="st19" d="M1559.1,980l-12.5-32.4l-25.1-8.3L1515,980H1559.1z M1507.7,980l-10-67.9l-1-4.2l-33.4-12.5l-35.5,19.8
			l-32.4-6.3l-5.8,71.1H1507.7z M1159.3,980l-5.3-171.3h-33.4l-8.6,171.3H1159.3z"/>
		<path class="st20" d="M1425.2,980l-10.1-10.5l-7.7,10.5H1425.2z M1142.5,980l-7.3-72.1l-20.7,20.8l-2.6,51.4H1142.5z"/>
	</g>
</g>
</svg>
