<svg xmlns="http://www.w3.org/2000/svg" xmlns:xlink="http://www.w3.org/1999/xlink" x="0" y="0" version="1.1" viewBox="0 0 314.8 258.5" style="enable-background:new 0 0 314.8 258.5" xml:space="preserve"><style type="text/css">.st1{fill:#78909c}.st3{fill:#90a4ae}.st4{fill:#cfd8dc}.st5{fill:#263238}.st6{fill:#e64a19}.st7{opacity:.2;fill:#212121}.st8{fill:#d84315}.st9{fill:#1a237e}.st10{fill:#212121}.st11{fill:#000014}.st12{fill:#eee}.st13{fill:#0d47a1}.st14{opacity:.2;fill:#eee}.st15{fill:#f9a825}.st16{opacity:.1;fill:#212121}.st17{fill:#c62828}.st18{fill:#37474f}.st19{fill:#ff8f00}.st21{opacity:.2}.st23{fill:#a7a7af}</style><g id="Ñëîé_4"><g><g><g><rect width="69.1" height="7.8" x="115.2" y="216.7" class="st4" transform="matrix(0.886 -0.4637 0.4637 0.886 -85.2182 94.5978)"/><rect width="69.1" height="3.9" x="116.1" y="220.4" class="st7" transform="matrix(0.886 -0.4637 0.4637 0.886 -85.9092 95.1993)"/></g><g><rect width="4.7" height="67.1" x="105.1" y="171.6" class="st4" transform="matrix(0.9367 -0.3501 0.3501 0.9367 -65.0295 50.5817)"/><polygon points="97.9 172.9 96.9 173.3 117.8 236.3 116.7 236.7 116.9 237.4 121.3 235.8" class="st7"/></g><g><rect width="46.4" height="3.1" x="84.1" y="152.1" class="st4" transform="matrix(0.5032 -0.8642 0.8642 0.5032 -79.512 169.0975)"/><polygon points="117.6 132.9 117.4 133.2 118.7 134 95.6 173.7 97 174.5 120.3 134.5" class="st7"/></g><g><path d="M194.5,198.4c0,7.9-6.4,14.2-14.2,14.2s-14.2-6.4-14.2-14.2c0-7.8,6.4-14.2,14.2-14.2 S194.5,190.6,194.5,198.4z" class="st8"/><path d="M178.1,208.8c-3.9,0-7.5-1.4-10.3-3.7c2.4,4.5,7.1,7.5,12.5,7.5c7.8,0,14.2-6.4,14.2-14.2 c0-1-0.1-1.9-0.3-2.9C192.7,203.1,186.1,208.8,178.1,208.8z" class="st7"/></g><g><path d="M130.7,236.6c0,6.4-5.2,11.5-11.5,11.5s-11.5-5.2-11.5-11.5c0-6.4,5.2-11.5,11.5-11.5 S130.7,230.2,130.7,236.6z" class="st8"/><path d="M115.3,233.6c-1.4,1.7-3.2,2.5-4.1,1.8c-0.9-0.7-0.4-2.6,1-4.3c1.4-1.7,3.2-2.5,4.1-1.8 C117.1,230,116.7,231.9,115.3,233.6z" class="st12"/><path d="M130.3,233.5c-0.5,6.8-6.1,12.2-13.1,12.2c-2.7,0-5.1-0.8-7.2-2.2c2.1,2.8,5.4,4.5,9.2,4.5 c6.4,0,11.5-5.2,11.5-11.5C130.7,235.5,130.5,234.5,130.3,233.5z" class="st7"/></g><g><circle cx="95.7" cy="173.7" r="8.1" class="st8"/><path d="M103.3,171.2c-0.2,4.8-4.1,8.6-8.9,8.6c-2.3,0-4.4-0.9-6-2.4c1.4,2.6,4,4.4,7.2,4.4c4.5,0,8.1-3.6,8.1-8.1 C103.8,172.9,103.6,172,103.3,171.2z" class="st7"/><path d="M92.3,170.9c-0.8,1-1.8,1.4-2.3,1c-0.5-0.4-0.2-1.5,0.6-2.5c0.8-1,1.8-1.4,2.3-1 C93.3,168.8,93.1,170,92.3,170.9z" class="st12"/></g><g><g><path d="M223.4,194.1c0,3.6-19.3,6.5-43.1,6.5c-23.8,0-43.1-2.9-43.1-6.5c0-3.6,19.3-6.5,43.1-6.5 C204.1,187.7,223.4,190.5,223.4,194.1z" class="st23"/><polygon points="223.4 194.1 137.2 194.1 129.4 180.2 231.1 180.2" class="st23"/></g><path d="M180.3,180.2v20.4c23.8,0,43.1-2.9,43.1-6.5l7.7-13.9H180.3z" class="st16"/><path d="M231.1,180.2c0,4.1-22.8,7.5-50.8,7.5c-28.1,0-50.8-3.3-50.8-7.5c0-4.1,22.8-7.5,50.8-7.5 C208.3,172.7,231.1,176.1,231.1,180.2z" class="st4"/><path d="M203.8,185.9c3.6,0,7.1,0,10.5-0.1c10.3-1.4,16.8-3.4,16.8-5.6c0-2.2-6.5-4.2-16.8-5.6 c-3.4-0.1-6.9-0.1-10.5-0.1c-28.8,0-52.1,2.5-52.1,5.7C151.7,183.3,175,185.9,203.8,185.9z" class="st1"/></g></g><g><g><g><polygon points="111 133 110.9 133.9 109.9 134.8 102.3 125.4 103.3 124.5 104.3 124.6" class="st3"/><rect width="4.7" height="2.7" x="104.5" y="123.8" class="st3" transform="matrix(0.7777 -0.6287 0.6287 0.7777 -54.9178 94.9872)"/><rect width="4.7" height="2.7" x="108.7" y="129" class="st3" transform="matrix(0.7775 -0.6288 0.6288 0.7775 -57.2687 98.8367)"/></g><polygon points="113.4 138 113.3 138.9 69.4 174.4 68.4 174.3 54.9 157.6 55 156.7 98.9 121.2 99.8 121.3" class="st4"/><g><rect width="57.1" height="1.3" x="55.6" y="147.1" class="st4" transform="matrix(0.7775 -0.6288 0.6288 0.7775 -74.2347 85.787)"/><polygon points="72.8 171.2 72.3 171.6 58.4 154.4 58.9 154" class="st4"/><rect width=".7" height="22.2" x="68.9" y="148.8" class="st4" transform="matrix(0.7767 -0.6299 0.6299 0.7767 -85.2297 79.3178)"/><polygon points="80.1 165.3 79.6 165.7 65.7 148.5 66.2 148.1" class="st4"/><polygon points="83.8 162.3 83.3 162.8 69.3 145.5 69.8 145.1" class="st4"/><rect width=".7" height="22.2" x="79.9" y="139.9" class="st4" transform="matrix(0.7794 -0.6265 0.6265 0.7794 -76.8983 83.5586)"/><polygon points="91.1 156.4 90.6 156.9 76.6 139.6 77.2 139.2" class="st4"/><rect width=".7" height="22.2" x="87.2" y="134" class="st4" transform="matrix(0.7754 -0.6314 0.6314 0.7754 -71.9436 87.8393)"/><polygon points="98.4 150.5 97.9 150.9 84 133.7 84.5 133.3" class="st4"/><rect width=".7" height="22.2" x="94.5" y="128.1" class="st4" transform="matrix(0.7774 -0.629 0.629 0.7774 -66.4138 90.6193)"/><rect width=".7" height="22.2" x="98.2" y="125.1" class="st4" transform="matrix(0.7777 -0.6287 0.6287 0.7777 -63.725 92.2038)"/><polygon points="109.4 141.6 108.9 142.1 94.9 124.8 95.4 124.4" class="st4"/></g><g><g><rect width="4" height="10.1" x="76.4" y="140" class="st13" transform="matrix(0.7777 -0.6286 0.6286 0.7777 -73.753 81.5669)"/><rect width="4" height="10.1" x="83.6" y="148.9" class="st13" transform="matrix(0.7778 -0.6285 0.6285 0.7778 -77.7249 88.0211)"/><rect width="4" height="10.1" x="69.1" y="145.9" class="st13" transform="matrix(0.7776 -0.6288 0.6288 0.7776 -79.1084 78.3072)"/><rect width="4" height="10.1" x="69" y="160.7" class="st13" transform="matrix(0.7775 -0.6288 0.6288 0.7775 -88.4488 81.5309)"/><rect width="4" height="10.1" x="61.8" y="151.9" class="st13" transform="matrix(0.7776 -0.6288 0.6288 0.7776 -84.458 75.0312)"/><rect width="4" height="10.1" x="76.3" y="154.8" class="st13" transform="matrix(0.7776 -0.6288 0.6288 0.7776 -83.0973 84.8017)"/><rect width="4" height="10.1" x="91.1" y="128.2" class="st13" transform="matrix(0.7774 -0.629 0.629 0.7774 -63.0853 88.2002)"/><polygon points="109.2 141.4 112.6 138.6 112.7 138.2 106.5 130.6 102.8 133.5" class="st13"/><polygon points="99.1 121.9 95.7 124.7 102 132.5 105.6 129.5 99.5 121.9" class="st13"/><rect width="4" height="10.1" x="98.2" y="137.1" class="st13" transform="matrix(0.7776 -0.6288 0.6288 0.7776 -67.061 94.6545)"/><rect width="4" height="10.1" x="83.7" y="134.1" class="st13" transform="matrix(0.7779 -0.6284 0.6284 0.7779 -68.3911 84.7947)"/><rect width="4" height="10.1" x="90.9" y="143" class="st13" transform="matrix(0.7774 -0.6291 0.6291 0.7774 -72.426 91.4241)"/></g><g><rect width="4" height="10.1" x="65.5" y="148.9" class="st9" transform="matrix(0.7769 -0.6296 0.6296 0.7769 -81.8663 76.8302)"/><rect width="4" height="10.1" x="80" y="151.9" class="st9" transform="matrix(0.7777 -0.6287 0.6287 0.7777 -80.4139 86.4182)"/><rect width="4" height="10.1" x="72.8" y="143" class="st9" transform="matrix(0.7775 -0.6288 0.6288 0.7775 -76.4413 79.9611)"/><polygon points="55.6 157.4 61.8 165 64.9 162.5 58.6 154.7 55.6 157" class="st9"/><rect width="4" height="10.1" x="72.6" y="157.8" class="st9" transform="matrix(0.7777 -0.6286 0.6286 0.7777 -85.7504 83.1221)"/><polygon points="68.8 173.7 69.2 173.7 72.1 171.4 65.7 163.5 62.6 166.1" class="st9"/><rect width="4" height="10.1" x="101.9" y="134.1" class="st9" transform="matrix(0.7774 -0.629 0.629 0.7774 -64.4005 96.3453)"/><rect width="4" height="10.1" x="94.7" y="125.2" class="st9" transform="matrix(0.7775 -0.6289 0.6289 0.7775 -60.405 89.8177)"/><rect width="4" height="10.1" x="80.1" y="137.1" class="st9" transform="matrix(0.7777 -0.6286 0.6286 0.7777 -71.078 83.1994)"/><rect width="4" height="10.1" x="87.4" y="131.2" class="st9" transform="matrix(0.7779 -0.6284 0.6284 0.7779 -65.7234 86.4454)"/><rect width="4" height="10.1" x="94.6" y="140" class="st9" transform="matrix(0.7775 -0.6288 0.6288 0.7775 -69.7355 93.018)"/><rect width="4" height="10.1" x="87.3" y="145.9" class="st9" transform="matrix(0.7775 -0.6288 0.6288 0.7775 -75.0831 89.7387)"/></g></g><polygon points="73.9 141.4 55 156.7 54.9 157.6 68.4 174.3 69.4 174.4 97.6 151.6" class="st14"/></g><g><g><polygon points="133.9 114.5 134.8 114.6 135.9 113.8 128.2 104.4 127.2 105.2 127.1 106.1" class="st3"/><rect width="4.7" height="2.7" x="124.7" y="107.4" class="st3" transform="matrix(0.7775 -0.6288 0.6288 0.7775 -40.132 104.1028)"/><rect width="4.7" height="2.7" x="128.9" y="112.7" class="st3" transform="matrix(0.7771 -0.6293 0.6293 0.7771 -42.4803 108.0296)"/></g><polygon points="138.3 117.8 139.2 117.9 183.1 82.4 183.2 81.5 169.7 64.8 168.7 64.7 124.9 100.2 124.8 101.1" class="st4"/><g><rect width="57.1" height="1.3" x="125.4" y="90.6" class="st4" transform="matrix(0.7775 -0.6289 0.6289 0.7775 -23.1642 117.1521)"/><polygon points="179.2 85.1 179.8 84.7 165.8 67.5 165.3 67.9" class="st4"/><rect width=".7" height="22.2" x="168.5" y="68.2" class="st4" transform="matrix(0.7774 -0.629 0.629 0.7774 -12.2745 123.8654)"/><polygon points="171.9 91.1 172.4 90.6 158.5 73.4 158 73.8" class="st4"/><polygon points="168.3 94 168.8 93.6 154.9 76.4 154.3 76.8" class="st4"/><rect width=".7" height="22.2" x="157.6" y="77.1" class="st4" transform="matrix(0.7774 -0.629 0.629 0.7774 -20.2973 118.9346)"/><rect width=".7" height="22.2" x="153.9" y="80" class="st4" transform="matrix(0.7777 -0.6287 0.6287 0.7777 -22.9803 117.2335)"/><polygon points="157.3 102.9 157.8 102.5 143.9 85.2 143.4 85.7" class="st4"/><polygon points="153.6 105.9 154.2 105.4 140.2 88.2 139.7 88.6" class="st4"/><rect width=".7" height="22.2" x="142.9" y="88.9" class="st4" transform="matrix(0.7777 -0.6287 0.6287 0.7777 -30.9963 112.3088)"/><rect width=".7" height="22.2" x="139.3" y="91.8" class="st4" transform="matrix(0.7796 -0.6263 0.6263 0.7796 -33.6919 110.1246)"/><rect width=".7" height="22.2" x="135.6" y="94.8" class="st4" transform="matrix(0.7786 -0.6275 0.6275 0.7786 -36.3452 108.7573)"/></g><g><g><rect width="4" height="10.1" x="150.5" y="80.1" class="st13" transform="matrix(0.7775 -0.6288 0.6288 0.7775 -19.6459 114.839)"/><rect width="4" height="10.1" x="157.7" y="89" class="st13" transform="matrix(0.7779 -0.6284 0.6284 0.7779 -23.6457 121.2332)"/><rect width="4" height="10.1" x="157.8" y="74.2" class="st13" transform="matrix(0.7776 -0.6288 0.6288 0.7776 -14.3013 118.1122)"/><rect width="4" height="10.1" x="172.3" y="77.2" class="st13" transform="matrix(0.7775 -0.6288 0.6288 0.7775 -12.9396 127.8963)"/><rect width="4" height="10.1" x="165.1" y="68.3" class="st13" transform="matrix(0.7776 -0.6288 0.6288 0.7776 -8.9531 121.4001)"/><rect width="4" height="10.1" x="165" y="83.1" class="st13" transform="matrix(0.7771 -0.6294 0.6294 0.7771 -18.2581 124.754)"/><rect width="4" height="10.1" x="135.8" y="92" class="st13" transform="matrix(0.7775 -0.6288 0.6288 0.7775 -30.3367 108.2766)"/><polygon points="142.5 114.5 139 117.2 138.6 117.2 132.5 109.6 136.1 106.6" class="st13"/><polygon points="125.5 100.5 128.9 97.7 135.3 105.6 131.6 108.5 125.5 100.9" class="st13"/><rect width="4" height="10.1" x="143" y="100.9" class="st13" transform="matrix(0.7774 -0.6291 0.6291 0.7774 -34.3209 114.8171)"/><rect width="4" height="10.1" x="143.2" y="86.1" class="st13" transform="matrix(0.7777 -0.6286 0.6286 0.7777 -24.9966 111.5066)"/><rect width="4" height="10.1" x="150.3" y="94.9" class="st13" transform="matrix(0.7779 -0.6284 0.6284 0.7779 -28.9882 117.9526)"/></g><g><rect width="4" height="10.1" x="161.4" y="71.3" class="st9" transform="matrix(0.7773 -0.6291 0.6291 0.7773 -11.6118 119.8235)"/><rect width="4" height="10.1" x="161.3" y="86.1" class="st9" transform="matrix(0.7774 -0.629 0.629 0.7774 -20.9505 123.0204)"/><rect width="4" height="10.1" x="154.1" y="77.2" class="st9" transform="matrix(0.7779 -0.6284 0.6284 0.7779 -16.9898 116.3894)"/><polygon points="169.3 65.4 175.5 73 172.4 75.6 166 67.7 169 65.4" class="st9"/><rect width="4" height="10.1" x="168.6" y="80.2" class="st9" transform="matrix(0.7775 -0.6289 0.6289 0.7775 -15.61 126.2653)"/><polygon points="182.5 81.7 182.5 82.1 179.6 84.5 173.2 76.6 176.3 74.1" class="st9"/><rect width="4" height="10.1" x="139.4" y="103.8" class="st9" transform="matrix(0.7777 -0.6286 0.6286 0.7777 -36.998 113.0757)"/><rect width="4" height="10.1" x="132.2" y="94.9" class="st9" transform="matrix(0.7771 -0.6294 0.6294 0.7771 -33.0054 106.7548)"/><rect width="4" height="10.1" x="146.8" y="83.1" class="st9" transform="matrix(0.7779 -0.6284 0.6284 0.7779 -22.3328 113.0977)"/><rect width="4" height="10.1" x="139.5" y="89" class="st9" transform="matrix(0.7781 -0.6282 0.6282 0.7781 -27.6778 109.7724)"/><rect width="4" height="10.1" x="146.7" y="97.9" class="st9" transform="matrix(0.7774 -0.629 0.629 0.7774 -31.6478 116.4482)"/><rect width="4" height="10.1" x="154" y="92" class="st9" transform="matrix(0.7774 -0.629 0.629 0.7774 -26.301 119.7212)"/></g></g><polygon points="139.1 88.7 124.9 100.2 124.8 101.1 138.3 117.8 139.2 117.9 162.8 98.9" class="st7"/></g><g><path d="M94.6,89.4c-0.4,0.4,8.3,13.9,8.3,13.9l3.6-2.9C106.5,100.4,95.1,89,94.6,89.4z" class="st15"/><path d="M96.3,89c0.5,0.7,0.4,1.6-0.2,2.1c-0.7,0.5-1.6,0.4-2.1-0.2c-0.5-0.7-0.4-1.6,0.2-2.1 C94.8,88.2,95.8,88.4,96.3,89z" class="st15"/></g><path d="M104.8,101.7l1.6-1.3c0,0-6.7-6.7-10-9.6c0.3-0.5,0.3-1.2-0.1-1.7c-0.5-0.6-1.3-0.7-2-0.3L104.8,101.7z" class="st16"/><g><path d="M109.4,98c0.3,0.3-1.6,2.3-4.3,4.4c-2.6,2.1-5,3.6-5.2,3.2c-0.3-0.3,1.5-2.5,4.1-4.6 C106.7,98.9,109.2,97.6,109.4,98z" class="st4"/><rect width="12.2" height="3.8" x="99.8" y="101.4" class="st4" transform="matrix(0.7776 -0.6288 0.6288 0.7776 -41.3909 89.5604)"/></g><path d="M107.2,104.7l4.6-3.7l-2.4-3c-0.3-0.3-2.6,0.9-5.2,3L107.2,104.7z" class="st16"/><g><rect width="18.3" height="6.1" x="99.9" y="104.1" class="st17" transform="matrix(0.7775 -0.6289 0.6289 0.7775 -43.1191 92.3823)"/><path d="M114.2,99c0.5,0.7-2.2,3.8-6.1,6.9c-3.9,3.2-7.5,5.2-8.1,4.6c-0.5-0.7,2.2-3.8,6.1-6.9 C110.1,100.4,113.7,98.4,114.2,99z" class="st17"/></g><path d="M111.1,109.4l7-5.6l-3.8-4.7c-0.5-0.6-4.1,1.3-7.9,4.5L111.1,109.4z" class="st16"/><g><path d="M119,100.1c1.1,1.3-2.3,5.8-7.6,10c-5.2,4.2-10.3,6.6-11.4,5.3c-1.1-1.3,2.3-5.8,7.6-10 C112.8,101.1,117.9,98.8,119,100.1z" class="st4"/><rect width="24.4" height="30.5" x="106.9" y="104.3" class="st4" transform="matrix(0.7775 -0.6289 0.6289 0.7775 -48.7015 101.4753)"/><path d="M138.1,123.7c1.1,1.3-2.3,5.8-7.6,10c-5.2,4.2-10.3,6.6-11.4,5.3c-1.1-1.3,2.3-5.8,7.6-10 C132,124.8,137.1,122.4,138.1,123.7z" class="st3"/></g><path d="M130.7,133.7c5.2-4.2,8.5-8.6,7.4-9.9L119,100.1c-1.1-1.3-6.1,1-11.3,5.2L130.7,133.7z" class="st16"/><g><path d="M134.6,126.6c0.4,0.5-1.9,3-5.2,5.7c-3.3,2.6-6.2,4.4-6.6,3.9c-0.4-0.5,1.9-3,5.2-5.7 C131.2,127.9,134.2,126.1,134.6,126.6z" class="st17"/><rect width="15.2" height="6.1" x="122.9" y="130.7" class="st17" transform="matrix(0.7775 -0.6288 0.6288 0.7775 -55.0796 111.856)"/></g><path d="M132.6,136l5.8-4.7l-3.8-4.7l0,0l0,0c-0.4-0.5-3.3,1.2-6.5,3.8L132.6,136z" class="st16"/><g><path d="M139.8,128.3c0.8,1-2.3,4.8-6.9,8.5c-4.6,3.7-8.9,5.9-9.7,4.9c-0.8-1,2.3-4.8,6.9-8.5 C134.7,129.5,139,127.3,139.8,128.3z" class="st4"/><path d="M137.7,142.7c-5.8,4.7-9.9,5.9-10.3,5.4c-0.4-0.5,1.7-4.3,7.4-9c5.8-4.7,9.9-5.9,10.3-5.4 C145.6,134.2,143.5,138,137.7,142.7z" class="st18"/><g><polygon points="133.1 140.5 127.2 145.3 129.2 146.6 133.9 142.8" class="st10"/><polygon points="142.6 132.9 136.6 137.7 138.7 139 143.4 135.1" class="st10"/><polygon points="138.7 137.8 132.7 142.5 134.8 143.8 139.5 140" class="st10"/><polygon points="137.1 135.8 131.2 140.6 133.2 141.9 137.9 138.1" class="st10"/></g><path d="M139.8,128.3l-16.6,13.4l3.6,6.9l0.6-0.5c-0.4-0.5,1.7-4.3,7.4-9c5.8-4.7,9.9-5.9,10.3-5.4l0.6-0.5 L139.8,128.3z" class="st4"/><g><path d="M137.9,138.1c0.4,0.5-0.3,1.7-1.7,2.8c-1.3,1.1-2.7,1.5-3.1,1c-0.4-0.5,0.3-1.7,1.6-2.8 C136.2,138,137.6,137.6,137.9,138.1z" class="st5"/><path d="M143.4,135.1c0.4,0.5-0.3,1.7-1.6,2.8c-1.3,1.1-2.7,1.5-3.1,1c-0.4-0.5,0.3-1.7,1.7-2.8 C141.6,135.1,143,134.6,143.4,135.1z" class="st5"/><path d="M133.9,142.8c0.4,0.5-0.3,1.7-1.6,2.8c-1.3,1.1-2.7,1.5-3.1,1c-0.4-0.5,0.3-1.7,1.7-2.8 C132.2,142.8,133.5,142.3,133.9,142.8z" class="st5"/><path d="M139.5,140c0.3,0.4-0.5,1.6-1.8,2.6c-1.3,1.1-2.6,1.6-3,1.2c-0.3-0.4,0.5-1.6,1.8-2.6 C137.9,140.1,139.2,139.6,139.5,140z" class="st5"/></g><g><path d="M135.8,140.3c-0.8,0.6-1.5,0.9-1.9,1c0.2-0.4,0.6-1,1.4-1.6c0.8-0.6,1.5-0.9,1.9-1 C137.1,139,136.6,139.6,135.8,140.3z" class="st19"/><path d="M141.3,137.3c-0.8,0.6-1.5,0.9-1.9,1c0.2-0.4,0.6-1,1.4-1.6c0.8-0.6,1.5-0.9,1.9-1 C142.5,136.1,142.1,136.7,141.3,137.3z" class="st19"/><path d="M131.8,145c-0.8,0.6-1.5,0.9-1.9,1c0.2-0.4,0.6-1,1.4-1.6c0.8-0.6,1.5-0.9,1.9-1 C133,143.7,132.6,144.4,131.8,145z" class="st19"/><path d="M137.3,142.1c-0.6,0.5-1.1,0.8-1.4,0.9c0.3-0.3,0.7-0.8,1.2-1.2c0.6-0.5,1.1-0.8,1.4-0.9 C138.2,141.2,137.8,141.6,137.3,142.1z" class="st19"/></g><path d="M134.4,138.5c-5.2,4.2-8.6,8.7-7.6,10c1.1,1.3,6.2-1.1,11.4-5.3c5.2-4.2,8.6-8.7,7.6-10 C144.7,131.9,139.6,134.3,134.4,138.5z M137.7,142.7c-5.8,4.7-9.9,5.9-10.3,5.4c-0.4-0.5,1.7-4.3,7.4-9 c5.8-4.7,9.9-5.9,10.3-5.4C145.6,134.2,143.5,138,137.7,142.7z" class="st3"/></g><path d="M138.3,143.1c5.2-4.2,8.5-8.6,7.4-9.9l-6-5c-0.8-1-5.1,1.2-9.6,4.8L138.3,143.1z" class="st16"/></g><g><path d="M207.5,127c0,1.9-1.6,3.5-3.6,3.5h-47.4c-2,0-3.6-1.6-3.6-3.5V79.3c0-1.9,1.6-3.5,3.6-3.5h47.4 c2,0,3.6,1.6,3.6,3.5V127z" class="st3"/><g><g><g><path d="M180.4,133.5c0,0.4-0.1,1.4-0.1,2.9c-0.4,6.4-1.6,21.6-3.7,32.9c-0.1,0.3-0.1,0.6-0.2,0.9v0 c-0.1,0.3-0.1,0.6-0.2,0.9v0c0,0.1-0.1,0.2-0.1,0.3c-0.2,0.8-0.3,1.6-0.5,2.3c-0.2,0.8-0.3,1.5-0.5,2.1 c-0.2,0.7-0.4,1.3-0.5,1.9c-0.3,1.1-0.7,2-1,2.7c-0.1,0.2-0.2,0.3-0.3,0.5c-0.2,0.4-0.4,0.7-0.6,1c-0.2,0.2-0.3,0.4-0.5,0.5 c-0.1,0.1-0.1,0.1-0.2,0.2c-0.1,0.1-0.2,0.1-0.3,0.2c-0.2,0.1-0.4,0.2-0.6,0.2c-0.1,0-0.3,0-0.4,0h0c-0.1,0-0.3,0-0.4-0.1 c-0.1,0-0.3-0.1-0.4-0.1c-0.3-0.1-0.5-0.2-0.8-0.4c-0.1-0.1-0.3-0.2-0.4-0.3c-0.2-0.1-0.3-0.3-0.5-0.4 c-0.1-0.1-0.2-0.2-0.3-0.3c-0.1-0.1-0.3-0.3-0.4-0.4c-0.3-0.3-0.5-0.6-0.8-0.9c-0.1-0.2-0.3-0.4-0.4-0.5 c-0.1-0.2-0.3-0.4-0.4-0.6c-0.1-0.2-0.3-0.4-0.4-0.6c-0.3-0.4-0.5-0.9-0.7-1.3c-0.6-1.2-1.2-2.5-1.7-3.9 c-0.2-0.5-0.4-1-0.6-1.6c-0.1-0.4-0.3-0.9-0.4-1.3c-0.1-0.3-0.2-0.6-0.3-0.9c-0.1-0.3-0.2-0.6-0.3-0.9 c-3.7-12.2-5.9-28.9-5.9-38.1C155.5,130.4,180.4,130.4,180.4,133.5z" class="st4"/><path d="M176.3,170.3L176.3,170.3c-0.1,0.3-0.1,0.6-0.2,0.9v0c0,0.1-0.1,0.2-0.1,0.3c-0.2,0.8-0.3,1.6-0.5,2.3 c-0.2,0.8-0.3,1.5-0.5,2.1c-0.2,0.7-0.4,1.3-0.5,1.9c-0.3,1.1-0.7,2-1,2.7c-0.1,0.2-0.2,0.3-0.3,0.5c-0.2,0.4-0.4,0.7-0.6,1 c-0.2,0.2-0.3,0.4-0.5,0.5c-0.1,0.1-0.1,0.1-0.2,0.2c-0.1,0.1-0.2,0.1-0.3,0.2c-0.3,0.1-0.7,0.1-1.1,0.1h0 c-0.1,0-0.3,0-0.4-0.1c-0.1,0-0.3-0.1-0.4-0.1c-0.3-0.1-0.5-0.2-0.8-0.4c-0.1-0.1-0.3-0.2-0.4-0.3c-0.2-0.1-0.3-0.2-0.5-0.4 c-0.1-0.1-0.2-0.2-0.3-0.3c-0.1-0.1-0.3-0.3-0.4-0.4c-0.3-0.3-0.5-0.6-0.8-0.9c-0.1-0.2-0.3-0.4-0.4-0.5 c-0.1-0.2-0.3-0.4-0.4-0.6c-0.1-0.2-0.3-0.4-0.4-0.6c-0.3-0.4-0.5-0.9-0.7-1.3c-0.6-1.2-1.2-2.5-1.7-3.9 c-0.2-0.5-0.4-1-0.6-1.6c-0.1-0.4-0.3-0.9-0.4-1.3c-0.1-0.3-0.2-0.6-0.3-0.9c1.8-0.4,3.7-0.6,5.7-0.6c1.5,0,3,0.1,4.4,0.3 C173.5,169.4,175,169.8,176.3,170.3z" class="st5"/><g><path d="M177.2,170.7c-0.1,0.4-0.5,0.6-0.9,0.6c-0.1,0-0.1,0-0.2,0v0c-0.1,0-0.1,0-0.2,0 c-1.3-0.5-2.8-0.9-4.4-1.1c-3.1-0.5-6.5-0.5-9.7,0.2c0,0-0.1,0-0.1,0c-0.5,0.1-1-0.2-1.1-0.7c-0.1-0.5,0.2-0.9,0.6-1 c0,0,0.1,0,0.1,0c3.4-0.7,7.1-0.8,10.4-0.3c1.6,0.2,3.2,0.6,4.6,1.2c0.1,0,0.1,0,0.1,0.1 C177.1,169.6,177.4,170.2,177.2,170.7z" class="st6"/></g></g><path d="M177.2,170.7c-0.1,0.4-0.5,0.6-0.9,0.6c-0.1,0-0.1,0-0.2,0c0,0.1-0.1,0.2-0.1,0.3 c-0.2,0.8-0.3,1.6-0.5,2.3c-0.2,0.8-0.3,1.5-0.5,2.1c-0.2,0.7-0.4,1.3-0.5,1.9c-0.3,1.1-0.7,2-1,2.7c-0.1,0.2-0.2,0.3-0.3,0.5 c-0.2,0.4-0.4,0.7-0.6,1c-0.2,0.2-0.3,0.4-0.5,0.5c-0.1,0.1-0.1,0.1-0.2,0.2c-0.1,0.1-0.2,0.1-0.3,0.2 c-0.2,0.1-0.4,0.2-0.6,0.2c-0.1,0-0.3,0-0.4,0h0c-0.1,0-0.3,0-0.4-0.1c-0.1,0-0.3-0.1-0.4-0.1c-0.3-0.1-0.5-0.2-0.8-0.4 c-0.1-0.1-0.3-0.2-0.4-0.3c-0.2-0.1-0.3-0.2-0.5-0.4c0,0,0,0,0,0c1.4-2.2,2.7-5.9,3.6-11.8c0.1-0.3,0.1-0.6,0.1-0.9 c0-0.3,0.1-0.6,0.1-0.9c0.3-2,0.5-4.1,0.7-6.5c1.8-21.3,2.4-24.9,3.7-26.4c1.5,0.1,2.8,0.5,3.9,1.1c-0.4,6.4-1.6,21.6-3.7,32.9 c0.1,0,0.1,0,0.1,0.1C177.1,169.6,177.4,170.2,177.2,170.7z" class="st7"/><g><path d="M205.2,130.4c0,9.2-2.2,26-5.9,38.2c-0.1,0.3-0.2,0.6-0.3,0.9c-0.1,0.3-0.2,0.6-0.3,0.9 c-0.1,0.4-0.3,0.8-0.4,1.1c-0.3,0.9-0.6,1.8-1,2.6c-0.1,0.3-0.2,0.5-0.3,0.8c-0.1,0.3-0.2,0.5-0.3,0.8 c-0.1,0.3-0.2,0.5-0.3,0.7c-0.1,0.2-0.2,0.5-0.3,0.7c-0.3,0.7-0.7,1.3-1,1.8c0,0-0.1,0.1-0.1,0.1c-0.2,0.3-0.3,0.5-0.5,0.7 c-0.2,0.3-0.4,0.5-0.5,0.7c0,0-0.1,0.1-0.1,0.1c-0.2,0.2-0.3,0.4-0.5,0.6c-0.2,0.2-0.4,0.4-0.6,0.6c0,0,0,0-0.1,0.1 c-0.2,0.1-0.3,0.3-0.5,0.4c-0.2,0.1-0.4,0.3-0.6,0.4c-0.2,0.1-0.4,0.2-0.6,0.3c-0.2,0.1-0.4,0.1-0.6,0.2c-0.1,0-0.2,0-0.3,0 c0,0,0,0,0,0h0c0,0,0,0,0,0h-0.1c-0.1,0-0.3,0-0.4-0.1c0,0,0,0,0,0c0,0,0,0,0,0c-0.1,0-0.2-0.1-0.3-0.2 c-0.2-0.1-0.4-0.3-0.6-0.6c-0.1-0.2-0.3-0.4-0.4-0.6c-0.2-0.3-0.4-0.7-0.6-1.1c-0.3-0.7-0.7-1.6-1-2.5 c-0.1-0.2-0.2-0.5-0.2-0.7c0-0.1-0.1-0.2-0.1-0.3c-0.2-0.7-0.4-1.4-0.6-2.1c-0.3-1.2-0.5-2.4-0.8-3.7c0-0.1,0-0.2-0.1-0.3 c-0.1-0.3-0.1-0.6-0.2-0.9c-0.1-0.3-0.1-0.6-0.2-0.9c-2-11.2-3.3-26.1-3.7-32.6c-0.1-1.6-0.1-2.7-0.1-3.1 c0-1.9,9.1-2.6,16.3-2.9C201.3,130.4,205.2,130.4,205.2,130.4z" class="st4"/><path d="M199,169.5c-0.1,0.3-0.2,0.6-0.3,0.9c-0.1,0.4-0.3,0.8-0.4,1.1c-0.3,0.9-0.6,1.8-1,2.6 c-0.1,0.3-0.2,0.5-0.3,0.8c-0.1,0.3-0.2,0.5-0.3,0.8c-0.1,0.3-0.2,0.5-0.3,0.7c-0.1,0.2-0.2,0.5-0.3,0.7 c-0.3,0.7-0.7,1.3-1,1.8c0,0-0.1,0.1-0.1,0.1c-0.2,0.3-0.3,0.5-0.5,0.7c-0.2,0.3-0.4,0.5-0.5,0.7c0,0-0.1,0.1-0.1,0.1 c-0.2,0.2-0.3,0.4-0.5,0.6c-0.2,0.2-0.4,0.4-0.6,0.6c0,0,0,0-0.1,0.1c-0.2,0.1-0.3,0.3-0.5,0.4c-0.2,0.1-0.4,0.3-0.6,0.4 c-0.2,0.1-0.4,0.2-0.6,0.3c-0.2,0.1-0.4,0.1-0.6,0.2c-0.1,0-0.2,0-0.3,0c0,0,0,0,0,0h0c0,0,0,0,0,0h0c-0.2,0-0.3,0-0.5-0.1 c0,0,0,0,0,0c0,0,0,0,0,0c-0.1,0-0.2-0.1-0.3-0.2c-0.2-0.1-0.4-0.3-0.6-0.6c-0.1-0.2-0.3-0.4-0.4-0.6 c-0.2-0.3-0.4-0.7-0.6-1.1c-0.3-0.7-0.7-1.6-1-2.5c-0.1-0.2-0.2-0.5-0.2-0.7c0-0.1-0.1-0.2-0.1-0.3c-0.2-0.7-0.4-1.4-0.6-2.1 c-0.3-1.2-0.5-2.4-0.8-3.7c0-0.1,0-0.2,0-0.3h0c-0.1-0.3-0.1-0.6-0.2-0.9c2.4-0.9,5.4-1.4,8.6-1.4h0.3 C195.3,168.8,197.3,169.1,199,169.5z" class="st5"/><g><path d="M199.9,169.7c-0.1,0.5-0.6,0.8-1.1,0.7c0,0-0.1,0-0.1,0c-1.8-0.4-3.7-0.6-5.7-0.6h-0.1 c-3,0-5.9,0.5-8.3,1.3c0,0-0.1,0-0.1,0h0c-0.1,0-0.1,0-0.2,0c-0.4,0-0.7-0.2-0.9-0.6c-0.2-0.5,0.1-1,0.5-1.2 c0.1,0,0.1,0,0.1-0.1c2.7-0.9,6-1.4,9.2-1.4c2,0,4,0.2,5.8,0.7c0,0,0,0,0.1,0C199.8,168.8,200,169.2,199.9,169.7z" class="st6"/></g></g></g><path d="M201.6,107.1c-0.1-0.3-0.1-0.5-0.2-0.8c-0.1-0.2-0.1-0.4-0.2-0.6c0-0.1,0-0.1,0-0.1c-0.5-2-1.2-4.1-1.9-6.1 c-0.9-2.4-1.9-4.7-3-6.8c0-0.1-0.1-0.2-0.1-0.3c-3.6-6.7-8.7-11.6-15.8-11.6h-0.2c-4.3,0.1-7.8,1.9-10.8,4.9 c-1.8,1.8-3.3,4-4.7,6.4c-0.3,0.6-0.7,1.2-1,1.9c-1.3,2.7-2.5,5.7-3.4,8.8c-0.3,0.9-0.5,1.8-0.8,2.7c-0.3,1.1-0.6,2.2-0.8,3.2 c0,0.1,0,0.1-0.1,0.2c-0.1,0.5-0.2,1-0.3,1.5l0,0c0,0,0,0.1,0,0.1c-0.3,1.3-0.5,2.5-0.7,3.7c-0.2,1.2-0.5,2.4-0.6,3.6 c-0.2,1.2-0.4,2.4-0.5,3.4c-0.1,0.7-0.2,1.3-0.2,1.9c-0.4,3.8-0.6,6.4-0.6,7.1c0,2.4,12.9,4.8,20.2,5.7c2,0.3,3.6,0.4,4.4,0.5 h0.3c2.1-0.1,9.8-1.1,16.1-2.5c4.7-1.1,8.6-2.4,8.6-3.7c0-0.7-0.1-3.3-0.6-7.1v0c-0.1-0.6-0.1-1.2-0.2-1.9 c-0.1-1.1-0.3-2.2-0.5-3.4c-0.2-1.1-0.4-2.4-0.6-3.6c-0.4-2.2-0.9-4.6-1.5-7c0,0,0-0.1,0-0.1l-0.1,0c0-0.1,0-0.1,0-0.2v0V107.1z" class="st4"/><path d="M180.4,128.4c-2.6,0-20.6-2.4-24.7-5.4c-0.4-0.3-0.5-0.9-0.2-1.3c0.3-0.4,0.9-0.5,1.3-0.2 c3.5,2.5,20.7,5,23.6,5c2.9,0,20.1-2.5,23.6-5c0.4-0.3,1-0.2,1.3,0.2c0.3,0.4,0.2,1-0.2,1.3C201,126,183,128.4,180.4,128.4z" class="st6"/><path d="M213,103.1l-7.6,1.5l-3.2,0.7l-0.5,0.1l-0.5,0.1l-0.1,0l-0.3,0.1l-0.3,0.1l-4.1,0.8l-36.4,7.4 c-0.7-1.1-1.3-2.1-1.8-3.2c0,0,0,0,0-0.1c-0.1-0.2-0.2-0.3-0.2-0.5c-0.1-0.2-0.2-0.4-0.3-0.6c-0.8-1.6-1.4-3.2-2-4.9 c-0.1-0.1-0.1-0.3-0.2-0.5c-0.1-0.1-0.1-0.3-0.1-0.5c-0.8-2.6-1.3-5.2-1.6-7.8c-0.6-6.5,0.8-12.7,4.6-17.4 c4.1-5,11.1-8.3,21.7-8.3c8.2,0,15.7,3,21.5,8c2.3,2,4.3,4.3,6,6.9c0.4,0.5,0.7,1,1,1.6c1.2,2.1,2.2,4.3,2.9,6.7 c0.6,1.9,1,3.8,1.2,5.9C212.9,100.6,213,101.9,213,103.1z" class="st4"/><g><path d="M169.9,80.6l-0.6,5.1l-0.7,6.4l-0.6,5.5l-0.7,6.6l-0.3,2.5c-0.5,0-1-0.1-1.5-0.1c-1.8-0.1-3.7-0.5-5.5-0.9 c-0.2-0.1-0.4-0.1-0.6-0.2c-1.2-0.3-2.4-0.7-3.6-1.2c-0.1,0-0.2-0.1-0.3-0.1c-0.1-0.1-0.3-0.1-0.4-0.2 c-8.9-3.7-16.7-10.9-21.8-19c-1.1-1.8-2-3.2-2.9-5.2c-0.9-2.1-1.7-4.8-2.6-9.4c-0.8-2.8-0.7-5.9-1.1-8.9c0,0,0,0,0-0.1 c0.1-0.5,0.1-1,0-1.5c0-0.3-0.1-0.6-0.3-0.9l2.7-0.9l5.4-1.8l0.8-0.3c0.1,0.3,0.2,0.5,0.3,0.8c0.8,2,2.3,4.3,3,6 c0,0,0,0.1,0,0.1c0,0,0,0,0,0c1.6,3.4,6.7,8.3,9.1,10.9c2,2.2,4.9,3,7.3,3.7c1.2,0.3,2.3,0.6,3.2,0.9 C162.7,79.8,164.9,80.6,169.9,80.6z" class="st4"/><path d="M137.8,52.9c-0.6,1-1.5,1.8-2.3,2.4c0,0-0.1,0.1-0.1,0.1c-0.2,0.4-0.5,0.7-0.8,1.1c-0.5,0.5-1.1,0.9-2,1.2 c-1.6,0.6-2.6,1.1-3.2,1.4c-0.9,0.4-1.5,0.5-2.8,0.1c-0.2-0.2-0.4-0.4-0.5-0.7c-0.9-1.5-1.6-4.4-1.8-5.4 c-0.6-3.3-0.5-10.2,4-11.5c0.1-0.1,0.3-0.1,0.5-0.1c5.2-1,6.1,3.6,6.6,7.2l0,0h0c1.2-1,2.4-1.5,3.2-0.9c0,0,0.1,0.1,0.1,0.1 C139.6,48.4,139.2,50.7,137.8,52.9z" class="st4"/><g><path d="M135.8,57C135.8,57,135.7,57,135.8,57l-6.4,2.1l-2.5,0.8l0,0c-0.1,0-0.2,0-0.3,0c-0.4,0-0.7-0.2-0.9-0.6 c-0.1-0.4,0-0.8,0.3-1c0.1-0.1,0.2-0.1,0.3-0.1l2.6-0.8l6.3-2.1c0.1,0,0.3-0.1,0.4,0c0.4,0,0.7,0.3,0.8,0.6 C136.4,56.4,136.2,56.8,135.8,57z" class="st6"/></g></g><path d="M138.6,47.6c-1.1,0.8-2.3,2-3.1,2.6c-0.3-0.5-0.3-1.1-0.2-1.8h0c1.2-1,2.4-1.5,3.2-0.9 C138.5,47.6,138.6,47.6,138.6,47.6z" class="st7"/><path d="M160.3,102.8c0,1.1-0.1,2-0.2,2.9c-0.3,2.1-1,3.7-1.8,4.8l0,0c0,0,0,0-0.1,0.1c-0.1-0.2-0.2-0.3-0.2-0.5 c-0.1-0.2-0.2-0.4-0.3-0.6c-0.8-1.6-1.4-3.2-2-4.9c-0.1-0.1-0.1-0.3-0.2-0.5c-0.1-0.1-0.3-0.1-0.4-0.2 c-8.9-3.7-16.7-10.9-21.8-19c-1.1-1.8-2-3.2-2.9-5.2c-0.9-2.1-1.7-4.8-2.6-9.4c-0.8-2.8-0.7-5.9-1.1-8.9c0,0,0,0,0-0.1 c0.1-0.5,0.1-1,0-1.5l0,0c-0.1,0-0.2,0-0.3,0c-0.4,0-0.7-0.2-0.9-0.6c-0.1-0.4,0-0.8,0.3-1c-0.9-1.5-1.6-4.4-1.8-5.4 c-0.6-3.3-0.5-10.2,4-11.5c-1.4,6-2.4,11.4,0.7,15.9c0.1,0.2,0.2,0.3,0.3,0.5c0,0.1,0.1,0.2,0.1,0.4c0.1,0.2,0.1,0.5,0.1,0.8 c0,0,0,0.1,0,0.1c0.9,5.6,2.5,19,14.4,29.4c3.9,3.4,7.2,5.7,10.1,7.4c2.5,1.5,4.5,2.6,6.2,3.6 C160.2,100.8,160.3,101.9,160.3,102.8z" class="st7"/><g><path d="M219.9,118.1l-1.6,0.5l-7.4,2.4c0-0.1,0-0.1-0.1-0.2c-0.1-0.2-0.2-0.4-0.3-0.7c-0.9-2-2.3-4.4-3.1-6.1l0,0 c0,0,0-0.1,0-0.1c-0.9-1.9-2.9-4.3-4.9-6.5c0,0-0.1,0-0.1-0.1c-0.3-0.3-0.6-0.7-0.9-1c-0.1-0.1-0.2-0.2-0.3-0.3 c-0.2-0.2-0.4-0.4-0.6-0.6c-0.2-0.2-0.4-0.4-0.5-0.6c0,0,0,0,0,0c-0.7-0.7-1.3-1.4-1.8-1.9c-0.4-0.5-0.9-0.8-1.4-1.1 c-0.6-0.3-1.2-0.5-1.8-0.7c-1.2-0.4-2.3-0.6-3.3-1.3c-0.3-0.2-0.5-0.4-0.7-0.6c-0.8-0.8-1.8-1.5-3.1-2.2 c-0.6-0.3-1.4-0.6-2.2-0.8c-1.5-0.4-3.3-0.7-5.6-0.7V72.1c7.7,0.3,15,3,21.2,7.5c2.3,1.6,4.4,3.5,6.3,5.6 c0.4,0.5,0.9,0.9,1.3,1.4c1.5,1.7,2.8,3.6,4.1,5.5c0.1,0.1,0.2,0.3,0.3,0.4c1,1.6,1.8,2.9,2.6,4.8c0.9,2.1,1.7,4.8,2.6,9.4 c0.8,2.8,0.7,5.9,1.1,8.9c0,0,0,0,0,0.1c-0.1,0.5-0.1,1,0,1.5C219.6,117.6,219.7,117.9,219.9,118.1z" class="st4"/><g><path d="M217.1,133.3c-0.3,0.1-0.6,0.1-0.8,0.1c-5.4,0.7,2.5-5.9-1.4-7.9c-0.1,0-0.1,0-0.2,0 c-1.9,0.4-1.6,6.2-3.7,5.1c-0.1-0.1-0.2-0.1-0.4-0.3c-0.9-0.7-0.6-4.3,0.2-8.5c0.1-0.3,0.1-0.6,0.2-0.9l7.4-2.4l1.6-0.5 c0.2,0.3,0.3,0.5,0.5,0.8C223.8,124.9,222.8,132.1,217.1,133.3z" class="st4"/><g><path d="M220.3,118.9c-0.1,0.1-0.1,0.1-0.2,0.1l-1.4,0.5l-7.5,2.4c-0.1,0-0.2,0-0.3,0c-0.1,0-0.1,0-0.2,0 c-0.1,0-0.1,0-0.2-0.1c-0.2-0.1-0.4-0.3-0.5-0.5c-0.2-0.5,0.1-1,0.5-1.1c0,0,0,0,0.1,0l0.4-0.1l7.1-2.3l1.4-0.4l0,0 c0.5-0.1,1,0.1,1.2,0.6C220.9,118.3,220.7,118.7,220.3,118.9z" class="st6"/></g></g><path d="M213.3,92.6l-1.7,0.9l-1.7,0.9l-2.5,1.4l-3.5-6.4l2-1.1l2.8-1.6l0.3-0.2c1.5,1.7,2.8,3.6,4.1,5.5 C213.1,92.3,213.2,92.5,213.3,92.6z" class="st9"/></g><path d="M214.7,125.6c-1.9,0.4-1.6,6.2-3.7,5.1C211.3,128.3,211.9,123.3,214.7,125.6z" class="st7"/><path d="M217.1,133.3c-0.3,0.1-0.6,0.1-0.8,0.1c1.7-1.4,3.4-3.5,3.6-5.9c0.2-3.7-0.1-6.1-1.1-8 c-0.1-0.3-0.3-0.5-0.5-0.8c0-0.2-0.1-0.5-0.1-0.9c-0.5-3.5-2.6-12.5-5.4-18.3c-0.3-0.6-0.6-1.2-0.9-1.7c-0.5-1-1.2-2-2-3.2 c-1.3-1.9-2.7-4-4.1-6.1c-2.3-3.5-4.3-6.8-4.5-8.8c-0.1-0.5,0-1,0.3-1.3c2.3,2,4.3,4.3,6,6.9c0.4,0.5,0.9,0.9,1.3,1.4 c1.5,1.7,2.8,3.6,4.1,5.5c0.1,0.1,0.2,0.3,0.3,0.4c1,1.6,1.8,2.9,2.6,4.8c0.9,2.1,1.7,4.8,2.6,9.4c0.8,2.8,0.7,5.9,1.1,8.9 c0,0,0,0,0,0.1c-0.1,0.5-0.1,1,0,1.5l0,0c0.5-0.1,1,0.1,1.2,0.6c0.1,0.4,0,0.8-0.4,1C223.8,124.9,222.8,132.1,217.1,133.3z" class="st7"/><g><circle cx="191.1" cy="97.7" r="5.5" class="st9"/><polygon points="183.7 99.9 196.6 92.2 188.8 105.1 188.8 99.9" class="st8"/></g><rect width="10.9" height="5.5" x="163.7" y="92.2" class="st1"/><g><path d="M171,106.8c0,1.5-1.2,2.7-2.7,2.7c-1.5,0-2.7-1.2-2.7-2.7c0-1.5,1.2-2.7,2.7-2.7 C169.8,104,171,105.3,171,106.8z" class="st10"/><path d="M171,115.9c0,1.5-1.2,2.7-2.7,2.7c-1.5,0-2.7-1.2-2.7-2.7c0-1.5,1.2-2.7,2.7-2.7 C169.8,113.2,171,114.4,171,115.9z" class="st10"/></g><path d="M195.5,115.9c0,1.5-1.2,2.7-2.7,2.7c-1.5,0-2.7-1.2-2.7-2.7c0-1.5,1.2-2.7,2.7-2.7 C194.3,113.2,195.5,114.4,195.5,115.9z" class="st10"/><g><path d="M169.4,120.4c-1.5,1.1-3.2,1.6-5.4,1.6c-2,0-4.5-0.4-7.6-1.1c0.1-0.9,0.3-1.9,0.4-2.9 c0-0.2,0.1-0.5,0.1-0.7c6.1,1.4,8.7,1.4,10.2,0.2c0.8-0.6,1.9-0.5,2.6,0.3C170.4,118.6,170.2,119.7,169.4,120.4z" class="st7"/><path d="M204.3,121c-2.9,0.6-5.3,1-7.3,1c-2.2,0-3.9-0.5-5.4-1.6c-0.8-0.6-0.9-1.8-0.3-2.6 c0.6-0.8,1.8-0.9,2.6-0.3c1.5,1.2,4,1.2,9.9-0.1c0,0.2,0.1,0.5,0.1,0.7C204,119.1,204.2,120,204.3,121z" class="st7"/></g><path d="M210.4,114.5c-0.9-2.6-2.7-6.6-5-9.9c-1.7-2.5-3.8-4.5-6.1-5.2c-0.5-0.2-1.1-0.2-1.7-0.2 c-0.3,0.8-0.5,1.8-0.7,2.8c-0.2,1.4-0.4,2.8-0.5,4.5c-0.1,2.7-0.1,5.7-0.1,8.8c0,1.2,0.1,2.4,0.1,3.7c0,1.7,0.1,3.4,0.1,5.1 c0,0.6,0,1.2,0,1.9c0,1.6,0.1,3.1,0.1,4.7c0,1.2,0,2.4-0.1,3.5c0,0.3,0,0.7,0,1c-0.3,7.1-0.5,20.6-3.2,32.8 c-0.1,0.3-0.1,0.6-0.2,0.9c-0.1,0.3-0.1,0.6-0.2,0.9c-1.1,4.6-2.6,9-4.7,12.6c0,0,0,0,0,0c0.2,0.2,0.4,0.4,0.6,0.6 c0.1,0.1,0.2,0.1,0.3,0.2c0,0,0,0,0,0c0,0,0,0,0,0c0.1,0.1,0.3,0.1,0.4,0.1h0.1c0,0,0,0,0,0h0c0,0,0,0,0,0c0.1,0,0.2,0,0.3,0 c0.2,0,0.4-0.1,0.6-0.2c0.2-0.1,0.4-0.2,0.6-0.3c0.2-0.1,0.4-0.2,0.6-0.4c0.2-0.1,0.4-0.3,0.5-0.4c0,0,0.1-0.1,0.1-0.1 c0.2-0.2,0.4-0.4,0.6-0.6c0.2-0.2,0.3-0.4,0.5-0.6c0-0.1,0.1-0.1,0.1-0.1c0.2-0.2,0.4-0.5,0.5-0.7c0.2-0.2,0.3-0.5,0.5-0.7 c0,0,0-0.1,0.1-0.1c0.3-0.6,0.7-1.2,1-1.8c0.1-0.2,0.2-0.5,0.3-0.7c0.1-0.3,0.2-0.5,0.3-0.7c0.1-0.3,0.2-0.5,0.3-0.8 c0.1-0.3,0.2-0.5,0.3-0.8c0.3-0.8,0.7-1.7,1-2.6c0.1-0.4,0.3-0.7,0.4-1.1c0,0,0.1,0,0.1,0c0.5,0.1,1-0.2,1.1-0.7 c0.1-0.5-0.2-0.9-0.6-1.1c3.7-12.2,5.9-29,5.9-38.2c0-0.7-0.1-3.3-0.6-7.1v0c0.1-0.1,0.3-0.2,0.4-0.3c0.4-0.3,0.5-0.9,0.2-1.3 c-0.2-0.3-0.5-0.4-0.8-0.3c-0.1-1.1-0.3-2.2-0.5-3.4c-0.2-1.1-0.4-2.4-0.6-3.6c-0.4-2.2-0.9-4.6-1.5-7c0,0,0-0.1,0-0.1l-0.1,0 c0-0.1,0-0.1,0-0.2v-0.1c-0.1-0.3-0.1-0.5-0.2-0.8c0.1,0.1,0.2,0.2,0.3,0.3c0.3,0.3,0.6,0.6,0.9,1c0,0,0,0,0.1,0.1 c2,2.2,3.9,4.5,4.9,6.5c0,0,0,0.1,0,0.1l0,0c0.8,1.7,2.2,4.1,3.1,6.1c-0.5,0.1-0.7,0.6-0.5,1.1c0.1,0.3,0.3,0.4,0.5,0.5 c0.1-0.3,0.2-0.6,0.3-1c0.1-0.3,0.1-0.5,0.2-0.8C211.3,118.7,211.2,116.9,210.4,114.5z" class="st7"/><path d="M164,119c-2.2,0-5-0.5-8.5-1.3c-1-0.2-1.6-1.2-1.4-2.2c0.2-1,1.2-1.6,2.2-1.4c6.6,1.5,9.3,1.6,10.9,0.3 c0.8-0.6,1.9-0.5,2.6,0.3c0.6,0.8,0.5,1.9-0.3,2.6C167.9,118.5,166.2,119,164,119z" class="st1"/><path d="M197.1,119c-2.2,0-3.9-0.5-5.4-1.6c-0.8-0.6-0.9-1.8-0.3-2.6c0.6-0.8,1.8-0.9,2.6-0.3 c1.6,1.3,4.3,1.2,10.9-0.3c1-0.2,2,0.4,2.2,1.4c0.2,1-0.4,2-1.4,2.2C202,118.5,199.3,119,197.1,119z" class="st1"/><path d="M169.4,115.8c-1.5,1.2-3.2,1.6-5.4,1.6c-2.2,0-5-0.5-8.5-1.3c-0.6-0.1-1-0.5-1.2-1 c-0.1,0.1-0.1,0.2-0.2,0.3c-0.2,1,0.4,2,1.4,2.2c3.5,0.8,6.3,1.3,8.5,1.3c2.2,0,3.9-0.5,5.4-1.6c0.7-0.5,0.8-1.4,0.5-2.2 C169.8,115.4,169.7,115.7,169.4,115.8z M207,115.5c0-0.1-0.1-0.2-0.2-0.3c-0.2,0.5-0.7,0.9-1.2,1c-3.5,0.8-6.3,1.3-8.5,1.3 c-2.2,0-3.9-0.5-5.4-1.6c-0.2-0.2-0.4-0.4-0.5-0.7c-0.3,0.7-0.2,1.6,0.5,2.2c1.5,1.2,3.2,1.6,5.4,1.6c2.2,0,5-0.5,8.5-1.3 C206.6,117.5,207.2,116.5,207,115.5z" class="st7"/><g class="st21"><path d="M157.4,102.1c0,0-0.5,0.8-1.1,1.5c-0.1,0.3-0.3,0.5-0.4,0.7c-0.1,0.1-0.1,0.2-0.2,0.3 c-0.1-0.1-0.1-0.3-0.2-0.5c-0.1-0.1-0.3-0.1-0.4-0.2c0.1-0.1,0.2-0.2,0.3-0.3c0.1-0.2,0.3-0.3,0.4-0.5 C156.6,102.6,157.4,102.1,157.4,102.1z" class="st10"/><path d="M158.9,108.7c-0.1,0-0.2,0.1-0.3,0.3c-0.2,0.2-0.4,0.5-0.5,0.8c0,0.1-0.1,0.2-0.1,0.3 c-0.1-0.2-0.2-0.4-0.3-0.6c0.3-0.3,0.5-0.5,0.8-0.6c0.1,0,0.1-0.1,0.2-0.1C158.8,108.7,158.9,108.7,158.9,108.7z" class="st10"/><path d="M202.6,107.5L202.6,107.5c-0.3-0.3-0.7-0.7-0.9-1c0-0.1,0-0.3,0-0.5c0-0.2,0-0.4,0-0.5v-0.1 c0-0.9-0.2-1.7-0.3-1.9c0.1,0.1,0.6,0.8,0.8,1.8c0,0,0,0.1,0,0.1c0.2,0.6,0.3,1.3,0.3,1.7C202.6,107.3,202.6,107.5,202.6,107.5 z" class="st10"/><path d="M201.6,107.2c-0.1-0.3-0.4-0.7-0.7-1.1c-0.1-0.1-0.2-0.3-0.3-0.4c-0.5-0.6-1.1-1-1.2-1.1 c0.1,0,0.5,0.2,0.9,0.4c0,0,0,0,0,0c0.3,0.1,0.5,0.3,0.8,0.5c0.1,0,0.1,0.1,0.2,0.1l0,0c0.1,0.1,0.3,0.2,0.5,0.4 c0.3,0.2,0.5,0.5,0.7,0.7c0.1,0.1,0.1,0.2,0.2,0.3c0,0.1,0.1,0.2,0.1,0.4v0.1c0,0-0.1,0-0.1-0.1c-0.3-0.3-0.6-0.7-0.9-1 c-0.1-0.1-0.2-0.2-0.3-0.3c0.1,0.3,0.1,0.5,0.2,0.8V107.2z" class="st10"/></g></g><g><path d="M180.2,83.1c-9.8,0-16.6-1.3-21.4-4c-0.9-0.5-1.2-1.6-0.7-2.5c0.5-0.9,1.6-1.2,2.5-0.7 c4.3,2.4,10.5,3.5,19.7,3.5c9.1,0,15.4-1.1,19.7-3.5c0.9-0.5,2-0.2,2.5,0.7c0.5,0.9,0.2,2-0.7,2.5 C196.7,81.8,189.9,83.1,180.2,83.1z" class="st5"/><g><path d="M156.4,52.8c0,3.6-2.5,6.6-5.5,6.6l0,0c-3,0-5.5-2.9-5.5-6.6V44c0-3.6,2.5-6.6,5.5-6.6l0,0 c3,0,5.5,2.9,5.5,6.6V52.8z" class="st3"/><path d="M214.8,52.8c0,3.6-2.5,6.6-5.5,6.6l0,0c-3,0-5.5-2.9-5.5-6.6V44c0-3.6,2.5-6.6,5.5-6.6l0,0 c3,0,5.5,2.9,5.5,6.6V52.8z" class="st3"/><path d="M211.2,50.2c0,23.7-7.3,31-31,31c-23.7,0-31-7.3-31-31c0-21.9,13.9-34.7,31-34.7 C197.3,15.6,211.2,28.3,211.2,50.2z" class="st4"/><path d="M189.2,16.8c8.8,5.5,14.6,15.9,14.6,30.1c0,23.7-7.3,31-31,31c-6,0-11-0.5-15.1-1.6 c4.9,3.5,12.1,4.9,22.4,4.9c23.7,0,31-7.3,31-31C211.2,32.4,201.9,20.6,189.2,16.8z" class="st7"/><path d="M180.2,77.6c-18.1,0-27.3-9.2-27.3-27.3c0-14.6,9.2-22,27.3-22c18.1,0,27.3,7.4,27.3,22 C207.4,69.2,199,77.6,180.2,77.6z" class="st5"/><path d="M180.2,75.8c-17.1,0-25.4-8.3-25.4-25.4c0-13.6,8.3-20.2,25.4-20.2c17.1,0,25.4,6.6,25.4,20.2 C205.6,68.4,198.2,75.8,180.2,75.8z" class="st11"/><path d="M163.7,59.3c0,2.9,0.3,5.7,0.9,8.4c-2.9-4.5-4.6-9.9-4.6-15.7c0-8,3.2-15.3,8.4-20.5 c2.5-0.7,5.4-1.1,8.7-1.3C169,37.2,163.7,47.7,163.7,59.3z" class="st12"/></g></g></g></g></g></svg>