<?xml version="1.0" encoding="UTF-8"?><svg version="1.1" xmlns="http://www.w3.org/2000/svg" xmlns:xlink="http://www.w3.org/1999/xlink" viewBox="0 0 800 800" width="800" height="800" x="0px" y="0px">
    
    
    <!-- ITEM 0 -->
    <g>
        <defs>
            <clipPath id="clip-path-id-viewbox-item-0">
                <rect x="0.0" y="0.0" width="709.746" height="778.675"/>
            </clipPath>
        </defs>
        <g transform="translate(46.0 11.0) rotate(0.0 354.0 388.0) scale(0.9975399650015639 0.9965646771759721)">
            <g clip-path="url(#clip-path-id-viewbox-item-0)" transform="translate(-0.0 -0.0)">
                
  
  <g>
    <path d="M703.316,645.138c-8.208,25.094-27.356,46.261-54.259,63.743-138.312,89.968-481.766,82.988-598.394,15.124-20.2-11.73-33.577-25.3-37.939-40.508C4.16,653.67,29.657,615.214,20.189,515.761,17.119,483.7,12.465,466.56,9.04,447.7a373.509,373.509,0,0,1-5.074-41.122c-9.323-135.323,51.4-278,132.108-362.941,11.569-12.167,45.21-47.391,59.251-39.506,14.494,8.143,1.907,58.7-12.571,103.96,6.738-1.082,14.461-2.149,22.977-3.118q13.936-1.577,26.9-2.3c93.635-5.4,150.8,19.18,194.51,21.1,18.452.824,34.513-2.392,49.895-13.621,13.347-9.744,57.975-48.7,82.665-71.645,4.928-4.573,17.466-16.336,26.224-12.684,3.506,1.47,5.607,5.074,6.916,8.952a48.55,48.55,0,0,1,2,9.9c6.189,54.824-12.037,137.456-12.037,137.456C571,229.409,590.452,257.993,624.643,350.3,686.657,517.636,717.648,601.3,703.316,645.138Z" style="         fill: #f9c898;       "/>
    <path d="M187.239,108.428c-26.5,6.867-30.733,10.212-33.884,7.5-11.94-10.276,20-83.876,46.552-101.44C207.986,28.753,198.565,70.214,187.239,108.428Z" style="         fill: #e6790d;                opacity: 0.56;       "/>
    <path d="M50.663,724.005c-20.2-11.73-33.577-25.3-37.939-40.508C4.16,653.67,29.657,615.214,20.189,515.761,17.119,483.7,12.465,466.56,9.04,447.7a373.509,373.509,0,0,1-5.074-41.122c15.285,52.158,35.58,89.709,52.966,115.9,14.187,21.377,22.3,28.955,28.81,48.684C103.952,626.25,84.223,698.734,50.663,724.005Z" style="         fill: #e6790d;                opacity: 0.56;       "/>
    <path d="M703.316,645.138c-8.208,25.094-27.356,46.261-54.259,63.743-60.479-55.68-79.028-105.9-84.312-142.755-13.072-91.309,52.174-121.524,29.278-209.812-19.179-74.019-81.549-116.45-62.079-178.077,2.925-9.259,4.605-9.194,14.235-29.02A460.729,460.729,0,0,0,585.928,25.835q3.006,3.83,6.916,8.952a48.55,48.55,0,0,1,2,9.9c6.189,54.824-12.037,137.456-12.037,137.456C571,229.409,590.452,257.993,624.643,350.3,686.657,517.636,717.648,601.3,703.316,645.138Z" style="         fill: #e6790d;                opacity: 0.56;       "/>
    <ellipse cx="114.41" cy="413.158" rx="41.475" ry="32.228" style="         fill: #fff;       "/>
    <ellipse cx="461.16" cy="420.962" rx="48.902" ry="34.442" style="         fill: #fff;       "/>
    <path d="M236.426,423.439c3.583-4.9,15.449,4.061,40.35,1.441,20.208-2.126,27.48-9.618,31.7-5.764,8.166,7.453-3.851,49.33-27.38,53.319C255.013,476.857,230.089,432.114,236.426,423.439Z" style="         fill: #e6790d;                opacity: 0.56;       "/>
    <path d="M628.271,362.1c-27.017,98.153-67.04,135.1-101.486,149.341-23.167,9.58-56.735,14.238-59.406,31.353-2.532,16.223,24.383,32.829,31.353,37.129,63.86,39.4,159.713,3.988,199.672-13.2Q663.337,464.405,628.271,362.1Z" style="         fill: #b14317;       "/>
    <path d="M19.164,506.124c10.134,13.1,25.88,29,48.872,37.353,32.208,11.694,57.685.945,62.707,11.688s-14.883,33.363-36.029,44.418C62.8,616.265,29.393,605.9,19.96,602.614a425.387,425.387,0,0,0,2.361-45.391A425.388,425.388,0,0,0,19.164,506.124Z" style="         fill: #b14317;       "/>
    <path d="M706.4,629.424c-57.669,22.137-104.632,26.737-137.806,26.54-35.19-.21-63.158-5.867-69.307,6.6-6.716,13.615,17.014,39.875,36.3,52.8,5.141,3.446,34.12,22.137,70.408,14.852,15.009-3.013,24.361-9.122,43.063-21.341,18.636-12.174,36.908-24.429,48.247-47.417A93.806,93.806,0,0,0,706.4,629.424Z" style="         fill: #b14317;       "/>
    <path d="M11.93,662.014c12.65,3.375,30.973,6.216,51.156,1.1,24.752-6.274,34.624-20.036,43.454-15.127,10.976,6.1,10.678,35.671-2.2,55.556-1.309,2.021-17.282,25.9-41.254,24.478C49,727.185,39.33,718.037,29.924,709.138c-6.133-5.8-13.8-13.245-17.2-25.641A48.079,48.079,0,0,1,11.93,662.014Z" style="         fill: #b14317;       "/>
    <path d="M457.57,148.163c8.064,8.062,1.559,21.85-9.773,20.582-24.554-2.749-59.42-.853-93.041,21.223-54.388,35.709-61.384,95.283-62.16,103.088q-26.031-1.285-52.045-2.537c1.422-5.72,11.634-49.7-16.982-86.526-17.243-22.2-43.685-35.479-72.208-37.528-11.247-.807-15.482-15.16-6.356-21.782a267.557,267.557,0,0,1,79.388-39.706c1.438-.436,4.25-1.26,8.241-2.3,93.635-5.4,150.8,19.18,194.51,21.1a176.1,176.1,0,0,1,18.371,13.379C449.907,140.816,453.917,144.511,457.57,148.163Z" style="         fill: #fff;                opacity: 0.66;       "/>
    <path d="M306.935,161.148c3.942,23.16,6.212,65.5-15.17,131.045L239.9,287.214a616.476,616.476,0,0,1,7.938-64.77c5.253-29.684,10.637-47.282,20.287-64.75,5.467-9.9,15.784-28.575,24.948-27C301.835,132.207,305.293,151.5,306.935,161.148Z" style="         fill: #b14317;       "/>
    <path d="M223.266,301.6c-18.978,50.147-90.842,75.257-141.986,51.636-4.1-1.894-43.264-20.729-51.156-61.056C20.208,241.5,64.649,182.367,121.44,177.381c40-3.512,80.964,20.289,97.905,57.589C223.53,244.185,234.4,272.175,223.266,301.6Z" style="         fill: #e6790d;       "/>
    <path d="M401.2,186.528c6.373-2.058,52.606-16.165,92.124,11.353,37.619,26.2,58.166,82.46,35.2,124.314-24.613,44.863-83.8,45.077-91.31,45.105-6.872.024-75.649-.812-99.01-53.906-13.9-31.6-5.328-67.18,11.551-90.76C367.551,197.785,392.317,189.4,401.2,186.528Z" style="         fill: #e6790d;       "/>
    <path d="M124.553,343.937c-35.644.97-71.16-24.527-77.138-62.838a71.792,71.792,0,0,1,4.411-38.036c8.547-21.264,26.564-38.02,47.456-44.6,41.542-13.056,90.905,15.237,99.032,57.862a63.217,63.217,0,0,1,.905,6.35C202.952,303.8,167.291,342.79,124.553,343.937Z" style="         fill: #fff;       "/>
    <path d="M448.408,350.95c-41.349,5.881-85.331-23.93-88.708-67.654a68.391,68.391,0,0,1,2.2-23.219c8.741-32.3,40.249-56.424,74.133-57.231,37.631-.889,75.3,27.08,79.077,67.314.048.533.1,1.05.129,1.583C518.129,312.3,485.312,345.715,448.408,350.95Z" style="         fill: #fff;       "/>
    <path d="M89.054,652.3c-6.286,30.862-20.343,58.1-38.391,71.709A120.542,120.542,0,0,1,29.932,709.14c-.065-.065-.129-.113-.194-.178-1.2-1.066-2.311-2.165-3.377-3.28-.21-.21-.42-.42-.614-.63-6-6.334-10.276-13.039-12.587-20.133-.162-.468-.307-.937-.436-1.422a48.118,48.118,0,0,1-.792-21.49c12.652,3.377,30.975,6.221,51.156,1.115C74.415,660.246,82.639,655.8,89.054,652.3Z" style="         fill: #262625;         opacity: 0.26;       "/>
    <path d="M19.284,507.133c-.033-.339-.065-.679-.113-1,10.131,13.088,25.869,29,48.861,37.341,1.519.55,3.038,1.067,4.541,1.519a97.491,97.491,0,0,1,13.169,26.176A136.7,136.7,0,0,1,91.9,600.979c-31.04,14.687-62.774,4.831-71.936,1.632a388.237,388.237,0,0,0,2.36-44.968v-.42c0-1.842-.017-3.652-.049-5.462-.21-11.019-.856-22.993-2.084-36-.21-2.1-.4-4.12-.614-6.091C19.478,508.813,19.381,507.973,19.284,507.133Z" style="         fill: #262625;         opacity: 0.26;       "/>
    <path d="M698.4,566.724C672.147,578,621.767,597.165,572.178,597.812a186.354,186.354,0,0,1-7.433-31.686c-5.865-40.929,4.023-69.577,14.639-96.69,18.032-23.316,35.144-57.409,48.894-107.337Q663.326,464.4,698.4,566.724Z" style="         fill: #262625;         opacity: 0.26;       "/>
    <path d="M706.386,629.416c0,.1-.016.178-.016.275a1.518,1.518,0,0,1-.033.275c-.032.307-.064.63-.1.953-.065.517-.13,1.051-.211,1.584-.064.581-.145,1.163-.242,1.761-.259,1.842-.549,3.635-.953,5.348a4.1,4.1,0,0,0-.113.485q-.606,2.594-1.406,5.041c-7.95,24.3-26.176,44.936-51.754,62.1-.84.549-1.664,1.1-2.5,1.647-20.456-18.824-36.1-37.018-48.07-54.29C630.007,651.989,665.506,645.122,706.386,629.416Z" style="         fill: #262625;         opacity: 0.26;       "/>
    <path d="M698.4,566.724C672.147,578,621.767,597.165,572.178,597.812a186.354,186.354,0,0,1-7.433-31.686c-5.865-40.929,4.023-69.577,14.639-96.69,18.032-23.316,35.144-57.409,48.894-107.337Q663.326,464.4,698.4,566.724Z" style="         fill: #262625;         opacity: 0.26;       "/>
    <path d="M91.9,600.979c-31.04,14.687-62.774,4.831-71.936,1.632a427.5,427.5,0,0,0,2.36-44.968v-.42c0-1.842-.017-3.652-.049-5.462a419.353,419.353,0,0,0-2.7-42.091c-.1-.857-.194-1.7-.291-2.537-.033-.339-.065-.679-.113-1,10.131,13.088,25.869,29,48.861,37.341,1.519.55,3.038,1.067,4.541,1.519a97.491,97.491,0,0,1,13.169,26.176A136.7,136.7,0,0,1,91.9,600.979Z" style="         fill: #262625;         opacity: 0.26;       "/>
    <path d="M706.4,629.416c-.016.1-.016.178-.032.275a1.518,1.518,0,0,1-.033.275c-.032.307-.064.63-.1.953-.065.517-.13,1.051-.211,1.584-.064.581-.145,1.163-.242,1.761-.259,1.664-.565,3.458-.953,5.348a4.1,4.1,0,0,0-.113.485,92.6,92.6,0,0,1-7.417,21.361c-10.842,21.959-27.985,34.142-45.743,45.776-.84.549-1.664,1.1-2.5,1.647-20.456-18.824-36.1-37.018-48.07-54.29,29.02-2.6,64.519-9.469,105.4-25.175Z" style="         fill: #262625;         opacity: 0.26;       "/>
    <path d="M89.054,652.3c-6.286,30.862-20.343,58.1-38.391,71.709A120.542,120.542,0,0,1,29.932,709.14c-.065-.065-.129-.113-.194-.178-1.1-1.034-2.23-2.132-3.377-3.28-.21-.21-.42-.42-.614-.63-4.864-4.96-9.856-11.213-12.587-20.133-.162-.468-.307-.937-.436-1.422a48.118,48.118,0,0,1-.792-21.49c12.652,3.377,30.975,6.221,51.156,1.115C74.415,660.246,82.639,655.8,89.054,652.3Z" style="         fill: #262625;         opacity: 0.26;       "/>
    <path d="M124.553,343.937c-35.644.97-71.16-24.527-77.138-62.838a71.792,71.792,0,0,1,4.411-38.036c.016-.016.016-.032.032-.048-.482,3.97-4.283,40.138,21.816,63.593,16.846,15.138,37.058,16.811,44.561,17.326,6.646.456,25.4,1.522,43.724-9.485,31.847-19.131,34.82-56.844,35.063-60.641.452.84.888,1.68,1.292,2.521a63.217,63.217,0,0,1,.905,6.35C202.952,303.8,167.291,342.79,124.553,343.937Z" style="         fill: #dcdcdc;       "/>
    <path d="M448.408,350.95c-41.349,5.881-85.331-23.93-88.708-67.654a68.391,68.391,0,0,1,2.2-23.219c1.082-2.747,2.31-5.445,3.651-8.127-.145,4.1-.888,41.106,29.3,65.181,2.02,1.616,34.966,27,71.774,13.2,24.883-9.339,35.773-30.667,37.131-33.414a68.152,68.152,0,0,0,6.608-35.484c1.745,2.86,3.329,5.785,4.751,8.726.048.533.1,1.05.129,1.583C518.129,312.3,485.312,345.715,448.408,350.95Z" style="         fill: #dcdcdc;       "/>
    <path d="M332.815,778.675q-9.813,0-19.675-.181C238,777.114,166.786,767.777,112.629,752.2c-59.413-17.086-94.96-40.556-102.795-67.873C6.067,671.2,8.49,656.945,11.843,637.22c4.571-26.883,10.83-63.7,5.353-121.167a464.537,464.537,0,0,0-8.269-53.316c-1-4.957-1.955-9.639-2.836-14.5C-6.5,378.7.516,301.442,26.392,224.8,50.056,154.705,88.238,89.634,133.9,41.573c21.715-22.856,48.484-48.06,62.884-40.058,8.2,4.56,10.192,18.735,6.078,43.336-2.608,15.6-7.678,35.427-15.069,58.939a3.04,3.04,0,0,1-.223.53c5.93-.881,11.88-1.66,17.815-2.33,75.363-8.519,128.343,2.219,170.912,10.848,43.349,8.785,71.99,14.591,98.971-5.094,13.29-9.7,57.683-48.456,82.393-71.421l.122-.113c5.635-5.238,18.834-17.507,29.3-13.141,8.752,3.652,10.251,16.924,10.744,21.285,3.231,28.632-.233,64.767-3.708,90.038-1.962,14.272-4.134,26.663-5.611,34.546-1.7,9.056-2.394,12.475-2.827,13.934l.038.009c-9.078,36.312.705,61.121,22.139,115.477,5.791,14.683,12.353,31.326,19.6,50.895,62.166,167.77,93.369,251.98,78.706,296.815-14.583,44.6-64.459,80.513-144.235,103.872C498.211,768.6,417.488,778.673,332.815,778.675ZM190.411,5.947c-7.292,0-22.111,8.132-52.158,39.756-80.49,84.716-154.333,246.48-126.26,401.46.871,4.8,1.815,9.456,2.814,14.382a469.773,469.773,0,0,1,8.361,53.938c5.552,58.257-.784,95.528-5.411,122.743-3.22,18.943-5.546,32.63-2.156,44.45,7.236,25.227,41.361,47.275,98.686,63.761,53.667,15.434,124.327,24.688,198.963,26.058,170.858,3.158,356.811-35.314,387.216-128.291,14.012-42.848-16.949-126.4-78.631-292.866-7.229-19.511-13.779-36.123-19.559-50.779-21.254-53.9-31.922-80.955-22.378-119.132.163-.744,18.056-82.433,11.967-136.4-1.059-9.374-3.446-14.9-7.093-16.422-6.91-2.882-18.945,8.319-22.9,12l-.122.113c-24.823,23.071-69.5,62.068-82.942,71.873-29.115,21.245-60.4,14.9-103.7,6.127-42.155-8.545-94.619-19.179-169.046-10.766-13.491,1.524-27.052,3.611-40.3,6.2a3,3,0,0,1-1.151-5.888q9.042-1.766,18.237-3.219a3,3,0,0,1-.771-3.052c24.584-78.209,16.441-92.653,11.8-95.233A7.008,7.008,0,0,0,190.411,5.947Z" style="         fill: #9f5517;       "/>
    <path d="M121.032,347.1a76.535,76.535,0,0,1-45.2-14.389c-16.893-12.338-28.166-32.019-30.924-54-2.749-21.894,3.21-43.575,16.348-59.485,24.226-29.34,64.007-31.535,90.717-21.157h0c8.013,3.114,34.969,15.6,45.405,45.467,10.458,29.932-.192,65.284-25.9,85.967A80.637,80.637,0,0,1,121.032,347.1Zm.405-148.564c-20.125,0-41.327,7.284-55.554,24.513-12.09,14.64-17.564,34.657-15.021,54.918,2.554,20.345,12.946,38.533,28.511,49.9,25.69,18.761,62.846,17.485,88.347-3.034,23.766-19.12,33.634-51.736,24-79.314-9.589-27.45-34.506-38.975-41.914-41.854A79.082,79.082,0,0,0,121.437,198.533Z"/>
    <path d="M435.675,354.644a75.435,75.435,0,0,1-26.651-4.835h0c-29.867-11.187-49.326-37.646-50.784-69.052-1.448-31.167,15.328-59.092,43.78-72.878a78.886,78.886,0,0,1,33.442-7.983,83.248,83.248,0,0,1,60.608,25.516C511.146,240.95,518.943,260.69,518.026,281c-.92,20.385-10.664,39.35-27.434,53.4A86.747,86.747,0,0,1,435.675,354.644Zm-24.546-10.453a70.107,70.107,0,0,0,15.414,3.861c20.78,2.739,43.281-4.087,60.2-18.257,15.467-12.957,24.451-30.384,25.294-49.071.842-18.636-6.356-36.8-20.269-51.135-14.912-15.369-35.411-24.042-56.212-23.694a72.936,72.936,0,0,0-30.916,7.383c-26.256,12.721-41.738,38.471-40.4,67.2,1.345,28.968,19.315,53.381,46.9,63.712Z"/>
    <path d="M292.59,294.5l-.148,0L240.4,291.96a3,3,0,0,1-2.751-3.777c3.677-13.635,7.935-40.354-4.857-66.1a82.187,82.187,0,0,0-9.748-15.13,3,3,0,1,1,4.66-3.777,88.126,88.126,0,0,1,10.46,16.238c12.615,25.39,9.762,51.5,6.184,66.735l45.473,2.214c1.594-17.923,8.072-49.233,32.484-76.814,2.194-2.478,4.507-4.894,6.875-7.181a3,3,0,0,1,4.167,4.317c-2.256,2.178-4.46,4.479-6.55,6.841-24.625,27.82-30.129,59.665-31.218,76.172A3,3,0,0,1,292.59,294.5Z" style="         fill: #623310;       "/>
    <ellipse cx="72.934" cy="262.627" rx="12.595" ry="15.59"/>
    <ellipse cx="483.628" cy="274.195" rx="12.595" ry="15.59"/>
    <path d="M247.621,108.3c4.115-7.6-4.111-22.889-15.7-28.679-21.785-10.886-49.969,14.558-54.571,18.72-15.436,13.96-25.645,33.471-21.924,37.1,3.9,3.806,17.456-13.07,46.429-20.012C227.833,109.206,243.172,116.509,247.621,108.3Z" style="         fill: #b14317;       "/>
    <path d="M156.76,139.031a4.709,4.709,0,0,1-3.426-1.443,6.158,6.158,0,0,1-1.67-4.732c.161-8.455,11-25.281,23.678-36.743,10.3-9.319,36.574-29.845,57.923-19.178a36.493,36.493,0,0,1,17.384,20.382c1.524,4.834,1.388,9.124-.391,12.409h0c-3.224,5.952-9.837,5.923-18.982,5.876-7.538-.032-16.927-.081-28.719,2.744-16.114,3.86-27.356,10.91-34.8,15.574C163.143,136.816,159.611,139.03,156.76,139.031Zm63.3-59.12c-15.86,0-33.051,13.736-40.7,20.652-14.205,12.846-21.685,27.949-21.75,32.252a54.416,54.416,0,0,0,6.958-3.978c7.771-4.872,19.515-12.236,36.586-16.325,12.5-2.994,22.7-2.939,30.145-2.909,8.219.042,12.23-.061,13.679-2.735h0c.972-1.8.952-4.547-.057-7.747A30.554,30.554,0,0,0,230.583,82.3,23.254,23.254,0,0,0,220.062,79.911Z" style="         fill: #61320f;       "/>
    <path d="M361.519,125.406c-2.687-7.319,9-20.539,22.02-25.23,24.041-8.662,48.494,13.223,54.57,18.719,15.437,13.96,25.645,33.471,21.925,37.1-3.93,3.836-17.309-11.408-46.429-20.012C383.4,127.063,364.566,133.707,361.519,125.406Z" style="         fill: #b14317;       "/>
    <path d="M458.53,159.651c-2.975,0-6.757-2.243-11.959-5.328-7.318-4.34-18.379-10.9-33.817-15.46-14.336-4.236-26.149-4.888-34.776-5.363-9.885-.546-17.028-.939-19.275-7.061h0c-1.01-2.753-.666-6.09,1-9.65,3.7-7.936,13.088-15.927,22.825-19.436,11.82-4.257,31.411-4.365,57.6,19.317,12.674,11.462,23.517,28.288,23.678,36.744a6.163,6.163,0,0,1-1.67,4.73A4.936,4.936,0,0,1,458.53,159.651Zm-63.3-58.488A31.267,31.267,0,0,0,384.556,103c-8.088,2.914-16.438,9.934-19.422,16.327-.957,2.052-1.241,3.844-.8,5.048h0c.845,2.3,5.616,2.676,13.974,3.137,8.921.492,21.138,1.166,36.146,5.6,16.154,4.773,27.6,11.561,35.177,16.053,3.115,1.848,6.594,3.912,8.213,4.357.112-4.095-7.376-19.4-21.747-32.4C421.5,107.919,407.585,101.163,395.234,101.163Z" style="         fill: #61320f;       "/>
    <path d="M285.57,359.4a2.985,2.985,0,0,1-1.973-.741,67.1,67.1,0,0,1-21.225-35.525,66.011,66.011,0,0,1,.815-31.451,3,3,0,1,1,5.788,1.575,59.989,59.989,0,0,0-.746,28.58,61.03,61.03,0,0,0,19.318,32.305,3,3,0,0,1-1.977,5.257Z" style="         fill: #623310;       "/>
    <path d="M247.367,360.182a3,3,0,0,1-2.662-4.377l17.931-34.694a3,3,0,1,1,5.33,2.755L250.034,358.56A3,3,0,0,1,247.367,360.182Z" style="         fill: #623310;       "/>
  </g>

            </g>
        </g>
    </g>
    
</svg>