<svg xmlns="http://www.w3.org/2000/svg" xmlns:xlink="http://www.w3.org/1999/xlink" x="0" y="0" version="1.1" viewBox="0 0 310.4 234.1" style="enable-background:new 0 0 310.4 234.1" xml:space="preserve"><style type="text/css">.st0{fill:#b0bec5}.st1{fill:#78909c}.st2{fill:#546e7a}.st3{fill:#90a4ae}.st4{fill:#cfd8dc}.st5{fill:#263238}.st6{fill:#e64a19}.st7{opacity:.2;fill:#212121}.st8{fill:#d84315}.st9{fill:#1a237e}.st10{fill:#212121}.st11{fill:#000014}.st12{fill:#eee}.st13{fill:#0d47a1}.st14{opacity:.2;fill:#eee}.st15{fill:#f9a825}.st16{opacity:.1;fill:#212121}.st17{fill:#c62828}.st18{fill:#37474f}.st19{fill:#ff8f00}</style><g id="Ñëîé_2"><g><g><path d="M192.9,86.5c0,0,0.4,0.7,1.2,2.1c0.8,1.4,2,3.4,3.4,6c1.4,2.6,3,5.9,4.6,9.7c1.6,3.9,3.2,8.4,4.1,13.5 c1,5.1,1.2,11-0.1,17c-0.4,1.5-0.7,3-1.3,4.5c-0.3,0.7-0.6,1.5-0.8,2.2c-0.3,0.7-0.7,1.4-1.1,2.1c-0.4,0.7-0.7,1.4-1.2,2.2 c-0.5,0.7-1,1.4-1.5,2.1l-1.9,1.9c-0.7,0.6-1.4,1.1-2.2,1.6c-3.1,2-6.7,2.9-10.3,2.9c-3.6,0.1-7.2-0.7-10.5-2.2 c-1.7-0.8-3.3-1.7-4.8-2.9c-1.5-1.2-2.8-2.8-3.8-4.6c-0.9-1.9-1.4-4.2-0.9-6.5c0.5-2.3,1.8-4.3,3.7-5.6c1.9-1.3,4.3-1.9,6.6-1.7 c0.6,0.1,1.1,0.2,1.7,0.4c0.5,0.2,1.1,0.4,1.6,0.6c0.8,0.5,1.7,0.9,2.5,1.5c1.6,1.2,3,2.6,4.1,4.3c1.1,1.7,1.8,3.6,2.2,5.4 c0.9,3.8,0.4,7.6-0.6,11.1c-1,3.5-2.7,6.6-4.7,9.4c-4.1,5.6-9.8,9.6-15.8,11.6c-1.5,0.5-3,0.9-4.5,1.1c-0.7,0.1-1.5,0.3-2.2,0.4 c-0.7,0.1-1.5,0.1-2.2,0.2c-0.7,0.1-1.5,0.1-2.2,0.2c-0.7,0-1.5-0.1-2.2-0.1c-1.4,0-2.8-0.3-4.2-0.5c-5.5-0.9-10.2-3.4-13.7-6 c-3.6-2.6-6.3-5.2-8.4-7.3c-2-2.1-3.7-3.7-4.8-4.9c-1.1-1-1.6-1.6-1.6-1.6l4.5-4.9c0,0,0.6,0.6,1.8,1.8c1.1,1.2,2.7,2.8,4.7,5 c2,2.1,4.4,4.5,7.4,6.7c3,2.2,6.8,4.3,11.2,5.1c4.4,0.9,9.6,0.6,14.6-0.9c5-1.5,9.8-4.8,13.3-9.4c1.7-2.3,3.2-4.9,4-7.7 c0.9-2.8,1.2-5.7,0.6-8.5c-0.5-2.7-2-5.2-4.3-6.9c-0.5-0.4-1.2-0.8-1.8-1.2l-0.8-0.4c-0.3-0.1-0.5-0.2-0.8-0.2 c-1.1-0.2-2.3,0.1-3.2,0.7c-1.9,1.3-2.6,3.9-1.4,6.3c1.1,2.4,3.6,4.3,6.3,5.6c5.4,2.6,12.1,2.8,16.9-0.1c0.6-0.4,1.1-0.8,1.7-1.2 l1.5-1.4l1.2-1.7c0.4-0.6,0.7-1.3,1-1.9c0.3-0.6,0.7-1.3,1-1.9c0.3-0.7,0.5-1.3,0.8-2c0.6-1.3,0.9-2.7,1.2-4 c1.3-5.4,1.2-10.7,0.4-15.5c-0.8-4.8-2.2-9.2-3.7-12.9c-1.5-3.8-3-7-4.3-9.5c-1.3-2.6-2.4-4.6-3.2-6c-0.8-1.4-1.2-2.1-1.2-2.1 L192.9,86.5z" class="st0"/><path d="M171.6,143.9c-0.3-0.4-0.5-0.8-0.7-1.2c-1.2-2.3-0.5-4.9,1.4-6.3c1-0.6,2.1-0.9,3.2-0.7 c0.3,0,0.5,0.1,0.8,0.2l0.8,0.4c0.6,0.4,1.3,0.7,1.8,1.2c0.3,0.2,0.6,0.5,0.9,0.8c-0.6-0.9-1.4-1.7-2.3-2.4 c-0.5-0.5-1.2-0.8-1.8-1.2l-0.8-0.4c-0.3,0-0.5-0.1-0.8-0.2c-1.1-0.2-2.3,0.1-3.2,0.7c-1.9,1.3-2.6,3.9-1.4,6.3 C169.9,142.1,170.7,143.1,171.6,143.9z M170.5,149.3c1.5,1.3,3.1,2.2,4.8,2.9c1.6,0.7,3.2,1.2,4.8,1.6c0.2-0.4,0.4-0.8,0.5-1.2 c-2.3-0.3-4.6-1-6.7-1.9c-1.7-0.8-3.3-1.7-4.8-2.9c-0.3-0.3-0.6-0.5-1-0.8C168.9,147.8,169.7,148.6,170.5,149.3z M186.8,141.6 c0.5,2.3,0.6,4.6,0.3,6.9c0.5-0.1,1-0.2,1.5-0.3c0.1-1.6-0.1-3.3-0.4-5c-0.4-1.9-1.2-3.8-2.2-5.4c-0.6-1-1.4-1.8-2.2-2.6 c0.3,0.3,0.5,0.7,0.8,1C185.6,137.9,186.3,139.7,186.8,141.6z M206.2,117.9c-0.9-5.2-2.5-9.7-4.1-13.5c-1.6-3.9-3.2-7.1-4.6-9.7 c-1.4-2.6-2.6-4.6-3.4-6c-0.8-1.4-1.2-2.1-1.2-2.1l-0.3,0.2c0.1,0.1,0.1,0.2,0.2,0.3c0.8,1.4,2,3.4,3.4,6c1.4,2.6,3,5.9,4.6,9.7 c1.6,3.9,3.2,8.4,4.1,13.5c1,5.1,1.2,11-0.1,17c-0.4,1.5-0.7,3-1.3,4.5c-0.3,0.7-0.6,1.5-0.8,2.2c-0.3,0.7-0.7,1.4-1.1,2.1 c-0.4,0.7-0.7,1.4-1.2,2.2c-0.5,0.7-1,1.4-1.5,2.1l-1.9,1.9c-0.7,0.6-1.4,1.1-2.2,1.6c-2.6,1.6-5.6,2.5-8.6,2.8 c-1,3.4-2.7,6.5-4.7,9.3c-4.1,5.6-9.8,9.6-15.8,11.6c-1.5,0.5-3,0.9-4.5,1.1c-0.7,0.1-1.5,0.3-2.2,0.4c-0.7,0.1-1.5,0.1-2.2,0.2 c-0.7,0.1-1.5,0.1-2.2,0.2c-0.7,0-1.5-0.1-2.2-0.1c-1.4,0-2.8-0.3-4.2-0.5c-5.5-0.9-10.2-3.4-13.7-6c-3.6-2.6-6.3-5.2-8.4-7.3 c-2-2.1-3.7-3.7-4.8-4.9c0,0-0.1-0.1-0.1-0.1l-0.1,0.1c0,0,0.6,0.5,1.6,1.6c1.1,1.1,2.7,2.8,4.8,4.9c2.1,2.1,4.8,4.8,8.4,7.3 c3.6,2.5,8.2,5,13.7,6c1.4,0.2,2.8,0.5,4.2,0.5c0.7,0,1.4,0.1,2.2,0.1c0.7,0,1.5-0.1,2.2-0.2c0.7-0.1,1.5-0.1,2.2-0.2 c0.7-0.1,1.5-0.3,2.2-0.4c1.5-0.2,3-0.6,4.5-1.1c6-2,11.7-6,15.8-11.6c2-2.8,3.7-5.9,4.7-9.3c3-0.3,6-1.2,8.6-2.8 c0.7-0.5,1.5-1,2.2-1.6l1.9-1.9c0.5-0.7,1-1.4,1.5-2.1c0.5-0.7,0.8-1.4,1.2-2.2c0.4-0.7,0.7-1.4,1.1-2.1c0.3-0.7,0.6-1.5,0.8-2.2 c0.6-1.5,0.9-3,1.3-4.5C207.4,128.9,207.1,123.1,206.2,117.9z" class="st1"/><path d="M194.5,89.4l-2.3,1.9c-0.2-0.5-0.4-0.8-0.7-1.2c-0.8-1.4-1.2-2.1-1.2-2.1l2.4-1.4c0,0,0.4,0.7,1.2,2.1 C194.2,88.9,194.4,89.1,194.5,89.4z" class="st2"/><path d="M186.2,152.8c0.4-1.3,0.8-3.1,0.9-4.3c0.1-1.1,1.6-1.5,1.5-0.3c-0.1,1.2-0.2,3.7-1,6.2 C186.7,156.8,186.2,152.8,186.2,152.8z" class="st1"/><path d="M180.6,152.6c1.3,0.2,1.5,0.2,1.9,0.3c-0.2,0.6-0.3,0.9-0.5,1.4c-0.5-0.1-1.1-0.2-1.9-0.4 C179.3,153.7,180.6,152.6,180.6,152.6z" class="st1"/><path d="M190.3,154c-0.9,0.2-1.8,0.4-2.7,0.4c0.2-0.7,0.4-1.3,0.5-1.9c0.2-0.9,0.4-1.8,0.4-2.4c0,0,0.1,0,0.1,0 c0.5-0.1,0.9-0.1,1.3-0.3C190.2,150.8,190.4,152.8,190.3,154z" class="st2"/></g><g><path d="M132.4,157.2c0.5,1.9-0.8,3.9-2.8,4.4l-47.4,11.7c-2,0.5-4-0.7-4.5-2.6L65.9,123c-0.5-1.9,0.8-3.9,2.8-4.4 l47.4-11.7c2-0.5,4,0.7,4.5,2.6L132.4,157.2z" class="st3"/><g><g><path d="M106.7,173.1c0,0.1,0,0.3,0,0.5c0.1,3.8,0.1,22.9-1.5,36.6c-0.1,0.5-0.1,1.1-0.2,1.6c0,0.1,0,0.2,0,0.3 c-0.2,1.7-0.5,3.2-0.7,4.6c-0.1,0.4-0.1,0.8-0.2,1.1c-0.5,2.5-1.1,4.4-1.9,5.6c-0.1,0.2-0.2,0.3-0.3,0.4 c-0.4,0.5-0.8,0.8-1.3,0.8c-0.2,0-0.4,0-0.6,0c-0.1,0-0.3,0-0.4-0.1c-0.2,0-0.4-0.1-0.5-0.1c-0.1,0-0.3-0.1-0.4-0.2 c-0.5-0.2-1.1-0.6-1.6-1.1c-0.2-0.1-0.4-0.3-0.6-0.5c-0.2-0.2-0.4-0.5-0.7-0.7c-0.2-0.3-0.4-0.5-0.7-0.8 c-0.4-0.6-0.9-1.3-1.3-1.9c-0.2-0.4-0.4-0.7-0.6-1.1c-0.9-1.5-1.7-3.3-2.5-5.2c-0.1-0.3-0.2-0.5-0.3-0.8 c-0.1-0.2-0.2-0.4-0.3-0.6c-0.1-0.4-0.3-0.8-0.4-1.1c-4.7-12.2-8-29.3-8.7-38.7C81,171.7,106.5,169.9,106.7,173.1z" class="st4"/><path d="M105,211.8c0,0.1,0,0.2,0,0.3c-0.2,1.7-0.5,3.2-0.7,4.6c-0.1,0.4-0.1,0.8-0.2,1.1 c-0.5,2.5-1.1,4.4-1.9,5.6c-0.1,0.2-0.2,0.3-0.3,0.4c-0.4,0.5-0.8,0.8-1.3,0.8c-0.2,0-0.4,0-0.6,0c-0.1,0-0.3,0-0.4-0.1 c-0.2,0-0.4-0.1-0.5-0.1c-0.1,0-0.3-0.1-0.4-0.2c-0.5-0.2-1.1-0.6-1.6-1.1c-0.2-0.1-0.4-0.3-0.6-0.5c-0.2-0.2-0.4-0.5-0.7-0.7 c-0.2-0.3-0.4-0.5-0.7-0.8c-0.4-0.6-0.9-1.3-1.3-1.9c-0.2-0.4-0.4-0.7-0.6-1.1c-0.8-1.5-1.7-3.3-2.5-5.2 c-0.1-0.3-0.2-0.5-0.3-0.8c-0.1-0.2-0.2-0.4-0.3-0.6c1.7-0.7,3.7-1.1,5.7-1.2c1.3-0.1,2.5-0.1,3.8,0.1 C101.5,210.6,103.4,211.1,105,211.8z" class="st5"/><path d="M106,211.4c-0.1,0.3-0.4,0.6-0.7,0.7c-0.1,0-0.2,0-0.3,0c-0.1,0-0.1,0-0.2,0c-1.6-0.5-3.4-0.8-5.4-0.9 c-1.2-0.1-2.4-0.1-3.6,0c-1.9,0.1-3.8,0.4-5.5,0.9l-0.1,0c-0.5,0.1-1-0.2-1.2-0.7c-0.1-0.5,0.1-1,0.6-1.1l0.1,0 c2-0.6,4-0.9,6-1c1.4-0.1,2.7-0.1,3.9,0c2,0.1,3.9,0.4,5.6,1c0,0,0.1,0,0.1,0C105.9,210.4,106.1,211,106,211.4z" class="st6"/></g><path d="M106,211.4c-0.1,0.3-0.4,0.6-0.7,0.7c-0.1,0-0.2,0-0.3,0c-0.2,1.7-0.5,3.2-0.7,4.6 c-0.1,0.4-0.1,0.8-0.2,1.1c-0.5,2.5-1.1,4.4-1.9,5.6c-0.1,0.2-0.2,0.3-0.3,0.4c-0.4,0.5-0.8,0.8-1.3,0.8c-0.2,0-0.4,0-0.6,0 c-0.1,0-0.3,0-0.4-0.1c-0.2,0-0.4-0.1-0.5-0.1c-0.1,0-0.3-0.1-0.4-0.2c-0.5-0.2-1.1-0.6-1.6-1.1c1-3.1,1.9-7.3,2.5-12.1 c0-0.3,0.1-0.6,0.1-0.8c0-0.4,0.1-0.7,0.1-1c1.2-10.4,1.3-23.3,0.2-34.8c2.9-0.3,4.9-0.4,6.9-0.8c0.1,3.8,0.1,22.9-1.5,36.6 c0,0,0.1,0,0.1,0C105.9,210.4,106.1,211,106,211.4z" class="st7"/><g><path d="M140.7,197.9c0.1,0.4,0.1,0.8,0.2,1.2c0,0.2,0,0.4,0.1,0.6c0,0.1,0,0.1,0,0.2c0,0.4,0.1,0.8,0.1,1.2 c0,0.4,0.1,0.8,0.1,1.2c0.2,3.3,0.1,6.3-0.5,8.5c-0.1,0.3-0.1,0.6-0.2,0.9c-0.1,0.3-0.2,0.6-0.3,1c-0.1,0.3-0.2,0.5-0.3,0.7 c-0.1,0.2-0.3,0.4-0.4,0.6c-0.1,0.2-0.2,0.4-0.4,0.5c-0.1,0.1-0.2,0.3-0.4,0.4c-0.1,0.1-0.3,0.2-0.5,0.3 c-0.1,0.1-0.3,0.2-0.5,0.3c-0.3,0.1-0.6,0.1-0.9,0.1c-0.1,0-0.2,0-0.3-0.1c-0.5-0.1-1-0.4-1.6-0.9c-0.1-0.1-0.3-0.2-0.4-0.4 c-0.5-0.4-0.9-0.8-1.4-1.3c-0.3-0.3-0.7-0.7-1-1.1c-0.7-0.8-1.4-1.7-2.1-2.7c-0.4-0.5-0.7-1-1.1-1.5c-0.3-0.5-0.7-0.9-1-1.4 c-0.1-0.1-0.1-0.2-0.2-0.2c-0.3-0.4-0.6-0.9-0.9-1.3c-7.7-11.4-16.5-28-18.2-31.6c-0.1-0.2-0.2-0.4-0.2-0.5 c-0.8-1.9,9-7.1,15.8-10.3c3.5-1.7,6.2-2.9,6.2-2.9c0,0,0,0,0,0C134.2,168.2,139.2,184.9,140.7,197.9z" class="st4"/><path d="M140.9,199.1c0,0.2,0,0.4,0.1,0.6c0,0.1,0,0.1,0,0.2c0,0.4,0.1,0.8,0.1,1.2c0,0.4,0.1,0.8,0.1,1.2 c0.2,3.3,0.1,6.3-0.5,8.5c-0.1,0.3-0.1,0.6-0.2,0.9c-0.1,0.3-0.2,0.6-0.3,1c-0.1,0.3-0.2,0.5-0.3,0.7c-0.1,0.2-0.3,0.4-0.4,0.6 c-0.1,0.2-0.2,0.4-0.4,0.5c-0.1,0.1-0.2,0.3-0.4,0.4c-0.1,0.1-0.3,0.2-0.5,0.3c-0.1,0.1-0.3,0.2-0.5,0.3 c-0.3,0.1-0.6,0.1-0.9,0.1c-0.1,0-0.2,0-0.3-0.1c-0.5-0.1-1-0.4-1.6-0.9c-0.1-0.1-0.3-0.2-0.4-0.4c-0.5-0.4-0.9-0.8-1.4-1.3 c-0.3-0.3-0.7-0.7-1-1.1c-0.7-0.8-1.4-1.7-2.1-2.7c-0.4-0.5-0.7-1-1.1-1.5c-0.3-0.5-0.7-0.9-1-1.4c-0.1-0.1-0.1-0.2-0.2-0.2 c1.7-2.2,4.2-4.1,7.1-5.4c0.7-0.3,1.4-0.6,2.1-0.8C138.2,199.5,139.6,199.2,140.9,199.1z" class="st5"/><g><path d="M141.8,198.6c0.1,0.5-0.2,1-0.8,1.1l-0.1,0c-1.2,0.2-2.5,0.6-3.8,1.1c-0.6,0.2-1.3,0.5-1.9,0.8 c-2.8,1.2-5.3,2.9-7.2,4.7c0,0-0.1,0.1-0.1,0.1c-0.1,0.1-0.2,0.1-0.3,0.2c-0.3,0.1-0.7,0-0.9-0.3c-0.4-0.4-0.4-1,0-1.3 c0,0,0.1-0.1,0.1-0.1c2-1.9,4.7-3.6,7.6-5c0.7-0.3,1.5-0.6,2.2-0.9c1.4-0.5,2.7-0.8,4-1.1c0,0,0,0,0,0 C141.2,197.8,141.7,198.1,141.8,198.6z" class="st6"/></g></g><path d="M130.9,161.2c0.3,1.1-2.1,2.8-5.3,4.6c-5.5,3-13.8,6.4-17,7.4c-0.4,0.1-0.7,0.2-0.9,0.3 c-0.2,0.1-0.5,0.1-0.9,0.2c-0.5,0.1-1.1,0.2-1.8,0.3c-0.3,0-0.5,0.1-0.8,0.1c-1.1,0.1-2.4,0.3-3.8,0.4c-0.2,0-0.3,0-0.5,0.1 c-7.7,0.7-18,1-18.5-1.1c-0.1-0.3-0.2-0.8-0.3-1.6c-0.2-1.3-0.5-3.2-0.8-5.6c-0.1-0.6-0.2-1.2-0.2-1.9l0-0.1 c0-0.3-0.1-0.5-0.1-0.8c0-0.6-0.1-1.2-0.2-1.8c0-0.3-0.1-0.6-0.1-0.9l0-0.1c0-0.6-0.1-1.2-0.1-1.7c-0.1-0.6-0.1-1.3-0.1-1.9 c-0.2-2.5-0.2-5.2-0.2-7.9c0-0.2,0-0.3,0-0.4c0,0,0-0.1,0-0.1c0,0,0-0.1,0-0.1c0-0.3,0-0.5,0-0.7c0-0.2,0-0.4,0-0.6 c0,0,0-0.1,0-0.1c0-0.6,0-1.2,0.1-1.9c0.2-3.4,0.6-6.7,1.3-9.9c0.1-0.7,0.3-1.4,0.5-2.1c1.6-6.1,4.5-11.3,9.3-13.8 c1.1-0.6,2.2-1.1,3.5-1.4c1.2-0.3,2.4-0.4,3.5-0.4c5.6,0,10.7,3.3,15.1,8.1c0.1,0.1,0.1,0.1,0.2,0.2c1.2,1.4,2.4,2.8,3.5,4.4 c1.1,1.6,2.3,3.3,3.3,5c0.2,0.4,0.5,0.8,0.7,1.2c0.1,0.1,0.1,0.2,0.2,0.3c0,0.1,0.1,0.2,0.1,0.2c0.1,0.1,0.1,0.2,0.2,0.4 c0.3,0.5,0.6,1,0.8,1.5c0,0,0.1,0.1,0.1,0.2c0.2,0.4,0.5,0.9,0.7,1.3c1,1.9,1.9,3.7,2.7,5.5c0.3,0.6,0.5,1.2,0.8,1.8 c0.3,0.6,0.5,1.1,0.7,1.6l0,0.1c0.1,0.1,0.1,0.3,0.2,0.4c0.4,1,0.8,2,1.1,2.9c0,0.1,0,0.1,0.1,0.2c0.2,0.6,0.4,1.1,0.6,1.7 c0.8,2.2,1.4,4,1.8,5.2c0,0,0,0,0,0C130.7,160.3,130.9,160.9,130.9,161.2z" class="st4"/><path d="M105.6,165.3c-2.6,0.6-21.2,2.6-26,0.7c-0.5-0.2-0.7-0.7-0.5-1.2c0.2-0.5,0.7-0.7,1.2-0.5 c4.1,1.7,21.9-0.1,24.8-0.8c2.9-0.7,19.5-7.5,22.3-10.8c0.3-0.4,0.9-0.4,1.3-0.1c0.4,0.3,0.4,0.9,0.1,1.3 C125.6,157.8,108.2,164.7,105.6,165.3z" class="st6"/><path d="M132,132l-65.6,16.2c-4.3-17.5,5.8-35.1,22.8-40.3c0.6-0.2,1.3-0.4,1.9-0.6c9.3-2.3,18.7-0.5,26.2,4.3 c1.8,1.1,3.5,2.4,5.1,3.9c1,0.9,2,2,2.9,3c2.1,2.6,3.9,5.5,5.2,8.7C131.1,128.7,131.6,130.3,132,132z" class="st4"/><path d="M125.2,127.6c0,2-0.4,4.1-1.2,6.3c0,0.1-0.1,0.2-0.1,0.4c0,0,0,0.1,0,0.1c-0.1,0.2-0.2,0.5-0.3,0.7 c-0.4,1-0.9,2-1.5,3c0,0,0,0,0,0c-0.1,0.2-0.2,0.4-0.4,0.7l0,0c0,0,0,0,0,0c-0.3,0.5-0.7,1.1-1.1,1.7L82.3,150 c-1.1-0.3-2.2-0.7-3.2-1.1c0,0,0,0,0,0c0,0-0.1,0-0.1-0.1c-0.2-0.1-0.4-0.1-0.5-0.2c-1.5-0.6-2.8-1.3-3.8-2 c-0.1,0-0.2-0.1-0.3-0.1c0,0,0,0,0,0c-0.1-0.1-0.2-0.1-0.3-0.2c0,0,0,0,0,0c-1.8-1.3-3.2-2.7-4.2-4.3c-2.1-3.2-2.6-6.9-1.9-10.6 c0.1-0.5,0.2-1,0.3-1.5c0.6-2.5,1.8-5,3.2-7.4c4.2-6.8,11.3-12.6,18.3-14.9c0.5-0.2,0.9-0.3,1.4-0.4c0.5-0.1,1-0.2,1.5-0.3 c7.4-1.4,16,0.2,22.5,4.2c0.2,0.2,0.5,0.3,0.8,0.5c1.4,0.9,2.7,1.9,3.8,3c0.8,0.8,1.5,1.6,2.2,2.4c0.1,0.1,0.2,0.3,0.3,0.4 C124.2,120.4,125.3,123.8,125.2,127.6z" class="st4"/><g><path d="M154,127.3l-0.8,1.5l-2.9,5.4l-0.8,1.6c-0.3-0.1-0.5-0.3-0.8-0.4c-2.1-0.8-4.8-1.6-6.6-2.3l0,0 c-3.6-1.4-10-0.9-13.6-0.2c-0.7,0.1-1.4,0.3-2.1,0.5c-0.8,0.3-1.6,0.6-2.4,0.9c-1.3,0.6-2.5,1.4-3.5,2.2 c-1,0.9-1.7,1.8-2.1,2.6c-0.6,1.3-1.2,1.8-2,2.2c-0.4,0.2-0.8,0.3-1.3,0.5c-1.2,0.5-2.8,1.2-4.9,3.1l-1.3-1.6l-3.8-4.9 l-13.3-17.2c1.8-1.6,3.6-2.9,5.7-4.1c5.3-3.2,11.4-5.1,17.6-5.6c0.3,0,0.5,0,0.8-0.1c0.5,0,1-0.1,1.4-0.1 c2.1-0.1,4.1,0,6.2,0.2l0,0c2.3,0.2,4.7,0.6,7,1.2c0.2,0,0.3,0.1,0.5,0.1c4,1,6.4,1.6,14,6.8l0,0c2.6,1.5,4.7,3.9,7.2,5.9 c0,0,0,0,0,0c0.3,0.4,0.7,0.8,1.1,1.1C153.4,127.1,153.7,127.2,154,127.3z" class="st4"/><g><path d="M162.8,140.5c-0.2,0.3-0.3,0.5-0.5,0.6c-3.6,4.6-2.4-6.1-6.7-4.8c-1.5,1.5,3.3,6,0.7,6.6 c-0.1,0-0.3,0-0.4,0.1c-1.1,0.1-3.5-2.8-5.9-6.4c-0.2-0.3-0.3-0.5-0.5-0.8l0.8-1.6l2.9-5.4l0.8-1.5c0.3,0.1,0.6,0.2,0.9,0.2 C161.8,129.5,166.2,135.5,162.8,140.5z" class="st4"/><g><path d="M154.9,127.5c0,0.1,0,0.2-0.1,0.2l-0.7,1.3l-3.2,5.9l-0.7,1.3c-0.1,0.2-0.2,0.3-0.3,0.4 c-0.1,0.1-0.2,0.1-0.3,0.1c-0.2,0.1-0.5,0-0.7-0.1c-0.4-0.2-0.6-0.8-0.4-1.2c0,0,0,0,0-0.1l0.9-1.7l2.8-5.2l0.8-1.5l0,0 c0.2-0.5,0.8-0.6,1.3-0.4C154.9,126.7,155,127.1,154.9,127.5z" class="st6"/></g></g><path d="M130.9,113l-1,3.1l-1.1,3.5l-6.8-2.1l-0.4-0.1l0.1-0.3l0.6-2l1.1-3.4l0,0c2.3,0.2,4.7,0.6,7,1.2 C130.6,113,130.8,113,130.9,113z" class="st8"/></g><g><path d="M97.1,120.1l-1.2,6.7l-2.6,14.7l-1.1,6.1l-0.4,2c-0.9-0.2-1.7-0.4-2.3-0.5c-1.1-0.2-2-0.1-2.7-0.1 c-0.2,0-0.5,0-0.7,0.1c-1.6,0.2-2.6,0.4-4.2-0.9c-0.6-0.5-1.4-0.9-2.3-1.2c0,0,0,0,0,0c-0.1,0-0.2-0.1-0.3-0.1c0,0,0,0,0,0 c-1.3-0.4-2.8-0.5-4.5-0.5c-0.1,0-0.2,0-0.4,0c0,0,0,0,0,0c-0.2,0-0.4,0-0.6,0.1c0,0,0,0,0,0c-0.7,0-1.5,0.2-2.2,0.4 c-0.5,0.1-0.9,0.2-1.4,0.3c-3.5,1-9.3,3.5-11.9,6.5l-0.1,0.1c-1.3,1.4-3.3,3.4-4.8,5.1c-0.2,0.3-0.4,0.5-0.6,0.7l-1.8-1.2 l-6.2-4.2c0.2-0.2,0.4-0.5,0.6-0.7c0.2-0.4,0.4-1,0.4-1.5c0,0,0-0.1,0-0.1c1.3-2.9,2-6,3.6-8.5l0,0c4.2-8.2,6.1-9.8,9.2-12.5 c0.1-0.1,0.3-0.2,0.4-0.3c1.8-1.6,3.6-3,5.6-4.3c1.7-1.2,3.6-2.2,5.4-3.1c0.5-0.2,1-0.4,1.4-0.7c6-2.6,12.5-3.9,19-3.4 c1.2,0.1,2.5,0.2,3.7,0.4C95.1,119.7,96.1,119.9,97.1,120.1z" class="st4"/><g><path d="M52.7,159.6c0,0.3-0.1,0.6-0.1,0.9c-0.4,4.3-1.2,8-2.3,8.4c-0.1,0-0.2,0.1-0.2,0.1 c-2.3,0.8-1.2-3.3-1.8-5.2c-0.1-0.5-0.4-0.8-0.8-0.9c-4.6,0.8,1.9,10.4-4.3,7.1c-0.1,0-0.1-0.1-0.2-0.1 c-5.3-2.8-4.2-10.1,0.9-15.1c0.2-0.2,0.5-0.4,0.7-0.6l6.2,4.2L52.7,159.6z" class="st4"/><g><path d="M53.4,160.2c-0.1,0.2-0.3,0.3-0.5,0.4c-0.1,0-0.2,0-0.3,0c-0.2,0-0.3-0.1-0.4-0.2l-1.6-1.1l-6.4-4.3 c-0.1,0-0.1-0.1-0.2-0.2c-0.3-0.3-0.3-0.8-0.1-1.1c0.3-0.4,0.9-0.5,1.3-0.2l0,0l6,4l2,1.3c0,0,0,0,0,0 C53.6,159.2,53.7,159.8,53.4,160.2z" class="st6"/></g></g><path d="M68.7,130.4l-5.3,5.3l-4.9-4.9c0.1-0.1,0.3-0.2,0.4-0.3c1.8-1.6,3.6-3,5.6-4.3L68.7,130.4z" class="st9"/></g><g><path d="M114.2,130.6c0.7,3-1.1,6.1-4.1,6.8c-3,0.7-6.1-1.1-6.8-4.1c-0.7-3,1.1-6.1,4.1-6.8 C110.4,125.7,113.5,127.5,114.2,130.6z" class="st9"/><polygon points="101.9 136 112.9 125.1 108.3 139.9 107.1 134.7" class="st8"/></g><rect width="11.3" height="5.6" x="80.6" y="131.7" class="st1" transform="matrix(0.9709 -0.2394 0.2394 0.9709 -29.7064 24.5528)"/><g><path d="M151,134.9c-0.2-0.3-0.5-0.5-0.7-0.7c-0.2-0.2-0.4-0.4-0.7-0.6c-2.6-2.1-8.8-6.7-19.1-6.5 c-1.6,0-3.4,0.2-5.2,0.5c-2.8,0.4-5.8,1.2-9,2.4c-0.3,2.1-0.4,4-0.4,5.9c0,1.9,0.2,3.8,0.4,5.5c0,0.1,0,0.2,0,0.2 c0.4,2.4,0.9,4.6,1.6,6.7c0.2,0.6,0.4,1.2,0.7,1.8c0.2,0.6,0.5,1.2,0.7,1.8c0.5,1.2,1,2.4,1.6,3.5c0.2,0.4,0.4,0.8,0.6,1.2 c0.3,0.6,0.5,1.1,0.8,1.7c0.7,1.3,1.3,2.7,1.9,4.1c0.4,0.9,0.8,1.8,1.1,2.7c0.1,0.2,0.2,0.4,0.3,0.7 c2.4,6.3,7.8,20.6,11.1,33.2l0.2,1c0.1,0.3,0.2,0.6,0.2,0.9c1.2,5,2.1,9.6,2.3,13.3c0.1-0.2,0.3-0.4,0.4-0.6 c0.1-0.2,0.2-0.5,0.3-0.7c0.1-0.3,0.2-0.6,0.3-1c0.1-0.3,0.2-0.6,0.2-0.9c0.5-2.3,0.6-5.2,0.5-8.5c0-0.4,0-0.8-0.1-1.2 c0-0.4-0.1-0.8-0.1-1.2c0-0.1,0-0.1,0-0.2l0.1,0c0.5-0.1,0.9-0.6,0.8-1.1c-0.1-0.5-0.6-0.9-1.1-0.8c-1.6-13-6.5-29.7-10.3-38.3 c0,0,0,0,0,0c-0.4-1.3-1-3.1-1.8-5.2l0,0c0.1-0.1,0.2-0.2,0.3-0.4c0.3-0.4,0.3-1-0.1-1.3c-0.3-0.2-0.6-0.3-0.9-0.1 c-0.4-0.9-0.7-1.9-1.1-2.9c-0.1-0.1-0.1-0.3-0.2-0.4l0-0.1c-0.2-0.5-0.5-1-0.7-1.6c-0.2-0.6-0.5-1.2-0.8-1.8 c-0.8-1.8-1.7-3.7-2.7-5.5c-0.2-0.4-0.4-0.9-0.7-1.3c0.1-0.2,0.3-0.4,0.4-0.7c0,0,0,0,0,0c0.6-1,1.1-2,1.5-3 c0.1-0.2,0.2-0.5,0.3-0.7c0,0,0-0.1,0-0.1c0.7-0.4,1.5-0.7,2.4-0.9l2.1-0.5c3.5-0.7,9.9-1.2,13.6,0.2l0,0 c1.8,0.7,4.6,1.5,6.6,2.3c-0.2,0.5,0,1,0.4,1.2c0.2,0.1,0.4,0.1,0.7,0.1c0.1,0,0.2-0.1,0.3-0.1c2.4,3.6,4.8,6.5,5.9,6.4 c0.1,0,0.3,0,0.4-0.1C154.4,139.9,152.7,136.8,151,134.9z" class="st7"/></g><path d="M89.8,153c-1.5,0.4-2.4,1.9-2.1,3.4c0.4,1.5,1.9,2.4,3.4,2.1c1.5-0.4,2.4-1.9,2.1-3.4 C92.8,153.6,91.3,152.6,89.8,153z" class="st10"/><path d="M88.9,149.4c1.5-0.4,2.4-1.9,2.1-3.4c-0.4-1.5-1.9-2.4-3.4-2.1c-1.5,0.4-2.4,1.9-2.1,3.4 C85.9,148.8,87.4,149.7,88.9,149.4z" class="st10"/><path d="M117.7,149c0.4,1.5-0.6,3-2.1,3.4c-1.5,0.4-3-0.6-3.4-2.1c-0.4-1.5,0.5-3,2.1-3.4 C115.8,146.6,117.3,147.5,117.7,149z" class="st10"/><path d="M92.8,160.6c-1.2,1.5-2.8,2.4-5,3c-2.1,0.5-4.6,0.7-7.9,0.8c-0.1-1.2-0.3-2.4-0.4-3.8 c6.5-0.1,9.1-0.7,10.4-2.3c0.6-0.8,1.8-1,2.6-0.3C93.3,158.6,93.5,159.7,92.8,160.6z" class="st7"/><path d="M86.9,159.9c-2.2,0.5-5.1,0.7-8.8,0.8c-1,0-1.9-0.8-1.9-1.8c0-1,0.8-1.9,1.8-1.9c7-0.1,9.7-0.7,11-2.3 c0.6-0.8,1.8-1,2.6-0.3c0.8,0.6,1,1.8,0.3,2.6C90.7,158.4,89.2,159.3,86.9,159.9z" class="st1"/><path d="M127.9,152.6c-2.8,1.4-5.1,2.4-7.1,2.8c-2.2,0.5-4.1,0.5-5.8-0.3c-0.9-0.4-1.4-1.5-0.9-2.5 c0.4-1,1.5-1.4,2.5-1c1.8,0.8,4.3,0.2,9.9-2.6C127.1,150.3,127.5,151.5,127.9,152.6z" class="st7"/><path d="M120,151.7c-2.2,0.5-4,0.5-5.8-0.3c-0.9-0.4-1.4-1.5-0.9-2.5c0.4-0.9,1.5-1.4,2.5-1c1.9,0.9,4.5,0.1,10.8-3 c0.9-0.5,2.1-0.1,2.5,0.8c0.5,0.9,0.1,2.1-0.8,2.5C124.8,150,122.2,151.2,120,151.7z" class="st1"/><path d="M129,145.8c-0.1-0.2-0.2-0.3-0.3-0.4c-0.1,0.5-0.5,0.9-0.9,1.1c-0.7,0.3-1.3,0.6-1.9,0.9 c-2.5,1.2-4.5,2-6.3,2.5c-0.3,0.1-0.6,0.1-0.9,0.2c-0.3,0.1-0.6,0.1-0.9,0.1c-1.4,0.1-2.7-0.1-4-0.6c-0.2-0.1-0.4-0.2-0.6-0.4 c-0.1,0.3-0.1,0.7,0,1c0,0.1,0.1,0.3,0.1,0.4c0.1,0.1,0.1,0.2,0.2,0.3c0.2,0.2,0.4,0.4,0.7,0.5c0.2,0.1,0.5,0.2,0.8,0.3 c0.1,0,0.2,0.1,0.2,0.1c0.2,0.1,0.4,0.1,0.5,0.1c0,0,0,0,0,0c0.3,0.1,0.5,0.1,0.8,0.1l0,0c0.2,0,0.4,0,0.7,0c0.2,0,0.3,0,0.5,0 c0.2,0,0.4,0,0.6,0c0.1,0,0.2,0,0.4,0c0.1,0,0.2,0,0.3-0.1c0.1,0,0.2,0,0.4-0.1c0.2,0,0.4-0.1,0.7-0.1c0.2,0,0.4-0.1,0.6-0.2 c0.2-0.1,0.4-0.1,0.6-0.2c0.2-0.1,0.4-0.1,0.7-0.2c0.3-0.1,0.5-0.2,0.8-0.3c1.2-0.4,2.5-1,3.9-1.7l0,0c0.5-0.3,1.1-0.5,1.6-0.8 C129.1,147.9,129.5,146.8,129,145.8z M91.8,154.5c-0.1,0.2-0.2,0.4-0.3,0.6c-0.8,1.1-1.9,1.8-3.2,2.4c-0.5,0.2-1.1,0.4-1.8,0.6 c-1.9,0.5-4.2,0.7-7.1,0.7c-0.6,0-1.2,0-1.8,0c-0.5,0-1-0.2-1.4-0.6c-0.1,0.2-0.1,0.4-0.1,0.5c0,1,0.9,1.9,1.9,1.8 c0.5,0,1,0,1.4,0c0,0,0,0,0,0c1.3,0,2.6-0.1,3.7-0.2c0.6,0,1.1-0.1,1.6-0.2c0.3,0,0.5-0.1,0.8-0.1c0.2,0,0.4-0.1,0.7-0.1 c0.2,0,0.4-0.1,0.6-0.1c0.2,0,0.4-0.1,0.5-0.1c0.2,0,0.3-0.1,0.5-0.2c0.1,0,0.2,0,0.3-0.1c0.2-0.1,0.4-0.1,0.5-0.2 c0.3-0.1,0.6-0.3,0.8-0.4c0.2-0.1,0.4-0.2,0.6-0.4c0.2-0.1,0.4-0.3,0.6-0.5c0,0,0,0,0,0c0.2-0.2,0.4-0.3,0.6-0.5l0,0 c0.2-0.2,0.4-0.4,0.5-0.6c0.2-0.2,0.3-0.5,0.4-0.8c0-0.1,0-0.3,0-0.4C92.3,155.3,92.1,154.8,91.8,154.5z" class="st7"/><path d="M162.8,140.5c-0.2,0.3-0.3,0.5-0.5,0.6c0.3-2.1,0.1-4.3-1.6-7.1c-2.2-3.6-4.6-4.5-6.5-4.9 c-0.3-0.1-0.7-0.2-1-0.2c-0.2,0-0.5-0.2-0.8-0.4c-3.3-1.9-13-10.4-22.4-12.2c-0.4-0.1-0.7-0.1-1.1-0.2c-2.5-0.3-4.7-0.6-6.4-0.9 c-1.1-0.2-2-0.3-2.8-0.5c-3.2-0.7-4.5-1.4-4.6-3c0-0.2,0-0.3,0-0.5c0.2,0.2,0.5,0.3,0.8,0.5c0.5,0,1-0.1,1.4-0.1 c2.1-0.1,4.1,0,6.2,0.2l0,0c2.3,0.2,4.7,0.6,7,1.2c0.2,0,0.3,0.1,0.5,0.1c4,1,6.4,1.6,14,6.8l0,0c2.6,1.5,4.7,3.9,7.2,5.9 c0,0,0,0,0,0c0.3,0.4,0.7,0.8,1.1,1.1l0,0c0.2-0.5,0.8-0.6,1.3-0.4c0.4,0.2,0.6,0.6,0.5,1C161.8,129.5,166.2,135.5,162.8,140.5z" class="st7"/><g><path d="M48.3,163.9c-0.1-0.5-0.4-0.8-0.8-0.9c-4.6,0.8,1.9,10.4-4.3,7.1c-1-6.1-0.5-8.7,2.3-8.7 C47.7,161.5,48.3,162.8,48.3,163.9z" class="st7"/><path d="M79.2,146.8l0,0.1c0,0.1,0.1,0.3,0.1,0.5c0,0.3-0.1,0.6-0.1,0.8c0,0.1,0,0.1,0,0.2c0,0.1,0,0.1,0,0.2 c0,0,0,0.1,0,0.2c0,0.1,0,0.1,0,0.2c0,0-0.1,0-0.1-0.1c-0.2-0.1-0.4-0.1-0.5-0.2c-1.5-0.6-2.8-1.3-3.8-2 c-0.1,0-0.2-0.1-0.3-0.1c0,0,0,0,0,0c-0.2,0-0.4,0-0.6,0.1c0,0,0,0,0,0c-0.7,0-1.5,0.2-2.2,0.4c-0.5,0.1-0.9,0.2-1.4,0.3 c-3.5,1-9.3,3.5-11.9,6.5l-0.1,0.1c-1.3,1.4-3.3,3.4-4.8,5.1c0.4,0.3,0.5,0.8,0.2,1.3c-0.1,0.2-0.3,0.3-0.5,0.4 c-0.1,0-0.2,0-0.3,0c-0.4,4.3-1.2,8-2.3,8.4c-0.1,0-0.2,0.1-0.2,0.1c0.1-2.1-0.2-6.7,0.5-9.8c0.1-0.3,0.2-0.7,0.3-1 c0.1-0.2,0.2-0.5,0.4-0.9c1.5-3.1,6.5-9.8,14.4-13.8c1.3-0.7,2.7-1.3,4.1-1.8c3.1-1.1,5.2-1.3,7-1.4c0.9,1.6,1.4,2.6,2,4.5 C78.9,145.6,79,146.2,79.2,146.8z" class="st7"/></g><g><path d="M122.1,138.2c-0.1,0.2-0.2,0.4-0.4,0.7c0.2,0.4,0.5,0.9,0.7,1.3l-0.1,0.1c0,0-0.3-0.6-0.6-1.3c0,0,0,0,0,0 c0-0.1,0-0.1-0.1-0.2c-0.1-0.2-0.1-0.4-0.2-0.5c-0.2-0.4-0.4-0.7-0.6-1c-0.1-0.1-0.1-0.2-0.2-0.4c-0.1-0.1-0.1-0.1-0.1-0.2 c-0.1-0.2-0.2-0.3-0.2-0.4l0.1,0c0,0,0.1,0.1,0.2,0.2c0.3,0.3,0.8,0.8,1.3,1.3C121.9,138,122,138.1,122.1,138.2 C122.1,138.2,122.1,138.2,122.1,138.2z" class="st7"/><path d="M123.8,134.4c-0.1,0.2-0.2,0.5-0.3,0.7c-0.2-0.1-0.4-0.2-0.7-0.3c-0.4-0.1-0.7-0.3-1-0.4 c-0.4-0.1-0.7-0.3-0.8-0.3c0.2,0,0.7,0.1,1.4,0.2c0.1,0,0.3,0,0.4,0c0.2,0.1,0.5,0.1,0.7,0.1 C123.8,134.4,123.8,134.4,123.8,134.4z" class="st7"/><path d="M79.5,147C79.5,147,79.5,147,79.5,147c-0.1,0.3-0.2,0.8-0.4,1.3c0,0,0,0,0,0.1c0,0.1-0.1,0.3-0.1,0.4 c0,0,0,0.1,0,0.1c-0.2-0.1-0.4-0.1-0.5-0.2c0-0.1,0-0.1,0.1-0.2c0.2-0.3,0.5-0.7,0.7-0.9l0,0c0,0,0.1-0.1,0.1-0.1 C79.3,147.3,79.4,147.1,79.5,147C79.5,147,79.5,147,79.5,147z" class="st7"/><path d="M76.7,144.9c0,0-0.8,0.4-1.6,1.1c-0.1,0.1-0.1,0.1-0.2,0.2c-0.1,0.1-0.2,0.2-0.3,0.3 c0,0.1-0.1,0.1-0.1,0.2c-0.1,0-0.2-0.1-0.3-0.1c0,0,0,0,0,0c-0.2,0-0.4,0-0.6,0.1c0.1-0.1,0.1-0.2,0.2-0.2c0,0,0.1-0.1,0.1-0.1 c0.2-0.2,0.4-0.3,0.7-0.5C75.6,145.1,76.7,144.9,76.7,144.9z" class="st7"/></g></g><g><g><path d="M94.2,120c-9.8,2.4-16.9,2.8-22.4,1.3c-1-0.3-1.6-1.3-1.3-2.3c0.3-1,1.3-1.6,2.3-1.3 c4.9,1.3,11.4,0.9,20.5-1.3c9.1-2.2,15.1-4.9,18.8-8.3c0.8-0.7,1.9-0.7,2.7,0.1c0.7,0.8,0.7,1.9-0.1,2.7 C110.5,114.7,104,117.6,94.2,120z" class="st5"/></g><g><path d="M63.1,95.6c0.9,3.6-0.8,7.2-3.9,7.9l0,0c-3,0.7-6.2-1.6-7.1-5.2L50,89.5c-0.9-3.6,0.8-7.2,3.9-7.9l0,0 c3-0.7,6.2,1.6,7.1,5.2L63.1,95.6z" class="st3"/><path d="M121.4,81.2c0.9,3.6-0.8,7.2-3.9,7.9l0,0c-3,0.7-6.2-1.6-7.1-5.2l-2.2-8.8c-0.9-3.6,0.8-7.2,3.9-7.9l0,0 c3-0.7,6.2,1.6,7.1,5.2L121.4,81.2z" class="st3"/><path d="M117.1,79.5c5.8,23.7,0.3,32.8-23.4,38.6C70.1,124,61,118.5,55.1,94.8c-5.4-21.9,5.3-38.1,22.5-42.3 C94.7,48.3,111.8,57.7,117.1,79.5z" class="st4"/><path d="M87,51.6c10.1,3.4,18.5,12.2,22,26.4c5.8,23.7,0.3,32.8-23.4,38.6c-6,1.5-11.1,2.2-15.5,2.1 c5.7,2.3,13.3,1.9,23.6-0.6c23.7-5.8,29.2-14.9,23.4-38.6C112.7,61.7,100.6,52.2,87,51.6z" class="st7"/><path d="M92.9,114.5c-18.1,4.5-29.5-2.5-34-20.5c-3.6-14.6,3.7-24.2,21.8-28.7c18.1-4.5,29.1,0.7,32.7,15.3 C118.1,99.4,111.7,109.9,92.9,114.5z" class="st5"/><path d="M92.4,112.7c-17.1,4.2-27.5-2.1-31.7-19.2C57.4,80,64.1,71.3,81.2,67.1c17.1-4.2,27.1,0.3,30.4,13.9 C116,99.1,110.5,108.3,92.4,112.7z" class="st11"/><path d="M72,100.3c0.7,2.9,1.8,5.6,3,8.2c-4-3.8-7-8.8-8.5-14.6c-2-8-0.5-16,3.4-22.6c2.4-1.3,5.2-2.5,8.4-3.4 C71.7,77,69.1,88.7,72,100.3z" class="st12"/></g></g></g><g><g><g><polygon points="177.9 64.4 176.9 64.4 175.9 63.4 184.7 54.6 185.7 55.6 185.7 56.5" class="st3"/><rect width="2.8" height="4.8" x="184.1" y="56.8" class="st3" transform="matrix(0.7072 -0.707 0.707 0.7072 12.4249 148.4463)"/><rect width="2.8" height="4.8" x="179.2" y="61.7" class="st3" transform="matrix(0.7074 -0.7068 0.7068 0.7074 7.5195 146.3835)"/></g><polygon points="173 67.3 172 67.3 130.9 26.2 130.9 25.2 146.6 9.6 147.6 9.6 188.6 50.7 188.6 51.6" class="st4"/><g><rect width="1.4" height="58.8" x="159.1" y="9" class="st4" transform="matrix(0.7071 -0.7071 0.7071 0.7071 19.6179 124.2352)"/><polygon points="134.6 29.4 134.1 28.9 150.2 12.8 150.7 13.3" class="st4"/><polygon points="138 32.8 137.5 32.3 153.7 16.2 154.2 16.7" class="st4"/><rect width="22.8" height=".7" x="137.9" y="27.6" class="st4" transform="matrix(0.706 -0.7082 0.7082 0.706 24.1016 113.9116)"/><rect width="22.8" height=".7" x="141.3" y="31" class="st4" transform="matrix(0.7071 -0.7071 0.7071 0.7071 22.5553 117.1472)"/><polygon points="148.3 43.1 147.8 42.6 163.9 26.5 164.4 26.9" class="st4"/><rect width="22.8" height=".7" x="148.1" y="37.8" class="st4" transform="matrix(0.7071 -0.7071 0.7071 0.7071 19.7192 123.993)"/><polygon points="155.1 49.9 154.6 49.4 170.8 33.3 171.3 33.8" class="st4"/><polygon points="158.6 53.4 158.1 52.9 174.2 36.7 174.7 37.2" class="st4"/><rect width="22.8" height=".7" x="158.4" y="48.1" class="st4" transform="matrix(0.7072 -0.707 0.707 0.7072 15.4537 134.2401)"/><rect width="22.8" height=".7" x="161.8" y="51.5" class="st4" transform="matrix(0.7091 -0.7051 0.7051 0.7091 13.8054 137.2337)"/><polygon points="168.8 63.6 168.3 63.1 184.5 47 185 47.5" class="st4"/></g><g><g><rect width="10.4" height="4.2" x="156.8" y="30.2" class="st13" transform="matrix(0.7068 -0.7074 0.7074 0.7068 24.6287 124.0691)"/><rect width="10.4" height="4.2" x="148.5" y="38.6" class="st13" transform="matrix(0.7069 -0.7073 0.7073 0.7069 16.2901 120.5915)"/><rect width="10.4" height="4.1" x="149.9" y="23.4" class="st13" transform="matrix(0.7073 -0.7069 0.7069 0.7073 27.4009 117.1288)"/><rect width="10.4" height="4.1" x="134.8" y="24.9" class="st13" transform="matrix(0.7071 -0.7071 0.7071 0.7071 21.9459 106.8702)"/><rect width="10.4" height="4.2" x="143.1" y="16.6" class="st13" transform="matrix(0.7069 -0.7073 0.7073 0.7069 30.28 110.3408)"/><rect width="10.4" height="4.1" x="141.6" y="31.7" class="st13" transform="matrix(0.7073 -0.7069 0.7069 0.7073 19.0903 113.6853)"/><rect width="10.4" height="4.1" x="170.5" y="43.9" class="st13" transform="matrix(0.7068 -0.7075 0.7075 0.7068 18.9594 137.7749)"/><polygon points="169.1 63.4 172.3 66.6 172.7 66.6 179.8 59.5 176.4 56" class="st13"/><polygon points="187.9 50.9 184.7 47.7 177.4 55.1 180.8 58.5 187.9 51.4" class="st13"/><rect width="10.4" height="4.1" x="162.2" y="52.3" class="st13" transform="matrix(0.7071 -0.7071 0.7071 0.7071 10.601 134.2529)"/><rect width="10.4" height="4.1" x="163.6" y="37.1" class="st13" transform="matrix(0.7076 -0.7066 0.7066 0.7076 21.6817 130.7406)"/><rect width="10.4" height="4.1" x="155.3" y="45.4" class="st13" transform="matrix(0.7071 -0.7071 0.7071 0.7071 13.4356 127.4065)"/></g><g><rect width="10.4" height="4.1" x="146.5" y="20" class="st9" transform="matrix(0.7064 -0.7078 0.7078 0.7064 28.9277 113.8536)"/><rect width="10.4" height="4.2" x="145.1" y="35.1" class="st9" transform="matrix(0.7073 -0.7069 0.7069 0.7073 17.67 117.1033)"/><rect width="10.4" height="4.1" x="153.4" y="26.8" class="st9" transform="matrix(0.7069 -0.7073 0.7073 0.7069 26.0261 120.6141)"/><polygon points="146.9 10.3 139.7 17.4 142.7 20.3 150 13 147.3 10.3" class="st9"/><rect width="10.4" height="4.1" x="138.2" y="28.3" class="st9" transform="matrix(0.7073 -0.7069 0.7069 0.7073 20.5065 110.2603)"/><polygon points="131.6 25.5 131.6 25.9 134.3 28.7 141.7 21.3 138.7 18.4" class="st9"/><rect width="10.4" height="4.1" x="165.6" y="55.7" class="st9" transform="matrix(0.7068 -0.7074 0.7074 0.7068 9.2197 137.7531)"/><rect width="10.4" height="4.1" x="173.9" y="47.4" class="st9" transform="matrix(0.7071 -0.7071 0.7071 0.7071 17.4955 141.1205)"/><rect width="10.4" height="4.1" x="160.2" y="33.7" class="st9" transform="matrix(0.7073 -0.7069 0.7069 0.7073 23.1438 127.3922)"/><rect width="10.4" height="4.1" x="167.1" y="40.5" class="st9" transform="matrix(0.7074 -0.7068 0.7068 0.7074 20.2906 134.2054)"/><rect width="10.4" height="4.1" x="158.7" y="48.8" class="st9" transform="matrix(0.7069 -0.7073 0.7073 0.7069 12.0392 130.8684)"/><rect width="10.4" height="4.1" x="151.9" y="42" class="st9" transform="matrix(0.7071 -0.7071 0.7071 0.7071 14.8544 123.9837)"/></g></g><polygon points="165.2 27.3 147.6 9.6 146.6 9.6 130.9 25.2 130.9 26.2 157.4 52.6" class="st14"/></g><g><g><polygon points="199.3 85.7 199.3 86.7 200.2 87.7 209 78.9 208.1 77.9 207.1 77.9" class="st3"/><rect width="2.8" height="4.8" x="203" y="75.7" class="st3" transform="matrix(0.7071 -0.7071 0.7071 0.7071 4.5983 167.4262)"/><rect width="2.8" height="4.8" x="198.1" y="80.6" class="st3" transform="matrix(0.707 -0.7072 0.7072 0.707 -0.2781 165.4343)"/></g><polygon points="196.3 90.6 196.3 91.6 237.4 132.7 238.4 132.7 254 117 254 116.1 213 75 212 75" class="st4"/><g><rect width="1.4" height="58.8" x="224.5" y="74.4" class="st4" transform="matrix(0.7071 -0.7071 0.7071 0.7071 -7.4689 189.6419)"/><polygon points="234.2 129 234.7 129.5 250.9 113.4 250.4 112.9" class="st4"/><rect width="22.8" height=".7" x="227.7" y="117.4" class="st4" transform="matrix(0.7061 -0.7082 0.7082 0.7061 -13.1156 203.9504)"/><rect width="22.8" height=".7" x="224.3" y="114" class="st4" transform="matrix(0.7062 -0.7081 0.7081 0.7062 -11.7093 200.4848)"/><polygon points="224 118.8 224.4 119.2 240.6 103.1 240.1 102.6" class="st4"/><rect width="22.8" height=".7" x="217.4" y="107.2" class="st4" transform="matrix(0.7082 -0.7061 0.7061 0.7082 -9.1171 192.9499)"/><polygon points="217.1 111.9 217.6 112.4 233.7 96.3 233.2 95.8" class="st4"/><polygon points="213.7 108.5 214.2 109 230.3 92.8 229.8 92.3" class="st4"/><polygon points="210.3 105.1 210.8 105.5 226.9 89.4 226.4 88.9" class="st4"/><polygon points="206.8 101.6 207.3 102.1 223.5 86 223 85.5" class="st4"/><polygon points="203.4 98.2 203.9 98.7 220 82.6 219.6 82.1" class="st4"/><polygon points="200 94.8 200.5 95.3 216.6 79.1 216.1 78.7" class="st4"/></g><g><g><rect width="10.4" height="4.1" x="226.1" y="99.6" class="st13" transform="matrix(0.7069 -0.7073 0.7073 0.7069 -4.1012 193.373)"/><rect width="10.4" height="4.1" x="217.8" y="107.9" class="st13" transform="matrix(0.7071 -0.7071 0.7071 0.7071 -12.4359 189.8719)"/><rect width="10.4" height="4.2" x="232.9" y="106.4" class="st13" transform="matrix(0.7071 -0.7071 0.7071 0.7071 -6.9605 200.1613)"/><rect width="10.4" height="4.1" x="231.5" y="121.6" class="st13" transform="matrix(0.7068 -0.7074 0.7074 0.7068 -18.0728 203.6792)"/><rect width="10.4" height="4.1" x="239.8" y="113.3" class="st13" transform="matrix(0.7071 -0.7071 0.7071 0.7071 -9.7974 207.0031)"/><rect width="10.4" height="4.2" x="224.6" y="114.7" class="st13" transform="matrix(0.7069 -0.7073 0.7073 0.7069 -15.2557 196.7724)"/><rect width="10.4" height="4.2" x="212.4" y="85.9" class="st13" transform="matrix(0.7071 -0.7071 0.7071 0.7071 1.5454 179.6178)"/><polygon points="200.2 94.5 197 91.3 197 90.9 204.1 83.8 207.6 87.2" class="st13"/><polygon points="212.7 75.7 215.9 78.9 208.6 86.2 205.1 82.8 212.3 75.7" class="st13"/><rect width="10.4" height="4.2" x="204.1" y="94.2" class="st13" transform="matrix(0.7069 -0.7073 0.7073 0.7069 -6.7479 176.2282)"/><rect width="10.4" height="4.1" x="219.3" y="92.7" class="st13" transform="matrix(0.7075 -0.7068 0.7068 0.7075 -1.3343 186.3573)"/><rect width="10.4" height="4.1" x="210.9" y="101" class="st13" transform="matrix(0.7073 -0.7069 0.7069 0.7073 -9.6216 182.9689)"/></g><g><rect width="10.4" height="4.2" x="236.4" y="109.8" class="st9" transform="matrix(0.7071 -0.7071 0.7071 0.7071 -8.3775 203.5836)"/><rect width="10.4" height="4.1" x="221.2" y="111.3" class="st9" transform="matrix(0.7071 -0.7071 0.7071 0.7071 -13.8557 193.2946)"/><rect width="10.4" height="4.2" x="229.5" y="103" class="st9" transform="matrix(0.7071 -0.7071 0.7071 0.7071 -5.5415 196.739)"/><polygon points="253.3 116.8 246.2 123.9 243.3 121 250.6 113.6 253.3 116.3" class="st9"/><rect width="10.4" height="4.2" x="228.1" y="118.1" class="st9" transform="matrix(0.7073 -0.7069 0.7069 0.7073 -16.7111 200.0788)"/><polygon points="238.1 132 237.7 132 235 129.3 242.3 121.9 245.2 124.9" class="st9"/><rect width="10.4" height="4.1" x="200.7" y="90.8" class="st9" transform="matrix(0.7073 -0.7069 0.7069 0.7073 -5.3677 172.7039)"/><rect width="10.4" height="4.1" x="209" y="82.4" class="st9" transform="matrix(0.7068 -0.7075 0.7075 0.7068 3.0112 176.3053)"/><rect width="10.4" height="4.1" x="222.7" y="96.1" class="st9" transform="matrix(0.7073 -0.7069 0.7069 0.7073 -2.729 189.8341)"/><rect width="10.4" height="4.1" x="215.8" y="89.3" class="st9" transform="matrix(0.7074 -0.7068 0.7068 0.7074 8.580667e-02 182.9407)"/><rect width="10.4" height="4.1" x="207.5" y="97.6" class="st9" transform="matrix(0.7071 -0.7071 0.7071 0.7071 -8.1827 179.6016)"/><rect width="10.4" height="4.1" x="214.4" y="104.5" class="st9" transform="matrix(0.7073 -0.7069 0.7069 0.7073 -11.0394 186.3909)"/></g></g><polygon points="226.3 88.3 213 75 212 75 196.3 90.6 196.3 91.6 218.4 113.7" class="st7"/></g><g><path d="M220.7,42.9c-0.4-0.4-13.3,10-13.3,10l3.3,3.3C210.8,56.2,221.2,43.3,220.7,42.9z" class="st15"/><path d="M221.3,44.5c-0.6,0.6-1.6,0.6-2.2,0c-0.6-0.6-0.6-1.6,0-2.2c0.6-0.6,1.6-0.6,2.2,0 C221.9,42.9,221.9,43.9,221.3,44.5z" class="st15"/></g><path d="M209.2,54.6l1.5,1.5c0,0,6.1-7.6,8.8-11.3c0.6,0.3,1.3,0.2,1.7-0.3c0.6-0.6,0.6-1.5,0.1-2.1L209.2,54.6z" class="st16"/><g><path d="M213.5,58.9c-0.3,0.3-2.5-1.4-5-3.9c-2.5-2.4-4.2-4.7-3.9-5c0.3-0.3,2.7,1.3,5.1,3.7 C212.2,56.3,213.8,58.6,213.5,58.9z" class="st4"/><rect width="3.9" height="12.5" x="205.8" y="49.6" class="st4" transform="matrix(0.7071 -0.7072 0.7072 0.7071 21.3231 163.2651)"/></g><path d="M206.5,57.4l4.3,4.3l2.8-2.8c0.3-0.3-1.2-2.6-3.6-5L206.5,57.4z" class="st16"/><g><rect width="6.3" height="18.8" x="201" y="50.1" class="st17" transform="matrix(0.7071 -0.7071 0.7071 0.7071 17.7068 161.7475)"/><path d="M213,63.9c-0.6,0.6-4.1-1.9-7.8-5.5c-3.7-3.7-6.2-7.1-5.5-7.8c0.6-0.6,4.1,1.9,7.8,5.5 C211.1,59.8,213.6,63.3,213,63.9z" class="st17"/></g><path d="M202,61.8l6.5,6.5l4.4-4.4c0.6-0.6-1.8-4-5.4-7.6L202,61.8z" class="st16"/><g><path d="M212.4,68.9c-1.2,1.2-6.2-1.8-11.1-6.7c-4.9-4.9-7.9-9.9-6.7-11.1c1.2-1.2,6.2,1.8,11.1,6.7 C210.7,62.7,213.7,67.7,212.4,68.9z" class="st4"/><rect width="31.4" height="25.1" x="176.8" y="58.6" class="st4" transform="matrix(0.7071 -0.7071 0.7071 0.7071 6.0775 156.944)"/><path d="M190.3,91.1c-1.2,1.2-6.2-1.8-11.1-6.6c-4.9-4.9-7.9-9.9-6.7-11.1c1.2-1.2,6.2,1.8,11.1,6.7 C188.5,84.9,191.5,89.9,190.3,91.1z" class="st3"/></g><path d="M179.3,84.6c4.9,4.8,9.7,7.7,11,6.5l22.2-22.2c1.2-1.2-1.7-6.1-6.5-11L179.3,84.6z" class="st16"/><g><path d="M186.9,87.8c-0.5,0.5-3.3-1.7-6.4-4.7c-3.1-3.1-5.2-5.9-4.7-6.4c0.5-0.5,3.3,1.7,6.4,4.7 C185.3,84.4,187.4,87.3,186.9,87.8z" class="st17"/><rect width="6.3" height="15.7" x="176" y="76.6" class="st17" transform="matrix(0.7071 -0.7071 0.7071 0.7071 -7.2316 151.4166)"/></g><path d="M177.1,86.8l5.4,5.4l4.4-4.4l0,0l0,0c0.5-0.5-1.6-3.2-4.6-6.2L177.1,86.8z" class="st16"/><g><path d="M185.8,93.3c-0.9,0.9-5.1-1.8-9.4-6.1c-4.3-4.3-7-8.5-6.1-9.4c0.9-0.9,5.1,1.8,9.4,6.1 C184,88.2,186.7,92.4,185.8,93.3z" class="st4"/><path d="M170.9,92.8c-5.4-5.4-7.1-9.5-6.7-10c0.5-0.5,4.6,1.3,10,6.7c5.4,5.4,7.1,9.5,6.6,10 C180.4,99.9,176.3,98.2,170.9,92.8z" class="st18"/><g><polygon points="172.5 87.8 167 82.2 165.9 84.4 170.3 88.9" class="st10"/><polygon points="181.4 96.6 175.8 91.1 174.7 93.3 179.2 97.7" class="st10"/><polygon points="176 93.2 170.4 87.6 169.3 89.8 173.8 94.3" class="st10"/><polygon points="177.8 91.4 172.2 85.8 171.1 88 175.6 92.5" class="st10"/></g><path d="M185.8,93.3l-15.5-15.5l-6.7,4.4l0.6,0.6c0.5-0.5,4.6,1.3,10,6.7c5.4,5.4,7.1,9.5,6.6,10l0.6,0.6 L185.8,93.3z" class="st4"/><g><path d="M175.6,92.5c-0.5,0.5-1.8-0.2-3-1.4c-1.2-1.2-1.8-2.6-1.4-3c0.5-0.5,1.8,0.2,3,1.4 C175.4,90.7,176,92,175.6,92.5z" class="st5"/><path d="M179.2,97.7c-0.5,0.5-1.8-0.2-3-1.4c-1.2-1.2-1.8-2.6-1.4-3c0.5-0.5,1.8,0.2,3,1.4 C179,95.9,179.6,97.3,179.2,97.7z" class="st5"/><path d="M170.3,88.9c-0.5,0.5-1.8-0.2-3-1.4c-1.2-1.2-1.8-2.6-1.4-3c0.5-0.5,1.8,0.2,3,1.4 C170.1,87,170.8,88.4,170.3,88.9z" class="st5"/><path d="M173.8,94.3c-0.4,0.4-1.7-0.3-2.9-1.5c-1.2-1.2-1.9-2.5-1.5-2.9c0.4-0.4,1.7,0.3,2.9,1.5 C173.5,92.6,174.1,93.9,173.8,94.3z" class="st5"/></g><g><path d="M173.1,90.5c-0.7-0.7-1.1-1.4-1.3-1.8c0.4,0.1,1.1,0.5,1.8,1.3c0.7,0.7,1.1,1.4,1.3,1.8 C174.5,91.7,173.8,91.3,173.1,90.5z" class="st19"/><path d="M176.7,95.8c-0.7-0.7-1.1-1.4-1.3-1.8c0.4,0.1,1.1,0.5,1.8,1.3c0.7,0.7,1.1,1.4,1.3,1.8 C178.1,96.9,177.4,96.5,176.7,95.8z" class="st19"/><path d="M167.8,86.9c-0.7-0.7-1.1-1.4-1.3-1.8c0.4,0.1,1.1,0.5,1.8,1.3c0.7,0.7,1.1,1.4,1.3,1.8 C169.2,88.1,168.6,87.7,167.8,86.9z" class="st19"/><path d="M171.4,92.2c-0.5-0.5-0.9-1-1.1-1.4c0.4,0.2,0.9,0.6,1.4,1.1c0.5,0.5,0.9,1,1.1,1.4 C172.4,93.1,171.9,92.7,171.4,92.2z" class="st19"/></g><path d="M174.7,88.9c-4.9-4.9-9.9-7.9-11.1-6.7c-1.2,1.2,1.8,6.2,6.7,11.1c4.9,4.9,9.9,7.9,11.1,6.7 C182.6,98.7,179.6,93.8,174.7,88.9z M170.9,92.8c-5.4-5.4-7.1-9.5-6.7-10c0.5-0.5,4.6,1.3,10,6.7c5.4,5.4,7.1,9.5,6.6,10 C180.4,99.9,176.3,98.2,170.9,92.8z" class="st3"/></g><path d="M170.4,93.4c4.9,4.8,9.7,7.7,11,6.5l4.4-6.7c0.9-0.9-1.8-5.1-6-9.3L170.4,93.4z" class="st16"/></g></g></g></svg>