<?xml version="1.0" encoding="utf-8"?>
<!-- Generator: Adobe Illustrator 22.0.1, SVG Export Plug-In . SVG Version: 6.00 Build 0)  -->
<svg version="1.1" xmlns="http://www.w3.org/2000/svg" xmlns:xlink="http://www.w3.org/1999/xlink" x="0px" y="0px"
	 viewBox="0 0 315.6 224.4" style="enable-background:new 0 0 315.6 224.4;" xml:space="preserve">
<style type="text/css">
	.st0{fill:#B0BEC5;}
	.st1{fill:#78909C;}
	.st2{fill:#546E7A;}
	.st3{fill:#90A4AE;}
	.st4{fill:#CFD8DC;}
	.st5{fill:#263238;}
	.st6{fill:#E64A19;}
	.st7{opacity:0.2;fill:#212121;}
	.st8{fill:#D84315;}
	.st9{fill:#1A237E;}
	.st10{fill:#212121;}
	.st11{fill:#000014;}
	.st12{fill:#EEEEEE;}
	.st13{fill:#0D47A1;}
	.st14{opacity:0.2;fill:#EEEEEE;}
	.st15{fill:#F9A825;}
	.st16{opacity:0.1;fill:#212121;}
	.st17{fill:#C62828;}
	.st18{fill:#37474F;}
	.st19{fill:#FF8F00;}
	.st20{fill:#039BE5;}
	.st21{opacity:0.2;}
	.st22{fill:#BDBDBD;}
	.st23{fill:#A7A7AF;}
	.st24{fill:#558B2F;}
	.st25{fill:#7CB342;}
	.st26{fill:#311B92;}
	.st27{fill:#33691E;}
	.st28{fill:#FFFFFF;}
</style>
<g id="Ñëîé_1">
</g>
<g id="Ñëîé_2">
</g>
<g id="Ñëîé_3">
</g>
<g id="Ñëîé_4">
</g>
<g id="Ñëîé_5">
</g>
<g id="Ñëîé_6">
	<g>
		<g>
			<g>
				<path class="st0" d="M136.8,89.8c5,7.9,13.3,13.2,22.1,16.3c8.8,3.1,18,4.1,24.7,3.4c0.6-0.1,1.1-0.1,1.6-0.2c0,0,0.1,0,0.1,0
					c3-0.5,5.4-1.3,6.8-2.5c1.2-1,1.7-2.3,1-3.8c-1.1-2.6-3.5-3.9-6.6-5c-0.1-0.1-0.3-0.1-0.4-0.1c-0.4-0.1-0.8-0.3-1.3-0.4
					c-8.4-2.5-21.1-4.3-30-18.4c-2.9-4.7-10.2-6.4-14.9-3.4C135.2,78.5,133.8,85.1,136.8,89.8z"/>
				<path class="st0" d="M183,104.8c0.1,1.6,1,2.3,1.5,4.1c0.2,0.1,0.5,0.2,0.7,0.3c0,0,0.1,0,0.1,0c1.2,0.4,2.7,0.8,3.8,1
					c3.9,0.9,11.6,1.2,12.9-4.4c0.1-0.5,0.2-1,0.2-1.5c0.2-4.6-4.4-5.6-8.1-6.3c1.2-1.3,1.8-2.7,1.2-3.6c-0.8-1.3-3.6-1-6.1,0.6
					c-1,0.6-2,1.5-2.7,2.3c0,0,0,0,0,0c-0.1,0.2-0.2,0.3-0.4,0.5c-0.2,0.3-0.5,0.7-0.6,1c-0.7,0.7-1.3,1.6-1.8,2.8
					C183.1,103.1,182.9,104,183,104.8z"/>
				<g>
					<path class="st6" d="M182.5,105c0.1,1.3,0.4,2.8,1,4.4c0,0,0,0.1,0,0.1c0.1,0.4,0.5,0.6,0.8,0.6c0.1,0,0.2,0,0.3,0
						c0.4-0.1,0.6-0.5,0.6-0.8c0,0,0,0,0,0c0-0.1,0-0.2-0.1-0.2c-0.5-1.4-0.8-2.7-0.9-3.7c-0.3-3,0.5-5,2-7c0.1-0.1,0.1-0.2,0.1-0.3
						c0.1-0.2,0.1-0.4-0.1-0.6c0,0,0,0,0,0c-0.1-0.1-0.1-0.2-0.3-0.3c-0.4-0.3-0.9-0.2-1.2,0.2c-0.1,0.1-0.1,0.1-0.1,0.2
						C183.2,99.6,182.3,101.9,182.5,105z"/>
				</g>
			</g>
			<path class="st7" d="M158.8,106.1c8.8,3.1,18,4.1,24.7,3.4c0,0,0,0.1,0,0.1c0.1,0.4,0.5,0.6,0.8,0.6c0.1,0,0.2,0,0.3,0
				c0.4-0.1,0.6-0.5,0.6-0.8c1.2,0.4,2.7,0.8,3.8,1c3.9,0.9,11.6,1.2,12.9-4.4c0.1-0.5,0.2-1,0.2-1.5c-2.8,1.7-5.9,2.7-10.1,2.4
				c-2.2-0.1-4.8-0.6-7.7-1.5c-0.5-0.1-0.9-0.3-1.4-0.5h0c-0.1,0.1-0.3,0.2-0.4,0.2c-4.4,2.2-16.5-0.3-20.6-2.1
				C160,102,159.1,103.5,158.8,106.1z"/>
			<path class="st4" d="M130.1,112.2c0.1,1.1,0.2,2.2,0.2,3.2c0,0.2,0,0.4,0,0.6c0,4.6,0.7,12.6,1.8,21.2c2.3,3.3,6,5.9,10.5,7.4
				c2.6,0.9,5.6,1.4,8.6,1.4c2.2,0,5.3-0.3,8.7-0.8c2.4-3.9,4.7-7.9,6.7-11.8c0.2-0.4,0.4-0.8,0.6-1.2c2.9-5.6,5.1-10.8,6-14.8
				c0-0.1,0.1-0.2,0.1-0.3c0.1-0.2,0.1-0.4,0.1-0.6c0.2-1,0.3-2,0.3-2.8c0-24.4-5.2-38.4-12.2-43.6c-2.5,0.6-11.3-0.3-18.2-1.5
				c-3.7-0.6-6.8-1.4-8-2c-1.7,3.5-5.2,5.2-7,15.7C126.2,96.6,129.3,104.5,130.1,112.2z"/>
			<path class="st4" d="M121.6,42.2c0,22.7,15,29.6,31.4,29.6c17.4,0,27.9-7,27.9-29.6C180.9,25.8,170.4,9,153,9
				C126.8,9,121.6,25.8,121.6,42.2z"/>
			<path class="st7" d="M140,10.8c-8.3,6.3-10.4,16.9-10.4,27.3c0,22.7,15,29.6,31.4,29.6c4.2,0,8-0.4,11.4-1.4
				c-4.7,3.9-11.3,5.4-19.4,5.4c-16.4,0-31.4-7-31.4-29.6C121.6,29,125,15.5,140,10.8z"/>
			<g>
				<path class="st10" d="M193.4,95.3c1,2.7,4,4.1,6.7,3.1c2.7-1,4.1-4,3.1-6.7c-1-2.7-4-4.1-6.7-3.1
					C193.8,89.6,192.4,92.6,193.4,95.3z"/>
				<path class="st10" d="M221.2,162c0.2,0.5,1.4,0.6,2.6,0.1l0,0c1.3-0.5,2.1-1.3,1.9-1.8L201,93.7c-0.2-0.5-1.4-0.6-2.6-0.1l0,0
					c-1.3,0.5-2.1,1.3-1.9,1.8L221.2,162z"/>
			</g>
			<path class="st7" d="M139.9,92.9c9.3,7.1,22.2,8.4,33.4,6.9c-0.6-6.4-1.7-11.8-3.2-16.2c-5.4-0.7-11.2-2.6-17.1-7.1
				c-4.4-3.4-11.8-2.4-15.2,2.1C134.5,83,135.5,89.6,139.9,92.9z"/>
			<path class="st5" d="M146,43.6v1.2c0,11.6,0,22.6,23.8,23.5c7.2-4.1,11.1-12.1,11.1-26.1c0-8.2-2.6-16.4-7.4-22.7
				c-0.4,0-0.9,0-1.3,0c-10.4,0-17.4,2-21.5,6C146,30.2,146,37,146,43.6z"/>
			<path class="st11" d="M147.8,44.8c0,11.9-0.1,21.6,24.4,21.8c5.2,0,10.5-12.1,10.5-24.4c0-7.4-3.5-19.2-7.9-20.9
				c-0.8,0-1.7,0-2.6,0C146.9,21.2,147.8,32.8,147.8,44.8z"/>
			<path class="st28" d="M166.2,21.5c6.9,9.6,11,21.3,11.2,33.9c1.2-3.6,1.8-7.5,1.8-11.5c0-8.5-2.8-16.3-7.4-22.7
				C169.7,21.3,167.9,21.3,166.2,21.5z"/>
			<path class="st3" d="M142.5,31.2c0-1.1-1.1-1.5-2.5-0.9l-4.1,1.8c-1.4,0.6-2.5,2.1-2.5,3.2v12.3c0,1.1,1.1,2.6,2.5,3.2l4.1,1.8
				c1.4,0.6,2.5,0.2,2.5-0.9V31.2z"/>
			<path class="st4" d="M129.5,129.3c0.1,2.8,1,5.5,2.7,7.9c2.3,3.3,6,5.9,10.5,7.4c2.6,0.9,5.6,1.4,8.6,1.4c2.2,0,5.3-0.3,8.7-0.8
				c3.2-0.4,6.7-1.1,10.3-1.8c3.1-0.6,6.1-1.4,9.1-2.2c0.8-0.2,1.6-0.5,2.4-0.7c3.6-1.1,7-2.2,9.8-3.5c4.5-2,7.4-4.1,7.4-6.1
				c0-0.3-0.1-0.6-0.2-1c-0.1-0.1-0.1-0.3-0.2-0.4c-0.1-0.1-0.2-0.2-0.3-0.4c-0.8-1-2.2-2.2-4.1-3.3c-0.3-0.2-0.6-0.3-0.9-0.5
				c-0.2-0.1-0.5-0.3-0.8-0.4c-3.4-1.9-7.8-3.8-12.6-5.5c-0.3-0.1-0.6-0.2-0.9-0.3c-1.9-0.7-3.8-1.3-5.8-1.9c-0.7-0.2-1.4-0.4-2-0.6
				c-2.2-0.6-4.3-1.2-6.4-1.7c-0.9-0.2-1.7-0.4-2.6-0.6c-0.5-0.1-1-0.2-1.5-0.3c-0.7-0.1-1.4-0.3-2-0.4c-0.3-0.1-0.6-0.1-0.8-0.2
				c-0.4-0.1-0.7-0.1-1.1-0.2c-0.2,0-0.3,0-0.5-0.1c-0.8-0.1-1.5-0.2-2.2-0.3c-1.1-0.1-2.2-0.2-3.1-0.2h-0.1c-3.3,0-6.5-1.9-9.4-3.8
				c-5.6-3.7-10.1-7.3-11.8,3.4C129.6,115.9,129.3,121.4,129.5,129.3z"/>
			<path class="st4" d="M151.4,112.5c0.8,4.7,3.2,9.5,7.3,13.6c1.8,1.8,5,3.9,8.7,6.1c0.6,0.4,1.3,0.8,1.9,1.1
				c3.8,2.2,8.1,4.6,12,6.9c0.2,0.1,0.4,0.2,0.6,0.3c10.1,6.1,18.5,11.5,21.3,8.8c0.3-0.3,0.5-0.7,0.6-1.2
				c0.9-3.2-1.4-10.4-4.9-18.1c-0.1-0.1-0.1-0.3-0.2-0.4c-0.1-0.1-0.2-0.2-0.3-0.4c-0.8-1-2.2-2.2-4.1-3.3c-0.3-0.2-0.6-0.3-0.9-0.5
				c-0.2-0.1-0.5-0.3-0.8-0.4c-3.4-1.9-7.8-3.8-12.6-5.5c-0.3-0.1-0.6-0.2-0.9-0.3c-1.9-0.7-3.8-1.3-5.8-1.9c-0.7-0.2-1.4-0.4-2-0.6
				c-2.2-0.6-4.3-1.2-6.4-1.7c-0.9-0.2-1.7-0.4-2.6-0.6c-0.5-0.1-1-0.2-1.5-0.3c-0.7-0.2-1.4-0.3-2-0.4c-0.3-0.1-0.6-0.1-0.8-0.2
				c-0.4-0.1-0.7-0.1-1.1-0.2c-0.2,0-0.3,0-0.5-0.1c-0.8-0.1-1.5-0.2-2.2-0.3C153.3,112.6,152.3,112.5,151.4,112.5z"/>
			<path class="st7" d="M168,119.3c0.1-0.1,0.5-0.2,0.9-0.4c0.6-0.3,1.4-0.6,2.2-0.9c0.8-0.3,1.6-0.5,2.2-0.6c0-0.1,0.1-0.2,0.1-0.3
				c0.1-0.2,0.1-0.4,0.1-0.6c-0.1,0-0.2,0.1-0.3,0.1c-0.7,0.2-1.5,0.6-2.3,1c-0.8,0.4-1.5,0.9-2.1,1.2
				C168.4,119,168.1,119.2,168,119.3z"/>
			<path class="st5" d="M198.9,129.9c4,9,6.4,17.2,4.2,19.4c-2.7,2.7-11.2-2.7-21.3-8.8c4.1-3,12.1-8.3,16.5-11.4
				C198.6,129.4,198.8,129.7,198.9,129.9z"/>
			<g>
				<path class="st6" d="M181.8,141.3c0.2,0,0.4-0.1,0.5-0.2c1.8-1.5,5.2-3.7,8.4-5.8c3-2,6.1-4,8.1-5.5c0.4-0.3,0.5-0.8,0.2-1.2
					c-0.3-0.4-0.8-0.5-1.2-0.2c-2,1.5-5.1,3.5-8.1,5.5c-3.4,2.3-6.7,4.4-8.6,5.9c-0.4,0.3-0.4,0.9-0.1,1.2
					C181.3,141.2,181.5,141.3,181.8,141.3z"/>
			</g>
			<path class="st7" d="M130.1,112.2c-0.6,3.7-0.8,9.2-0.6,17.1c0.1,2.8,1,5.5,2.7,7.9c2.3,3.3,6,5.9,10.5,7.4
				c2.6,0.9,5.6,1.4,8.6,1.4c2.2,0,5.3-0.3,8.7-0.8c3.2-0.4,6.7-1.1,10.3-1.8c3.1-0.6,6.1-1.4,9.1-2.2c0.8-0.2,1.6-0.5,2.4-0.7
				c10.1,6.1,18.5,11.5,21.3,8.8c0.3-0.3,0.5-0.7,0.6-1.2c-5.6-1.6-9.1-6.1-12.1-11c-0.5-0.9-1.1-1.8-1.6-2.7
				c-4.7-1.7-12-1.4-20.8-1.1c-0.8,0-1.7,0.1-2.5,0.1c-4.1,0.2-8.5,0.3-13.1,0.3c-15.7-0.1-9.6-12.7-8.5-18.8c-1.2-2-2.3-4-3.2-6.1
				c-6.5-14.3-7.1-30.8,1.6-40.2c-3.7-0.6-6.8-1.4-8-2c-1.7,3.5-5.2,5.2-7,15.7C126.2,96.6,129.3,104.5,130.1,112.2z"/>
			<g>
				<path class="st4" d="M138.2,91.6c13.3,13.3,37.2,13,50,8.7c0.5-0.2,1.1-0.4,1.6-0.6c0,0,0,0,0,0c2.5-1,4.4-2.2,5.6-3.4
					c1.4-1.4,1.7-3,0.7-4.5c-1.6-2.3-4.2-3.1-7.6-3.4c-0.2,0-0.3,0-0.5-0.1c-0.4,0-0.9-0.1-1.3-0.1c-8.8-0.6-21.5,0.6-33.3-11.2
					c-2.5-2.6-6.6-3.4-10.2-2.6c-1.9,0.4-3.7,1.3-5.1,2.6C134.2,81,134.3,87.6,138.2,91.6z"/>
				<path class="st4" d="M187,96.9c0.5,0.8,1.3,1.4,1.9,2.7c0.2,0.1,0.5,0.1,0.8,0.1c0,0,0,0,0,0c1.2,0.2,2.8,0.1,4,0.1
					c4,0,11.5-1.4,11.5-7.2c0-0.2,0-0.4,0-0.6c-0.4-5.4-5.5-5.4-9.4-5.2c0.9-1.6,1.1-3.1,0.4-3.8c-1.1-1.1-3.7-0.2-5.8,2
					c-0.9,0.9-1.6,1.9-2.1,2.9c-0.1,0.2-0.2,0.3-0.3,0.5c-0.2,0.4-0.3,0.8-0.3,1.1c-0.5,0.8-0.9,1.8-1.1,3.2
					C186.2,94.9,186.5,96,187,96.9z"/>
				<g>
					<path class="st6" d="M186.6,97c0.4,1,0.9,2.1,1.6,3.2c0,0,0,0.1,0,0.1c0.2,0.3,0.4,0.4,0.7,0.4c0.2,0,0.3,0,0.5-0.1
						c0.3-0.2,0.5-0.6,0.4-0.9c0,0,0,0,0,0c0-0.1,0-0.2-0.1-0.2c-0.7-1.1-1.2-2.1-1.5-3.1c-1.2-3-0.8-5.2,0.2-7.7
						c0.1-0.1,0.1-0.2,0.1-0.3c0-0.2-0.1-0.4-0.2-0.6c-0.1-0.1-0.2-0.2-0.4-0.3c-0.4-0.2-1,0-1.1,0.5c0,0.1-0.1,0.2-0.1,0.2
						C185.6,91,185.2,93.6,186.6,97z"/>
				</g>
			</g>
			<g class="st21">
				<g>
					<path class="st10" d="M166.1,92c0.2-0.5,1-2.2,1.9-4c0.3-0.6,0.6-1.2,0.9-1.8c-0.2-0.1-0.5-0.1-0.7-0.2
						c-0.2,0.6-0.4,1.1-0.7,1.7C166.9,89.7,166.2,91.6,166.1,92z"/>
				</g>
				<g>
					<path class="st10" d="M164.3,88.3l2.3-2.7c-0.2-0.1-0.3-0.1-0.5-0.2L164.3,88.3z"/>
				</g>
				<g>
					<path class="st10" d="M170.1,90.5c0,0,0.3-1.5,0.7-3c0.1-0.2,0.1-0.4,0.2-0.6c-0.2,0-0.4-0.1-0.6-0.1c0,0.2-0.1,0.4-0.1,0.7
						C170.2,88.9,170.1,90.5,170.1,90.5z"/>
				</g>
			</g>
			<rect x="146.9" y="86.3" transform="matrix(0.4676 -0.884 0.884 0.4676 2.341 183.679)" class="st8" width="13.4" height="7.2"/>
			<path class="st7" d="M138.2,91.6c13.3,13.3,37.2,13,50,8.7c0,0,0,0.1,0,0.1c0.2,0.3,0.4,0.4,0.7,0.4c0.2,0,0.3,0,0.5-0.1
				c0.3-0.2,0.5-0.6,0.4-0.9c1.2,0.2,2.8,0.1,4,0.1c4,0,11.5-1.4,11.5-7.2c0-0.2,0-0.4,0-0.6c-2,2.7-5.6,3.9-9.9,4.3
				c-2.3,0.2-4.7,0.2-7.2,0.1c-0.3,0.2-0.7,0.4-1.2,0.5c-0.1,0.1-0.3,0.1-0.5,0.2c-6.3,2.2-20,2.5-30.3-1.5
				c-14.4-5.6-18.9-12.7-13.1-21.2c-1.9,0.4-3.7,1.3-5.1,2.6C134.2,81,134.3,87.6,138.2,91.6z"/>
			<g>
				<path class="st6" d="M173.9,116.3c0.5,0,0.9-0.4,0.9-0.9c0-0.5-0.4-0.9-0.9-0.9c-19.2,0-40.9-0.5-43.2-1.6c-0.4-0.2-1,0-1.2,0.4
					c-0.2,0.4,0,1,0.4,1.2C133.4,116.2,167.2,116.3,173.9,116.3z"/>
			</g>
			<g>
				<path class="st22" d="M96.1,106.8c-0.1,1.1,0.6,2,1.5,2.1l10.4,1c1,0.1,1.8-0.7,1.9-1.8l1.9-19.5c0.1-1.1-0.6-2-1.5-2.1l-10.4-1
					c-1-0.1-1.8,0.7-1.9,1.8L96.1,106.8z"/>
				<path class="st22" d="M101.7,85.7c-0.1,1.1,0.6,2,1.5,2.1l5.2,0.5c1,0.1,1.8-0.7,1.9-1.8l0.9-9.8c0.1-1.1-0.6-2-1.5-2.1
					l-5.2-0.5c-1-0.1-1.8,0.7-1.9,1.8L101.7,85.7z"/>
				<path class="st22" d="M113.8,69.1c-0.1,1.1,0.6,2,1.5,2.1l1.7,0.2c1,0.1,1.8-0.7,1.9-1.8l1.3-13.7c0.1-1.1-0.6-2-1.5-2.1
					l-1.7-0.2c-1-0.1-1.8,0.7-1.9,1.8L113.8,69.1z"/>
				<path class="st7" d="M115.1,55.5c0.1-1.1,1-1.9,1.9-1.8l0.2,0c-0.3,0.3-0.5,0.7-0.5,1.1l-1.3,13.7c-0.1,1.1,0.6,2,1.5,2.1
					l1.6,0.2c-0.4,0.4-0.9,0.7-1.4,0.7l-1.7-0.2c-1-0.1-1.6-1-1.5-2.1L115.1,55.5z"/>
				<path class="st7" d="M98,87.3c0.1-1.1,1-1.9,1.9-1.8l1.7,0.2v0l0.9-9.8c0.1-1.1,1-1.9,1.9-1.8l2,0.2c-0.8,0.2-1.4,0.8-1.5,1.7
					l-0.9,9.8v0l-1.7-0.2c-1-0.1-1.8,0.7-1.9,1.8l-1.9,19.5c-0.1,1.1,0.6,2,1.5,2.1l8.4,0.8c-0.2,0-0.3,0.1-0.5,0.1l-10.4-1
					c-1-0.1-1.6-1-1.5-2.1L98,87.3z"/>
				<path class="st22" d="M103.9,110.2c-0.3,3.2,1.8,6.1,4.6,6.4l13.5,1.3c2.9,0.3,7.7-1.9,8-5.1c0,0-1-13.3,0.2-25.8
					c0.9-9.1,2.4-16.7,2.4-16.7c0.3-3.2-2.4-6.7-5.3-7l-13.5-1.3c-2.9-0.3-5.5,2.1-5.8,5.3L103.9,110.2z"/>
				<path class="st7" d="M103.9,110.2l4.1-42.9c0.3-2.8,2.2-4.9,4.6-5.3c-0.9,1-1.5,2.2-1.7,3.7l-4.1,42.9c-0.3,3.2,1.8,6.1,4.6,6.4
					l13.5,1.3c0.9,0.1,2.1-0.1,3.3-0.5c-1.8,1.4-4.4,2.3-6.2,2.1l-13.5-1.3C105.6,116.3,103.5,113.4,103.9,110.2z"/>
				<g>
					<path class="st9" d="M112.3,91.6c-0.3,2.9,1.8,5.4,4.7,5.7c2.9,0.3,5.4-1.8,5.7-4.7c0.3-2.9-1.8-5.4-4.7-5.7
						C115.2,86.7,112.6,88.8,112.3,91.6z"/>
					<polygon class="st8" points="124.4,95 112.8,86.4 119,99.4 119.5,94.5 					"/>
				</g>
				
					<rect x="116.3" y="73.2" transform="matrix(9.618462e-02 -0.9954 0.9954 9.618462e-02 28.5868 190.0056)" class="st10" width="5.2" height="12.2"/>
				<path class="st10" d="M119,105.5c-0.1,1.4,0.9,2.7,2.4,2.9c1.4,0.1,2.7-0.9,2.9-2.4c0.1-1.4-0.9-2.7-2.4-2.9
					C120.4,103.1,119.1,104.1,119,105.5z"/>
				<path class="st10" d="M108.6,104.5c-0.1,1.4,0.9,2.7,2.4,2.9c1.4,0.1,2.7-0.9,2.9-2.3c0.1-1.4-0.9-2.7-2.4-2.9
					C110,102.1,108.7,103.1,108.6,104.5z"/>
			</g>
			<path class="st10" d="M166,108.2c-0.1,1.4,0.9,2.7,2.4,2.9c1.4,0.1,2.7-0.9,2.9-2.4c0.1-1.4-0.9-2.7-2.4-2.9
				C167.4,105.7,166.1,106.7,166,108.2z"/>
			<g>
				<path class="st1" d="M145.2,113.4c10.3,0,19.8-2.2,23.8-3.3c0.9-0.3,1.5-1.2,1.2-2.1c-0.3-0.9-1.2-1.5-2.1-1.2
					c-4.9,1.3-30.4,7.5-45.6-2.4c-0.8-0.5-1.9-0.3-2.4,0.5c-0.5,0.8-0.3,1.9,0.5,2.4C127.8,111.9,136.8,113.4,145.2,113.4z"/>
			</g>
			<g>
				<path class="st5" d="M154.2,72.3c4.3,0,7.6-0.3,8.7-0.5c0.5-0.1,0.8-0.5,0.7-1c-0.1-0.5-0.5-0.8-1-0.7
					c-2.5,0.4-18.2,1.8-27.3-2.9c-0.4-0.2-1-0.1-1.2,0.4c-0.2,0.4-0.1,1,0.4,1.2C140.1,71.6,148,72.3,154.2,72.3z"/>
			</g>
			<path class="st7" d="M120.1,104.8c0.2-0.3,0.4-0.4,0.7-0.6c-0.1,0.6,0.2,1.3,0.8,1.7c7.2,4.7,16.2,6.1,24.6,6.1
				c10.4,0,19.8-2.2,23.8-3.3c0.1,0,0.2-0.1,0.3-0.2c-0.1,0.7-0.6,1.3-1.3,1.5c-4,1.1-13.5,3.3-23.8,3.3c-8.4,0-17.4-1.5-24.6-6.1
				C119.8,106.7,119.6,105.7,120.1,104.8z"/>
			<path class="st9" d="M162.5,77.7l0.4,5.2l6.8-0.5c-0.7-1.9-1.4-3.6-2.2-5.1L162.5,77.7z"/>
			<g>
				<rect x="137.3" y="157.3" class="st8" width="34.9" height="8.7"/>
				<path class="st19" d="M126.8,157.3c0,1,0.8,1.7,1.7,1.7h52.3c1,0,1.7-0.8,1.7-1.7v-12.2c0-1-0.8-1.7-1.7-1.7h-52.3
					c-1,0-1.7,0.8-1.7,1.7V157.3z"/>
			</g>
			<g>
				<path class="st10" d="M189.6,107.9c1.6,2.4,4.9,3,7.3,1.4c2.4-1.6,3-4.9,1.4-7.3c-1.6-2.4-4.9-3-7.3-1.4
					C188.6,102.3,188,105.5,189.6,107.9z"/>
				<path class="st10" d="M229.3,161.1c0.3,0.4,1.4,0.2,2.5-0.6l0,0c1.1-0.8,1.8-1.7,1.5-2.2l-36.8-54c-0.3-0.4-1.4-0.2-2.5,0.6l0,0
					c-1.1,0.8-1.8,1.7-1.5,2.2L229.3,161.1z"/>
			</g>
			<polygon class="st10" points="212.3,162.5 217.5,152 235,145.1 252.4,162.5 			"/>
			<polygon class="st19" points="46.6,174.7 83.3,199.1 119.9,181.7 123.4,181.7 126.8,181.7 163.5,199.1 200.1,181.7 203.6,181.7 
				207.1,181.7 243.7,199.1 268.1,174.7 271.6,171.2 271.6,166 268.1,162.5 46.6,162.5 43.1,166 43.1,171.2 			"/>
			<polygon class="st7" points="46.6,166 83.3,190.4 119.9,173 126.8,173 163.5,190.4 200.1,173 207.1,173 243.7,190.4 268.1,166 
				269.8,164.2 271.6,166 271.6,171.2 268.1,174.7 243.7,199.1 207.1,181.7 200.1,181.7 163.5,199.1 126.8,181.7 119.9,181.7 
				83.3,199.1 46.6,174.7 43.1,171.2 43.1,166 44.9,164.2 			"/>
			<g>
				<path class="st10" d="M221,190.4c0-1,0.8-1.7,1.7-1.7h8.3l-5.9-5.9c-0.7-0.7-0.7-1.8,0-2.5l4.9-4.9c0.7-0.7,1.8-0.7,2.5,0
					l5.9,5.9V173c0-1,0.8-1.7,1.7-1.7h7c1,0,1.7,0.8,1.7,1.7v8.3l5.9-5.9c0.7-0.7,1.8-0.7,2.5,0l4.9,4.9c0.7,0.7,0.7,1.8,0,2.5
					l-5.9,5.9h8.3c1,0,1.7,0.8,1.7,1.7l0,7c0,1-0.8,1.7-1.7,1.7h-8.3l5.9,5.9c0.7,0.7,0.7,1.8,0,2.5l-4.9,4.9
					c-0.7,0.7-1.8,0.7-2.5,0l-5.9-5.9v8.3c0,1-0.8,1.7-1.7,1.7h-7c-1,0-1.7-0.8-1.7-1.7v-8.3l-5.9,5.9c-0.7,0.7-1.8,0.7-2.5,0
					l-4.9-4.9c-0.7-0.7-0.7-1.8,0-2.5l5.9-5.9h-8.3c-1,0-1.7-0.8-1.7-1.7L221,190.4z"/>
				<path class="st10" d="M224.5,193.9c0,10.6,8.6,19.2,19.2,19.2c10.6,0,19.2-8.6,19.2-19.2c0-10.6-8.6-19.2-19.2-19.2
					C233.1,174.7,224.5,183.3,224.5,193.9z"/>
				<path class="st7" d="M233.2,195.6c0,5.8,4.7,10.5,10.5,10.5c5.8,0,10.5-4.7,10.5-10.5c0-5.8-4.7-10.5-10.5-10.5
					C237.9,185.2,233.2,189.8,233.2,195.6z"/>
				<path class="st4" d="M233.2,193.9c0,5.8,4.7,10.5,10.5,10.5c5.8,0,10.5-4.7,10.5-10.5c0-5.8-4.7-10.5-10.5-10.5
					C237.9,183.4,233.2,188.1,233.2,193.9z"/>
				<path class="st7" d="M237.7,195.6c0,3.3,2.7,6,6,6s6-2.7,6-6c0-3.3-2.7-6-6-6S237.7,192.3,237.7,195.6z"/>
				<path class="st10" d="M237.7,193.9c0,3.3,2.7,6,6,6s6-2.7,6-6c0-3.3-2.7-6-6-6S237.7,190.6,237.7,193.9z"/>
			</g>
			<g>
				<path class="st10" d="M140.8,190.4c0-1,0.8-1.7,1.7-1.7h8.3l-5.9-5.9c-0.7-0.7-0.7-1.8,0-2.5l4.9-4.9c0.7-0.7,1.8-0.7,2.5,0
					l5.9,5.9V173c0-1,0.8-1.7,1.7-1.7h7c1,0,1.7,0.8,1.7,1.7v8.3l5.9-5.9c0.7-0.7,1.8-0.7,2.5,0l4.9,4.9c0.7,0.7,0.7,1.8,0,2.5
					l-5.9,5.9h8.3c1,0,1.7,0.8,1.7,1.7l0,7c0,1-0.8,1.7-1.7,1.7h-8.3l5.9,5.9c0.7,0.7,0.7,1.8,0,2.5l-4.9,4.9
					c-0.7,0.7-1.8,0.7-2.5,0l-5.9-5.9v8.3c0,1-0.8,1.7-1.7,1.7h-7c-1,0-1.7-0.8-1.7-1.7v-8.3l-5.9,5.9c-0.7,0.7-1.8,0.7-2.5,0
					l-4.9-4.9c-0.7-0.7-0.7-1.8,0-2.5l5.9-5.9h-8.3c-1,0-1.7-0.8-1.7-1.7L140.8,190.4z"/>
				<path class="st10" d="M144.3,193.9c0,10.6,8.6,19.2,19.2,19.2c10.6,0,19.2-8.6,19.2-19.2c0-10.6-8.6-19.2-19.2-19.2
					C152.9,174.7,144.3,183.3,144.3,193.9z"/>
				<path class="st7" d="M153,195.6c0,5.8,4.7,10.5,10.5,10.5c5.8,0,10.5-4.7,10.5-10.5c0-5.8-4.7-10.5-10.5-10.5
					C157.7,185.2,153,189.8,153,195.6z"/>
				<path class="st4" d="M153,193.9c0,5.8,4.7,10.5,10.5,10.5c5.8,0,10.5-4.7,10.5-10.5c0-5.8-4.7-10.5-10.5-10.5
					C157.7,183.4,153,188.1,153,193.9z"/>
				<path class="st7" d="M157.5,195.6c0,3.3,2.7,6,6,6c3.3,0,6-2.7,6-6c0-3.3-2.7-6-6-6C160.2,189.6,157.5,192.3,157.5,195.6z"/>
				<path class="st10" d="M157.5,193.9c0,3.3,2.7,6,6,6c3.3,0,6-2.7,6-6c0-3.3-2.7-6-6-6C160.2,187.9,157.5,190.6,157.5,193.9z"/>
			</g>
			<g>
				<path class="st10" d="M60.6,190.4c0-1,0.8-1.7,1.7-1.7h8.3l-5.9-5.9c-0.7-0.7-0.7-1.8,0-2.5l4.9-4.9c0.7-0.7,1.8-0.7,2.5,0
					l5.9,5.9V173c0-1,0.8-1.7,1.7-1.7h7c1,0,1.7,0.8,1.7,1.7v8.3l5.9-5.9c0.7-0.7,1.8-0.7,2.5,0l4.9,4.9c0.7,0.7,0.7,1.8,0,2.5
					l-5.9,5.9h8.3c1,0,1.7,0.8,1.7,1.7l0,7c0,1-0.8,1.7-1.7,1.7h-8.3l5.9,5.9c0.7,0.7,0.7,1.8,0,2.5l-4.9,4.9
					c-0.7,0.7-1.8,0.7-2.5,0l-5.9-5.9v8.3c0,1-0.8,1.7-1.7,1.7h-7c-1,0-1.7-0.8-1.7-1.7v-8.3l-5.9,5.9c-0.7,0.7-1.8,0.7-2.5,0
					l-4.9-4.9c-0.7-0.7-0.7-1.8,0-2.5l5.9-5.9h-8.3c-1,0-1.7-0.8-1.7-1.7L60.6,190.4z"/>
				<path class="st10" d="M64.1,193.9c0,10.6,8.6,19.2,19.2,19.2s19.2-8.6,19.2-19.2c0-10.6-8.6-19.2-19.2-19.2
					S64.1,183.3,64.1,193.9z"/>
				<path class="st7" d="M72.8,195.6c0,5.8,4.7,10.5,10.5,10.5c5.8,0,10.5-4.7,10.5-10.5c0-5.8-4.7-10.5-10.5-10.5
					C77.5,185.2,72.8,189.8,72.8,195.6z"/>
				<path class="st4" d="M72.8,193.9c0,5.8,4.7,10.5,10.5,10.5c5.8,0,10.5-4.7,10.5-10.5c0-5.8-4.7-10.5-10.5-10.5
					C77.5,183.4,72.8,188.1,72.8,193.9z"/>
				<path class="st7" d="M77.3,195.6c0,3.3,2.7,6,6,6c3.3,0,6-2.7,6-6c0-3.3-2.7-6-6-6C80,189.6,77.3,192.3,77.3,195.6z"/>
				<path class="st10" d="M77.3,193.9c0,3.3,2.7,6,6,6c3.3,0,6-2.7,6-6c0-3.3-2.7-6-6-6C80,187.9,77.3,190.6,77.3,193.9z"/>
			</g>
			<polygon class="st8" points="50.1,122.4 53.6,118.9 111.2,118.9 114.6,122.4 114.6,159 111.2,162.5 53.6,162.5 50.1,159 			"/>
			<polygon class="st10" points="57.1,157.3 107.7,157.3 109.4,155.5 109.4,125.9 107.7,124.1 57.1,124.1 55.4,125.9 55.4,155.5 			
				"/>
			<polygon class="st8" points="109.4,122.4 51.9,153.8 55.4,159 112.9,127.6 			"/>
			<polygon class="st8" points="109.4,159 51.9,127.6 55.4,122.4 112.9,153.8 			"/>
			<polygon class="st7" points="114.6,140.7 114.6,159 111.2,162.5 53.6,162.5 50.1,159 50.1,140.7 			"/>
			<polygon class="st8" points="58.8,118.9 88.5,118.9 92,115.4 92,85.8 88.5,82.3 58.8,82.3 55.4,85.8 55.4,115.4 			"/>
			<polygon class="st10" points="62.3,113.7 85,113.7 86.7,111.9 86.7,89.3 85,87.5 62.3,87.5 60.6,89.3 60.6,111.9 			"/>
			<polygon class="st8" points="86.7,85.8 58.8,110.2 60.6,115.4 88.5,91 			"/>
			<polygon class="st8" points="86.7,115.4 58.8,91 60.6,85.8 88.5,110.2 			"/>
			<polygon class="st7" points="92,100.6 92,115.4 88.5,118.9 58.8,118.9 55.4,115.4 55.4,100.6 			"/>
			<g>
				<path class="st19" d="M262.9,149.4c0,1,0.8,1.7,1.7,1.7h7c1,0,1.7-0.8,1.7-1.7v-15.7c0-1-0.8-1.7-1.7-1.7h-7
					c-1,0-1.7,0.8-1.7,1.7V149.4z"/>
				<path class="st4" d="M269.8,129.4v24.4c-8.7,0-15.7-5.5-15.7-12.2C254.1,134.8,261.2,129.4,269.8,129.4z"/>
				<path class="st7" d="M256.3,135.5c-0.2,0.8-0.4,1.7-0.4,2.6c0,6.3,6.1,11.5,14,12.1v3.6c-8.7,0-15.7-5.5-15.7-12.2
					C254.1,139.3,254.9,137.3,256.3,135.5z"/>
			</g>
			<polygon class="st10" points="252.4,162.5 266.3,162.5 266.3,152 259.4,148.5 			"/>
		</g>
	</g>
</g>
<g id="Ñëîé_7">
</g>
</svg>
